<svg width="1400" height="800" viewBox="0 0 1400 800" fill="none" xmlns="http://www.w3.org/2000/svg">
<g clip-path="url(#clip0_3722_26763)">
<rect width="1400" height="800" fill="#263238"/>
<path d="M626.573 473.205C797.514 529.187 834.984 699.599 990.084 747.011C1174.06 803.192 1339.99 629.357 1430 479.079L1425.27 333.622C1288.73 564.915 1092.03 618.292 938.943 569.992C763.263 514.537 681.886 319.491 583.264 181.025C583.264 181.025 522.548 96.2249 463.448 69.9053C390.595 37.4608 328.012 34.0673 261.737 67.8467C195.463 101.626 -93.8672 323.369 -97 679.997L-6.47541 768C130.927 630.612 405.485 400.768 626.573 473.205ZM349.416 386.619C311.571 360.927 340.59 293.328 368.115 258.125C380.411 242.301 414.438 199.81 447.175 208.939C488.731 220.574 535.01 314.279 488.463 363.337C456.751 397.466 380.764 408.028 349.416 386.619Z" fill="#39454B"/>
<path d="M1303.53 635.862L1301.67 645.305L1308.08 651.968L1298.81 652.957L1294.49 661.178L1290.53 652.669L1281.29 650.967L1288.17 644.722L1286.8 635.499L1295.07 640.199L1303.53 635.862Z" fill="#E6E5C0"/>
<path d="M734.354 324.74L732.493 334.184L738.907 340.847L729.635 341.835L725.316 350.057L721.351 341.548L712.118 339.846L718.992 333.601L717.62 324.378L725.894 329.078L734.354 324.74Z" fill="#E6E5C0"/>
<path d="M1118.77 715.005L1115.31 723.885L1120.52 731.66L1111.06 731.139L1105.29 738.585L1102.79 729.506L1093.74 726.247L1101.89 720.99L1102.2 711.361L1109.7 717.503L1118.77 715.005Z" fill="#E2B133"/>
<path d="M329.9 410.757L326.433 419.637L331.647 427.412L322.181 426.891L316.42 434.337L313.917 425.258L304.868 421.999L313.019 416.742L313.322 407.113L320.821 413.255L329.9 410.757Z" fill="#E2B133"/>
<path d="M1011.87 565.975C1010.55 567.677 1008.29 567.965 1006.58 566.647C1004.88 565.33 1004.59 563.065 1005.91 561.363C1007.22 559.661 1009.49 559.373 1011.19 560.69C1012.9 562.008 1013.02 564.485 1011.87 565.975Z" fill="#FFCA28"/>
<path d="M307.625 545.546C309.271 546.819 311.637 546.518 312.91 544.873C314.183 543.228 313.88 540.862 312.234 539.589C310.588 538.315 308.222 538.617 306.95 540.262C305.677 541.907 305.979 544.272 307.625 545.546Z" fill="#FFCA28"/>
<path d="M116.445 680.935C118.091 682.208 120.457 681.907 121.73 680.262C123.002 678.617 122.7 676.251 121.054 674.978C119.408 673.704 117.042 674.005 115.769 675.65C114.497 677.295 114.799 679.661 116.445 680.935Z" fill="#FFCA28"/>
<path d="M1013.04 420.639C1011.72 422.341 1009.46 422.629 1007.75 421.312C1006.05 419.994 1005.76 417.729 1007.08 416.027C1008.39 414.325 1010.66 414.037 1012.36 415.355C1014.07 416.672 1014.35 418.937 1013.04 420.639Z" fill="#FFCA28"/>
<path d="M843.527 349.008C842.21 350.71 839.945 350.998 838.242 349.681C836.539 348.363 836.249 346.098 837.566 344.396C838.883 342.694 841.148 342.406 842.851 343.724C844.554 345.041 844.843 347.306 843.527 349.008Z" fill="#FFCA28"/>
<path d="M629.25 495.776C630.896 497.05 633.262 496.749 634.535 495.104C635.808 493.459 635.505 491.093 633.859 489.819C632.213 488.546 629.847 488.847 628.575 490.492C627.302 492.137 627.604 494.503 629.25 495.776Z" fill="#FFCA28"/>
<path d="M502.696 467.584C501.38 469.286 499.115 469.574 497.412 468.257C495.709 466.939 495.419 464.675 496.736 462.973C498.053 461.271 500.318 460.982 502.021 462.3C503.724 463.617 504.013 465.882 502.696 467.584Z" fill="#FFCA28"/>
<path d="M0.648589 609.371C-0.668207 611.073 -2.933 611.362 -4.63595 610.044C-6.33891 608.726 -6.62855 606.462 -5.31176 604.76C-3.99496 603.058 -1.73009 602.769 -0.0271344 604.087C1.51122 605.617 1.80079 607.882 0.648589 609.371Z" fill="#FFCA28"/>
<path d="M437.057 590.249C438.703 591.522 441.069 591.221 442.342 589.576C443.615 587.931 443.312 585.565 441.666 584.292C440.02 583.019 437.654 583.32 436.382 584.965C435.109 586.61 435.411 588.976 437.057 590.249Z" fill="#FFCA28"/>
<path d="M665.467 284.028C667.113 285.302 669.479 285 670.752 283.355C672.024 281.71 671.722 279.345 670.076 278.071C668.43 276.798 666.064 277.099 664.791 278.744C663.519 280.389 663.821 282.755 665.467 284.028Z" fill="#FFCA28"/>
<path d="M93.0075 371.68C91.6908 373.382 89.4259 373.67 87.723 372.352C86.02 371.035 85.7304 368.77 87.0472 367.068C88.364 365.366 90.6288 365.078 92.3317 366.396C94.0347 367.713 94.1597 370.19 93.0075 371.68Z" fill="#FFCA28"/>
<path d="M866.311 494.173C867.472 495.751 867.384 498.064 865.641 499.436C864.063 500.596 861.75 500.507 860.376 498.764C859.216 497.186 859.303 494.873 861.046 493.5C862.624 492.34 864.937 492.43 866.311 494.173Z" fill="#FFCA28"/>
<path d="M278.279 700.032C279.44 701.611 279.352 703.923 277.61 705.296C276.032 706.456 273.719 706.367 272.345 704.624C271.184 703.045 271.272 700.733 273.014 699.36C274.592 698.2 276.741 698.502 278.279 700.032Z" fill="#FFCA28"/>
<path d="M1232.3 717.813C1233.46 719.391 1233.37 721.704 1231.63 723.077C1230.05 724.237 1227.74 724.148 1226.37 722.405C1225.2 720.826 1225.29 718.514 1227.04 717.141C1228.61 715.981 1231.14 716.235 1232.3 717.813Z" fill="#FFCA28"/>
<path d="M1315.1 570.331C1316.26 571.909 1316.17 574.222 1314.43 575.594C1312.85 576.754 1310.54 576.665 1309.16 574.922C1308 573.344 1308.09 571.031 1309.83 569.659C1311.57 568.286 1313.94 568.753 1315.1 570.331Z" fill="#FFCA28"/>
<path d="M1376.52 379.668L1374.66 389.111L1381.08 395.774L1371.81 396.763L1367.49 404.985L1363.52 396.475L1354.29 394.774L1361.16 388.529L1359.79 379.305L1368.06 384.006L1376.52 379.668Z" fill="#E6E5C0"/>
<path d="M902.944 115.641C901.627 117.343 899.362 117.631 897.659 116.313C895.957 114.996 895.667 112.731 896.984 111.029C898.3 109.327 900.565 109.039 902.268 110.356C903.971 111.674 904.261 113.939 902.944 115.641Z" fill="#FFCA28"/>
<path d="M1159.15 49.2657C1157.83 50.9677 1155.57 51.2561 1153.86 49.9385C1152.16 48.621 1151.87 46.3563 1153.19 44.6543C1154.51 42.9523 1156.77 42.6639 1158.47 43.9815C1160.18 45.299 1160.47 47.5637 1159.15 49.2657Z" fill="#FFCA28"/>
<path d="M1378 125.737C1379.16 127.316 1379.07 129.628 1377.33 131.001C1375.75 132.161 1373.44 132.072 1372.06 130.329C1370.9 128.75 1370.99 126.438 1372.73 125.065C1374.48 123.692 1376.84 124.159 1378 125.737Z" fill="#FFCA28"/>
<path d="M1277.05 321.753C1278.21 323.331 1278.12 325.644 1276.38 327.016C1274.8 328.176 1272.49 328.087 1271.12 326.344C1269.95 324.766 1270.04 322.453 1271.78 321.08C1273.36 319.921 1275.89 320.174 1277.05 321.753Z" fill="#FFCA28"/>
<path d="M1396.36 308.29C1397.52 309.868 1397.43 312.181 1395.69 313.554C1394.11 314.714 1391.8 314.624 1390.42 312.881C1389.26 311.303 1389.35 308.99 1391.09 307.618C1392.84 306.245 1394.98 306.547 1396.36 308.29Z" fill="#FFCA28"/>
<path d="M1299.59 465.03C1300.75 466.608 1300.66 468.921 1298.92 470.294C1297.34 471.453 1295.03 471.364 1293.66 469.621C1292.5 468.043 1292.58 465.73 1294.33 464.358C1295.91 463.198 1298.43 463.452 1299.59 465.03Z" fill="#FFCA28"/>
<path d="M1235.1 209.716C1236.26 211.294 1236.17 213.607 1234.43 214.98C1232.85 216.139 1230.54 216.05 1229.17 214.307C1228.01 212.729 1228.09 210.416 1229.84 209.044C1231.58 207.671 1233.94 208.137 1235.1 209.716Z" fill="#FFCA28"/>
<path d="M1120.82 316.518C1121.98 318.097 1121.9 320.409 1120.15 321.782C1118.58 322.942 1116.26 322.853 1114.89 321.11C1113.73 319.532 1113.82 317.219 1115.56 315.846C1117.3 314.474 1119.45 314.775 1120.82 316.518Z" fill="#FFCA28"/>
<path d="M1156.02 426.729C1157.18 428.308 1157.09 430.62 1155.35 431.993C1153.77 433.153 1151.46 433.064 1150.08 431.321C1148.92 429.742 1149.01 427.43 1150.75 426.057C1152.33 424.897 1154.64 424.986 1156.02 426.729Z" fill="#FFCA28"/>
<path d="M186.524 379.668L184.663 389.111L191.077 395.774L181.805 396.763L177.486 404.985L173.521 396.475L164.288 394.774L171.162 388.529L169.79 379.305L178.064 384.006L186.524 379.668Z" fill="#E6E5C0"/>
<path d="M363.493 193.154C362.176 194.856 359.911 195.145 358.208 193.827C356.505 192.509 356.216 190.245 357.533 188.543C358.849 186.841 361.114 186.553 362.817 187.87C364.52 189.188 364.81 191.452 363.493 193.154Z" fill="#FFCA28"/>
<path d="M187.999 125.737C189.16 127.316 189.072 129.628 187.329 131.001C185.751 132.161 183.438 132.072 182.064 130.329C180.904 128.75 180.991 126.438 182.734 125.065C184.476 123.692 186.838 124.159 187.999 125.737Z" fill="#FFCA28"/>
<path d="M87.0494 321.753C88.2103 323.331 88.1225 325.644 86.38 327.016C84.8021 328.176 82.489 328.087 81.1152 326.344C79.9543 324.766 80.0421 322.453 81.7846 321.08C83.3626 319.921 85.8885 320.174 87.0494 321.753Z" fill="#FFCA28"/>
<path d="M206.358 308.29C207.518 309.868 207.431 312.181 205.688 313.554C204.11 314.714 201.797 314.624 200.423 312.881C199.262 311.303 199.35 308.99 201.093 307.618C202.835 306.245 204.984 306.547 206.358 308.29Z" fill="#FFCA28"/>
<path d="M342.629 125.997C343.789 127.575 343.702 129.888 341.959 131.261C340.381 132.421 338.068 132.331 336.694 130.588C335.533 129.01 335.621 126.697 337.364 125.325C339.106 123.952 341.255 124.254 342.629 125.997Z" fill="#FFCA28"/>
<path d="M109.592 465.03C110.753 466.608 110.665 468.921 108.922 470.294C107.344 471.453 105.031 471.364 103.658 469.621C102.497 468.043 102.585 465.73 104.327 464.358C105.905 463.198 108.431 463.452 109.592 465.03Z" fill="#FFCA28"/>
<path d="M45.1012 209.716C46.2621 211.294 46.1742 213.607 44.4316 214.98C42.8537 216.139 40.5405 216.05 39.1668 214.307C38.0059 212.729 38.0938 210.416 39.8364 209.044C41.5789 207.671 43.9403 208.137 45.1012 209.716Z" fill="#FFCA28"/>
<path d="M865.15 776.776C862.462 807.354 836.775 831.775 805.012 831.775H582.777C552.077 831.775 527.068 808.969 523.002 779.848C522.384 775.501 522.247 771.098 522.595 766.721L529.023 684.135L538.543 561.724C538.68 559.972 538.893 558.234 539.177 556.527C541.515 542.422 548.784 529.605 559.69 520.361C570.595 511.116 584.429 506.043 598.725 506.047H789.051C803.068 506.048 816.648 510.927 827.462 519.847C838.276 528.767 845.649 541.171 848.318 554.933C848.749 557.178 849.055 559.445 849.233 561.724L858.664 682.973L865.181 766.708C865.453 770.059 865.443 773.427 865.15 776.776Z" fill="white"/>
<path d="M805.015 836.592H582.78C573.794 836.593 564.905 834.735 556.671 831.135C548.437 827.536 541.036 822.273 534.934 815.677C528.831 809.08 524.158 801.293 521.208 792.805C518.258 784.316 517.095 775.309 517.793 766.35L533.738 561.355C536.368 527.637 564.909 501.223 598.728 501.223H789.059C822.878 501.223 851.424 527.637 854.046 561.355L869.994 766.35C870.692 775.309 869.529 784.316 866.579 792.805C863.629 801.294 858.956 809.081 852.853 815.678C846.75 822.274 839.349 827.537 831.115 831.136C822.88 834.735 813.991 836.593 805.005 836.592H805.015ZM598.739 510.865C569.922 510.865 545.597 533.371 543.364 562.102L527.408 767.097C526.813 774.731 527.804 782.406 530.317 789.639C532.83 796.873 536.812 803.508 542.012 809.129C547.212 814.75 553.518 819.234 560.535 822.301C567.551 825.368 575.125 826.951 582.783 826.95H805.018C812.675 826.951 820.249 825.368 827.266 822.301C834.282 819.234 840.588 814.75 845.788 809.129C850.988 803.508 854.97 796.873 857.483 789.639C859.997 782.406 860.987 774.731 860.392 767.097L844.447 562.102C842.211 533.371 817.884 510.865 789.072 510.865H598.739Z" fill="#111D23"/>
<path d="M997.486 655.075C996.379 669.396 991.261 683.302 978.882 693.785C929.175 735.886 847.981 686.792 816.784 643C815.756 641.564 804.968 621.672 794.114 597.701C776.685 559.165 759.111 510.068 781.729 510.068C818.425 510.068 889.475 620.712 953.844 597.286C980.344 587.649 981.17 586.655 981.17 586.576C981.435 587.084 1000.05 622.159 997.486 655.075Z" fill="white"/>
<path d="M997.486 655.075C996.379 669.396 991.261 683.302 978.881 693.785C929.174 735.886 886.771 700.415 883.019 677.898C889.899 674.77 890.12 679.046 879.266 655.075C861.837 616.539 872.284 590.957 894.902 590.957C931.599 590.957 889.475 620.713 953.844 597.286C980.344 587.649 981.17 586.655 981.17 586.576C981.435 587.084 1000.05 622.159 997.486 655.075Z" fill="#FFCA28"/>
<g opacity="0.35">
<path d="M997.486 655.074C996.379 669.395 991.261 683.3 978.882 693.784C929.175 735.884 847.981 686.791 816.784 642.999C815.756 641.563 804.968 621.671 794.114 597.7C796.368 597.447 798.634 597.319 800.902 597.316C843.981 597.316 862.157 691.388 942.183 686.046C970.366 684.16 987.332 671.126 997.486 655.074Z" fill="#111D23"/>
</g>
<path d="M933.667 714.673C929.599 714.663 925.535 714.399 921.5 713.884C878.155 708.458 834.034 675.516 812.855 645.78C812.197 644.862 754.324 540.477 768.542 512.898C770.344 509.402 774.091 505.236 781.718 505.236C797.725 505.236 817.597 522.272 840.609 541.998C873.937 570.571 915.417 606.128 952.195 592.759C964.409 588.314 970.986 585.776 974.513 584.343L970.029 575.926L986.13 583.577L986.04 585.492C991.219 595.678 1023 662.718 981.995 697.451C968.483 708.908 952.266 714.673 933.667 714.673ZM781.729 514.889C778.836 514.889 777.834 516.007 777.182 517.214C775.12 521.03 772.566 535.175 793.364 583.987C805.554 612.601 819.58 638.455 820.761 640.259C840.188 667.533 882.566 699.3 922.707 704.326C943.687 706.956 961.534 702.167 975.776 690.102C1008 662.804 986.051 608.324 978.932 592.951C974.279 594.874 966.402 597.854 955.509 601.817C913.429 617.13 869.584 579.535 834.347 549.33C813.673 531.619 794.156 514.889 781.729 514.889Z" fill="#111D23"/>
<path d="M908.074 711.208C907.469 711.207 906.87 711.093 906.307 710.871C883.044 701.694 875.925 671.306 873.75 654.01C870.36 627.041 874.129 592.568 886.14 583.889C886.652 583.506 887.236 583.23 887.856 583.075C888.476 582.92 889.121 582.89 889.753 582.987C890.385 583.084 890.991 583.306 891.536 583.639C892.082 583.972 892.556 584.411 892.93 584.929C893.304 585.447 893.572 586.034 893.717 586.657C893.863 587.28 893.883 587.925 893.776 588.555C893.67 589.185 893.439 589.788 893.098 590.329C892.756 590.869 892.31 591.336 891.787 591.703C885.895 595.961 879.515 622.504 883.323 652.806C886.571 678.639 896.239 696.531 909.852 701.9C910.898 702.31 911.767 703.074 912.31 704.057C912.853 705.041 913.035 706.183 912.825 707.287C912.615 708.391 912.026 709.387 911.16 710.102C910.294 710.818 909.206 711.209 908.082 711.208H908.074Z" fill="#111D23"/>
<path d="M962.515 631.756C932.841 646.148 921.332 630.377 891.263 625.656C873.247 622.832 843.868 624.368 848.465 602.85C849.483 598.061 852.904 595.462 857.433 593.937C868.629 590.152 886.553 592.922 891.558 585.297C898.493 575.129 886.689 558.593 874.265 547.805C861.263 536.495 850.172 526.637 856.381 516.222C858.404 512.832 860.876 510.891 863.611 510.01C864.645 509.674 865.72 509.483 866.807 509.444C869.847 509.286 873.066 510.144 876.227 511.567C885.169 515.544 893.688 523.928 896.478 526.84L896.499 526.864C896.612 526.977 896.715 527.077 896.804 527.179C897.212 527.608 897.428 527.845 897.428 527.845C896.904 525.435 896.616 522.98 896.568 520.514C896.478 515.985 897.315 510.562 901.268 508.1C914.844 499.629 926.739 515.828 933.469 528.592C934.363 530.285 935.131 531.9 935.797 533.436C939.626 542.202 940.099 548.212 940.099 548.212C940.099 548.212 940.888 548.425 942.235 548.867C948.81 551.013 968.835 558.58 976.912 573.459C977.707 574.92 978.375 576.447 978.91 578.022C986.111 599.284 981.727 622.429 962.515 631.756Z" fill="#FFCA28"/>
<g opacity="0.35">
<path d="M911.572 568.831C911.572 568.831 891.908 524.077 865.839 511.231C865.076 510.872 864.336 510.464 863.625 510.011C864.658 509.675 865.734 509.484 866.82 509.445C869.363 509.898 872.819 510.71 876.241 511.568C885.183 515.545 893.701 523.929 896.492 526.841L896.513 526.865C903.385 538.4 912.261 555.964 911.572 568.831Z" fill="#111D23"/>
</g>
<g opacity="0.35">
<path d="M942.251 548.861L932.672 560.62L918.733 569.802C918.733 569.802 911.632 572.739 911.632 567.295C911.632 550.578 902.953 536.049 896.833 527.173C897.241 527.601 897.457 527.838 897.457 527.838C896.933 525.428 896.645 522.973 896.597 520.508C910.864 530.142 910.704 551.943 919.478 546.173C928.346 540.344 928.946 534.006 935.834 533.43C939.663 542.196 940.136 548.206 940.136 548.206C940.136 548.206 940.907 548.419 942.251 548.861Z" fill="#111D23"/>
</g>
<g opacity="0.35">
<path d="M962.515 631.755C932.841 646.147 921.332 630.377 891.263 625.656C873.247 622.831 843.868 624.367 848.465 602.85C849.483 598.061 852.904 595.462 857.433 593.937C857.368 600.352 851.647 607.695 869.295 612.19C898.246 619.567 913.742 619.533 923.128 615.346C939.474 608.061 915.593 589.263 916.816 573.225C917.947 558.336 963.954 576.16 963.954 576.16L976.919 573.451C977.714 574.912 978.383 576.439 978.918 578.014C986.111 599.284 981.727 622.429 962.515 631.755Z" fill="#111D23"/>
</g>
<path d="M935.755 642.303C935.602 642.303 935.45 642.303 935.297 642.282C927.999 641.593 921.358 639.299 914.315 636.871C907.196 634.418 899.834 631.874 890.516 630.415C887.529 629.946 884.186 629.597 880.649 629.231C867.633 627.879 852.881 626.338 846.364 617.382C843.321 613.195 842.44 607.961 843.75 601.83C846.477 589.045 860.453 587.749 871.68 586.71C878.255 586.1 885.711 585.395 887.531 582.638C892.265 575.705 882.582 561.405 871.107 551.44C857.715 539.812 843.868 527.787 852.239 513.742C856.295 506.938 861.786 505.063 865.676 504.671C874.912 503.766 884.935 510.194 891.976 516.025C892.562 511.422 894.343 506.725 898.719 504C903.53 500.999 908.561 500.179 913.679 501.562C922.195 503.866 930.295 512.201 937.746 526.335C941.88 534.178 943.658 540.748 944.402 544.483C952.971 547.345 976.883 556.926 983.484 576.468C987.429 588.143 988.06 600.271 985.262 610.612C982.106 622.24 974.979 631.046 964.614 636.075C963.463 636.633 962.138 636.711 960.929 636.291C959.721 635.872 958.728 634.99 958.17 633.839C957.612 632.688 957.534 631.363 957.954 630.154C958.373 628.946 959.255 627.953 960.406 627.395C968.185 623.621 973.556 616.946 975.954 608.09C978.261 599.571 977.688 589.435 974.35 579.548C968.088 561.008 939.14 552.928 938.845 552.85C937.887 552.588 937.033 552.038 936.399 551.274C935.765 550.509 935.382 549.568 935.303 548.578C935.303 548.523 934.577 540.993 929.214 530.822C923.236 519.481 916.822 512.39 911.159 510.86C908.666 510.189 906.333 510.597 903.819 512.175C900.786 514.066 901.018 521.975 902.128 526.725C902.371 527.766 902.262 528.858 901.817 529.831C901.372 530.803 900.617 531.6 899.669 532.096C898.722 532.593 897.637 532.76 896.584 532.572C895.532 532.384 894.571 531.852 893.854 531.059C887.602 524.142 874.721 513.461 866.604 514.26C865.026 514.418 862.659 515.049 860.511 518.674C856.566 525.312 864.258 532.729 877.419 544.154C891.326 556.232 904.416 574.961 895.534 587.996C891.213 594.571 881.729 595.455 872.561 596.304C861.599 597.32 854.33 598.393 853.168 603.837C852.444 607.227 852.765 609.802 854.151 611.709C858.141 617.196 871.167 618.547 881.635 619.636C885.301 620.015 888.762 620.375 892 620.883C902.162 622.479 910.283 625.281 917.448 627.753C924.207 630.083 930.04 632.095 936.192 632.676C937.425 632.792 938.567 633.379 939.38 634.314C940.193 635.25 940.615 636.462 940.557 637.7C940.5 638.938 939.968 640.107 939.071 640.963C938.175 641.819 936.984 642.297 935.744 642.297L935.755 642.303Z" fill="#111D23"/>
<path d="M909.171 568.602C909.171 567.936 909.11 566.997 909.029 566.177C908.947 565.356 908.844 564.467 908.689 563.612C908.412 561.892 908.048 560.186 907.598 558.502C906.684 555.12 905.521 551.81 904.118 548.6C902.701 545.388 901.088 542.267 899.29 539.252C898.419 537.732 897.404 536.283 896.478 534.802L893.43 530.497L893.293 530.307C892.926 529.789 892.664 529.204 892.523 528.584C892.382 527.965 892.364 527.324 892.471 526.698C892.578 526.072 892.806 525.473 893.145 524.936C893.483 524.398 893.923 523.932 894.441 523.565C894.959 523.197 895.545 522.936 896.164 522.795C896.783 522.654 897.424 522.636 898.05 522.742C898.676 522.849 899.275 523.078 899.813 523.416C900.35 523.754 900.816 524.195 901.183 524.713C901.283 524.858 901.381 525.01 901.465 525.16C902.398 526.838 903.353 528.498 904.258 530.184C905.097 531.912 906.012 533.603 906.777 535.352C908.372 538.841 909.751 542.424 910.906 546.083C912.049 549.752 912.919 553.502 913.507 557.3C913.799 559.208 913.994 561.13 914.091 563.057C914.213 565.055 914.173 567.058 913.973 569.049C913.903 569.657 913.605 570.216 913.138 570.611C912.671 571.007 912.071 571.21 911.46 571.179C910.848 571.147 910.272 570.885 909.848 570.444C909.424 570.002 909.183 569.416 909.176 568.804L909.171 568.602Z" fill="#111D23"/>
<path d="M961.148 560.575C961.148 560.575 954.36 564.401 949.355 570.832C944.284 577.339 941.641 588.399 929.94 586.308C921.84 584.851 916.701 573.012 921.874 560.417C924.178 554.804 928.528 549.044 935.576 543.971C935.576 543.971 945.255 538.526 953.263 543.497C958.449 546.716 960.38 551.125 961.048 554.68C961.417 556.625 961.451 558.619 961.148 560.575Z" fill="#FFCA28"/>
<g opacity="0.35">
<path d="M961.148 560.575C961.148 560.575 954.36 564.402 949.355 570.833C944.284 577.34 941.641 588.399 929.94 586.308C921.84 584.851 916.701 573.013 921.874 560.417C923.886 564.497 923.636 573.363 929.68 574.076C938.264 575.08 943.653 550.931 961.048 554.681C961.417 556.626 961.451 558.619 961.148 560.575Z" fill="#111D23"/>
</g>
<path d="M932.746 591.386C931.519 591.382 930.295 591.269 929.088 591.047C922.552 589.876 917.39 584.298 915.62 576.486C913.347 566.46 916.656 551.626 932.759 540.051C932.904 539.949 933.054 539.854 933.209 539.764C933.706 539.486 945.491 532.997 955.809 539.399C968.569 547.316 965.987 560.95 965.871 561.529C965.734 562.207 965.453 562.847 965.047 563.407C964.641 563.966 964.119 564.432 963.517 564.772C963.37 564.856 957.437 568.291 953.155 573.788C952.158 575.069 951.206 576.681 950.196 578.364C947.046 583.664 942.451 591.386 932.746 591.386ZM938.125 548.073C926.071 556.858 923.444 567.391 925.022 574.353C925.908 578.262 928.178 581.089 930.787 581.557C935.981 582.483 937.967 580.068 941.912 573.435C943.027 571.56 944.179 569.622 945.549 567.865C949.289 563.059 953.873 559.582 956.548 557.778C956.524 555.211 955.698 550.677 950.725 547.592C945.752 544.507 939.295 547.486 938.125 548.073Z" fill="#111D23"/>
<path d="M978.716 576.557C978.562 578.068 978.285 579.563 977.89 581.029C977.89 581.029 974.095 579.808 969.08 586.236C964.009 592.743 963.68 597.759 953.842 597.283C947.53 596.988 940.876 589.477 942.412 579.864C943.327 574.125 947.146 567.652 955.683 561.518C955.683 561.518 965.535 555.803 973.385 561.045C978.916 564.74 979.211 571.892 978.716 576.557Z" fill="#FFCA28"/>
<g opacity="0.35">
<path d="M978.716 576.557C978.562 578.067 978.285 579.563 977.89 581.028C977.89 581.028 974.095 579.808 969.08 586.236C964.009 592.743 963.68 597.759 953.842 597.283C947.53 596.988 940.876 589.476 942.412 579.863C948.219 581.93 945.123 589.461 954.165 588.895C961.997 588.408 964.514 563.464 978.716 576.557Z" fill="#111D23"/>
</g>
<path d="M955.012 602.135C954.562 602.135 954.099 602.135 953.618 602.103C946.809 601.785 940.484 596.275 938.24 588.69C936.726 583.59 935.124 570.347 952.874 557.594C953 557.499 953.132 557.411 953.268 557.331C953.776 557.033 965.832 550.19 976.055 557.018C987.516 564.669 982.729 581.633 982.519 582.351C982.184 583.501 981.433 584.486 980.412 585.112C979.391 585.738 978.173 585.962 976.996 585.739C976.454 585.833 974.892 586.567 972.875 589.171C971.87 590.465 971.055 591.72 970.266 592.932C967.339 597.469 964.309 602.135 955.012 602.135ZM958.257 565.608C949.468 572.007 945.541 579.413 947.474 585.96C948.642 589.905 951.74 592.364 954.049 592.472C958.907 592.701 959.546 591.738 962.171 587.701C963.026 586.386 964.012 584.884 965.258 583.266C968.378 579.261 971.378 577.42 973.816 576.633C974.277 573.109 974.342 567.493 970.684 565.061C965.947 561.881 959.409 565.013 958.257 565.608Z" fill="#111D23"/>
<path d="M391.931 655.075C393.039 669.396 398.154 683.301 410.533 693.785C460.24 735.886 541.434 686.792 572.633 643C573.659 641.564 584.447 621.672 595.301 597.701C612.73 559.173 630.317 510.068 607.694 510.068C570.995 510.068 499.948 620.712 435.576 597.286C409.076 587.649 408.253 586.655 408.253 586.576C407.982 587.084 389.367 622.159 391.931 655.075Z" fill="white"/>
<path d="M391.931 655.075C393.039 669.396 398.154 683.302 410.533 693.785C460.24 735.886 497.744 701.666 509.628 667.265C512.129 652.879 503.777 656.834 514.631 632.864C524.013 603.466 527.247 607.219 504.624 607.219C467.925 607.219 499.948 620.713 435.576 597.286C409.076 587.649 408.253 586.655 408.253 586.576C407.982 587.084 389.367 622.159 391.931 655.075Z" fill="#FFCA28"/>
<g opacity="0.35">
<path d="M391.931 655.074C393.038 669.395 398.154 683.3 410.533 693.784C460.24 735.884 541.433 686.791 572.633 642.999C573.659 641.563 584.447 621.671 595.301 597.7C593.047 597.447 590.781 597.319 588.513 597.316C545.434 597.316 527.258 691.388 447.232 686.046C419.052 684.16 402.086 671.126 391.931 655.074Z" fill="#111D23"/>
</g>
<path d="M455.748 714.673C437.149 714.673 420.935 708.908 407.419 697.459C366.418 662.742 398.191 595.697 403.372 585.503L403.282 583.593L419.389 575.934L414.902 584.351C418.431 585.784 425.006 588.322 437.223 592.767C474 606.149 515.478 570.593 548.806 542.022C571.818 522.296 591.69 505.258 607.697 505.258C615.324 505.258 619.074 509.424 620.875 512.922C635.098 540.52 577.217 644.883 576.56 645.801C555.381 675.537 511.26 708.477 467.915 713.906C463.879 714.414 459.816 714.67 455.748 714.673ZM410.512 592.951C403.388 608.324 381.438 662.805 413.668 690.103C427.91 702.167 445.773 706.951 466.736 704.327C506.873 699.3 549.237 667.526 568.699 640.199C569.838 638.455 583.858 612.604 596.051 583.988C616.846 535.175 614.298 521.031 612.233 517.214C611.581 516.007 610.579 514.889 607.686 514.889C595.246 514.889 575.734 531.62 555.086 549.331C525.459 574.727 489.736 605.352 454.094 605.352C447.213 605.37 440.383 604.174 433.917 601.82C423.031 597.854 415.152 594.874 410.499 592.951H410.512Z" fill="#111D23"/>
<path d="M481.341 711.206C480.217 711.207 479.129 710.817 478.263 710.101C477.397 709.385 476.808 708.389 476.598 707.285C476.388 706.182 476.57 705.039 477.113 704.056C477.656 703.072 478.525 702.309 479.571 701.898C493.181 696.53 502.852 678.634 506.1 652.804C509.908 622.5 503.53 595.959 497.636 591.701C497.123 591.33 496.688 590.862 496.356 590.323C496.024 589.783 495.802 589.184 495.701 588.559C495.601 587.934 495.624 587.295 495.77 586.679C495.917 586.063 496.183 585.482 496.554 584.969C496.925 584.456 497.393 584.021 497.932 583.689C498.471 583.357 499.071 583.134 499.696 583.034C500.321 582.933 500.959 582.957 501.575 583.103C502.191 583.25 502.772 583.516 503.286 583.887C515.286 592.566 519.066 627.037 515.665 654.006C513.493 671.304 506.371 701.693 483.106 710.869C482.544 711.092 481.945 711.206 481.341 711.206Z" fill="#111D23"/>
<path d="M426.9 631.756C456.574 646.148 468.083 630.377 498.152 625.656C516.168 622.832 545.547 624.368 540.95 602.85C539.932 598.061 536.511 595.462 531.982 593.937C520.788 590.152 502.862 592.922 497.857 585.297C490.922 575.129 502.726 558.593 515.15 547.805C528.152 536.495 539.243 526.637 533.034 516.222C531.011 512.832 528.539 510.891 525.804 510.01C524.77 509.674 523.695 509.483 522.608 509.444C519.568 509.286 516.349 510.144 513.188 511.567C504.246 515.544 495.725 523.928 492.937 526.84L492.916 526.864C492.803 526.977 492.7 527.077 492.611 527.179C492.203 527.608 491.99 527.845 491.99 527.845C492.512 525.435 492.799 522.98 492.847 520.514C492.937 515.985 492.103 510.562 488.148 508.1C474.571 499.629 462.679 515.828 455.946 528.592C455.054 530.285 454.286 531.9 453.618 533.436C449.789 542.202 449.316 548.212 449.316 548.212C449.316 548.212 448.527 548.425 447.18 548.867C440.605 551.013 420.58 558.58 412.503 573.459C411.708 574.92 411.04 576.447 410.505 578.022C403.304 599.284 407.688 622.429 426.9 631.756Z" fill="#FFCA28"/>
<g opacity="0.35">
<path d="M477.843 568.831C477.843 568.831 497.507 524.077 523.576 511.231C524.339 510.872 525.079 510.464 525.79 510.011C524.757 509.675 523.681 509.484 522.595 509.445C520.052 509.898 516.596 510.71 513.174 511.568C504.232 515.545 495.711 523.929 492.923 526.841L492.902 526.865C486.03 538.4 477.154 555.964 477.843 568.831Z" fill="#111D23"/>
</g>
<g opacity="0.35">
<path d="M447.164 548.861L456.743 560.62L470.682 569.802C470.682 569.802 477.783 572.739 477.783 567.295C477.783 550.578 486.462 536.049 492.579 527.173C492.171 527.601 491.958 527.838 491.958 527.838C492.48 525.428 492.767 522.973 492.816 520.508C478.55 530.142 478.708 551.943 469.935 546.173C461.069 540.344 460.467 534.006 453.579 533.43C449.749 542.196 449.276 548.206 449.276 548.206C449.276 548.206 448.508 548.419 447.164 548.861Z" fill="#111D23"/>
</g>
<g opacity="0.35">
<path d="M426.9 631.755C456.574 646.147 468.083 630.377 498.152 625.656C516.167 622.831 545.547 624.367 540.95 602.85C539.932 598.061 536.51 595.462 531.982 593.937C532.047 600.352 537.768 607.695 520.12 612.19C491.172 619.567 475.673 619.533 466.287 615.346C449.944 608.061 473.822 589.263 472.599 573.225C471.468 558.336 425.464 576.16 425.464 576.16L412.477 573.451C411.682 574.912 411.013 576.439 410.478 578.014C403.304 599.284 407.688 622.429 426.9 631.755Z" fill="#111D23"/>
</g>
<path d="M453.663 642.303C452.423 642.303 451.232 641.825 450.336 640.969C449.439 640.112 448.907 638.944 448.85 637.706C448.792 636.468 449.214 635.255 450.027 634.32C450.84 633.384 451.982 632.798 453.216 632.682C459.365 632.101 465.2 630.089 471.957 627.759C479.124 625.286 487.245 622.498 497.405 620.889C500.642 620.381 504.106 620.021 507.772 619.642C518.237 618.556 531.263 617.201 535.253 611.715C536.639 609.808 536.96 607.244 536.239 603.843C535.077 598.399 527.805 597.326 516.846 596.31C507.675 595.461 498.194 594.582 493.828 587.933C484.991 574.967 498.081 556.238 511.975 544.16C525.125 532.735 532.836 525.318 528.881 518.68C526.719 515.05 524.368 514.424 522.787 514.266C514.708 513.461 501.792 524.148 495.538 531.067C494.82 531.863 493.858 532.396 492.804 532.584C491.75 532.772 490.663 532.604 489.715 532.105C488.767 531.607 488.012 530.807 487.569 529.832C487.126 528.857 487.02 527.762 487.269 526.72C488.376 521.986 488.605 514.072 485.575 512.181C483.058 510.602 480.725 510.197 478.232 510.866C472.57 512.396 466.155 519.487 460.177 530.828C454.815 540.999 454.094 548.529 454.089 548.605C454.002 549.591 453.615 550.527 452.981 551.286C452.347 552.046 451.495 552.594 450.541 552.855C450.257 552.934 421.308 561.009 415.036 579.554C411.696 589.44 411.128 599.577 413.432 608.096C415.825 616.952 421.203 623.614 428.98 627.401C429.55 627.677 430.06 628.063 430.481 628.537C430.901 629.01 431.225 629.562 431.432 630.16C431.64 630.758 431.728 631.392 431.69 632.024C431.653 632.656 431.492 633.275 431.216 633.845C430.939 634.415 430.553 634.925 430.08 635.345C429.607 635.766 429.055 636.09 428.457 636.297C427.859 636.505 427.225 636.592 426.593 636.555C425.961 636.518 425.342 636.357 424.772 636.08C414.41 631.052 407.269 622.249 404.121 610.618C401.326 600.277 401.959 588.149 405.902 576.474C412.503 556.932 436.41 547.351 444.986 544.489C445.731 540.749 447.506 534.179 451.64 526.341C459.094 512.207 467.191 503.872 475.707 501.568C480.825 500.185 485.859 501.005 490.667 504.006C495.038 506.731 496.824 511.428 497.413 516.031C504.458 510.2 514.487 503.775 523.713 504.677C527.605 505.058 533.094 506.944 537.149 513.748C545.521 527.796 531.674 539.818 518.282 551.446C506.804 561.411 497.134 575.711 501.813 582.578C503.677 585.414 511.131 586.105 517.708 586.716C528.936 587.768 542.912 589.051 545.639 601.836C546.954 607.967 546.07 613.201 543.025 617.388C536.508 626.354 521.756 627.885 508.743 629.237C505.203 629.602 501.86 629.952 498.875 630.42C489.557 631.883 482.193 634.423 475.073 636.877C468.038 639.305 461.397 641.612 454.091 642.288C453.965 642.295 453.813 642.303 453.663 642.303Z" fill="#111D23"/>
<path d="M475.447 569.057C475.247 567.066 475.207 565.063 475.329 563.066C475.427 561.138 475.622 559.216 475.913 557.308C476.501 553.51 477.372 549.76 478.517 546.091C479.671 542.433 481.049 538.849 482.643 535.36C483.411 533.598 484.324 531.92 485.163 530.192C486.067 528.506 487.022 526.846 487.958 525.168C488.582 524.048 489.624 523.222 490.857 522.871C492.089 522.519 493.411 522.672 494.531 523.295C495.651 523.919 496.477 524.961 496.828 526.194C497.179 527.427 497.026 528.748 496.403 529.868C496.319 530.02 496.226 530.168 496.124 530.31L495.985 530.505L492.937 534.802C492.011 536.283 490.996 537.732 490.128 539.252C488.328 542.267 486.715 545.388 485.297 548.6C483.894 551.81 482.731 555.12 481.817 558.502C481.367 560.186 481.003 561.892 480.726 563.613C480.571 564.467 480.479 565.325 480.387 566.177C480.294 567.029 480.25 567.937 480.245 568.602V568.812C480.237 569.424 479.997 570.011 479.573 570.452C479.148 570.893 478.572 571.156 477.961 571.187C477.35 571.218 476.749 571.015 476.283 570.619C475.816 570.224 475.517 569.665 475.447 569.057Z" fill="#111D23"/>
<path d="M428.257 560.575C428.257 560.575 435.045 564.401 440.05 570.832C445.12 577.339 447.764 588.399 459.465 586.308C467.565 584.851 472.704 573.012 467.531 560.417C465.227 554.804 460.877 549.044 453.828 543.971C453.828 543.971 444.15 538.526 436.142 543.497C430.955 546.716 429.025 551.125 428.36 554.68C427.989 556.625 427.954 558.618 428.257 560.575Z" fill="#FFCA28"/>
<g opacity="0.35">
<path d="M428.257 560.575C428.257 560.575 435.045 564.402 440.05 570.833C445.12 577.34 447.764 588.399 459.465 586.308C467.565 584.851 472.704 573.013 467.531 560.417C465.519 564.497 465.769 573.363 459.725 574.076C451.141 575.08 445.754 550.931 428.36 554.681C427.989 556.626 427.954 558.619 428.257 560.575Z" fill="#111D23"/>
</g>
<path d="M456.661 591.387C446.951 591.387 442.359 583.665 439.208 578.365C438.201 576.672 437.249 575.07 436.252 573.792C431.936 568.25 425.945 564.807 425.885 564.773C425.284 564.431 424.764 563.965 424.359 563.405C423.953 562.846 423.672 562.207 423.533 561.53C423.418 560.954 420.835 547.327 433.596 539.4C443.919 532.996 455.688 539.487 456.195 539.766C456.351 539.855 456.501 539.95 456.645 540.052C472.749 551.625 476.06 566.461 473.785 576.487C472.015 584.299 466.855 589.877 460.319 591.048C459.112 591.269 457.888 591.382 456.661 591.387ZM432.857 557.779C435.532 559.584 440.116 563.061 443.858 567.866C445.226 569.623 446.378 571.561 447.495 573.436C451.44 580.072 453.421 582.484 458.618 581.558C461.248 581.09 463.496 578.263 464.383 574.354C465.961 567.395 463.331 556.861 451.285 548.074C450.118 547.493 443.632 544.518 438.68 547.593C433.727 550.667 432.891 555.22 432.867 557.779H432.857Z" fill="#111D23"/>
<path d="M410.705 576.557C410.858 578.068 411.133 579.563 411.528 581.029C411.528 581.029 415.323 579.808 420.338 586.236C425.409 592.743 425.738 597.759 435.576 597.283C441.888 596.988 448.542 589.477 447.006 579.864C446.091 574.125 442.272 567.652 433.735 561.518C433.735 561.518 423.886 555.803 416.036 561.045C410.499 564.74 410.207 571.892 410.705 576.557Z" fill="#FFCA28"/>
<g opacity="0.35">
<path d="M410.705 576.557C410.858 578.067 411.133 579.563 411.528 581.028C411.528 581.028 415.323 579.808 420.338 586.236C425.409 592.743 425.738 597.759 435.576 597.283C441.888 596.988 448.542 589.476 447.006 579.863C441.199 581.93 444.298 589.461 435.253 588.895C427.418 588.408 424.901 563.464 410.705 576.557Z" fill="#111D23"/>
</g>
<path d="M434.406 602.135C425.106 602.135 422.077 597.469 419.152 592.95C418.363 591.738 417.548 590.483 416.541 589.189C415.352 587.664 413.014 585.61 413.006 585.61C412.393 585.807 411.746 585.879 411.105 585.822C410.463 585.765 409.839 585.58 409.271 585.278C408.702 584.976 408.199 584.563 407.793 584.064C407.386 583.564 407.084 582.988 406.904 582.369C406.694 581.651 401.907 564.687 413.369 557.036C423.597 550.198 435.648 557.052 436.155 557.349C436.292 557.428 436.418 557.512 436.552 557.612C454.299 570.368 452.698 583.608 451.186 588.708C448.94 596.283 442.614 601.793 435.805 602.122C435.319 602.124 434.856 602.135 434.406 602.135ZM415.581 576.623C418.019 577.412 421.019 579.253 424.139 583.256C425.398 584.873 426.371 586.37 427.229 587.69C429.859 591.727 430.48 592.687 435.348 592.461C437.67 592.353 440.765 589.886 441.923 585.949C443.864 579.403 439.937 571.994 431.14 565.594C430.046 565.026 423.476 561.854 418.7 565.045C415.06 567.493 415.12 573.103 415.581 576.633V576.623Z" fill="#111D23"/>
<path d="M520.073 780.442C527.963 731.819 545.253 639.283 572.673 565.419C583.553 536.093 612.988 516.367 646.163 516.367H742.521C775.696 516.367 805.131 536.093 816.011 565.419C843.424 639.283 860.721 731.819 868.611 780.442C872.167 802.388 858.775 823.679 836.501 831.322C808.276 841.006 762.504 851.106 694.35 851.106C626.196 851.106 580.424 841.006 552.198 831.322C529.912 823.679 516.517 802.388 520.073 780.442Z" fill="white"/>
<path d="M828.922 598.536C836.162 613.599 841.206 629.437 845.633 645.397C850.059 661.356 853.72 677.524 857.068 693.731C858.762 701.831 860.432 709.935 862.015 718.054C863.598 726.173 865.203 734.287 866.717 742.419C868.232 750.552 869.676 758.695 871.057 766.848L873.098 779.089C873.747 783.46 874.06 788.142 873.534 792.66C873.007 797.193 871.889 801.638 870.21 805.882C868.443 810.071 866.163 814.024 863.422 817.652C860.632 821.219 857.415 824.431 853.844 827.217C850.272 829.989 846.322 832.214 842.232 834.079C837.956 835.836 834.079 837.051 830.06 838.301C826.042 839.55 822.026 840.686 817.981 841.754C809.894 843.905 801.733 845.723 793.522 847.277C777.129 850.433 760.571 852.451 743.994 853.839C727.417 855.228 710.787 855.783 694.182 855.78C677.576 855.778 660.951 855.175 644.367 853.813C627.782 852.451 611.229 850.394 594.841 847.222C586.643 845.665 578.48 843.853 570.382 841.699C566.337 840.623 562.308 839.484 558.305 838.232C554.302 836.98 550.392 835.747 546.123 833.974C542.018 832.108 538.136 829.785 534.551 827.049C531.01 824.226 527.814 820.996 525.028 817.425C522.314 813.773 520.066 809.797 518.334 805.59C516.661 801.342 515.572 796.887 515.094 792.347C514.545 787.842 514.96 783.118 515.602 778.81L517.645 766.569C519.026 758.416 520.491 750.276 521.99 742.141C525.015 725.879 528.284 709.66 531.797 693.483C533.551 685.398 535.383 677.328 537.294 669.273C538.225 665.241 539.135 661.201 540.108 657.174C541.081 653.148 541.933 649.095 542.964 645.076C544.934 637.028 547.262 629.069 549.881 621.2C550.562 619.238 551.27 617.286 552.019 615.348C552.769 613.409 553.503 611.466 554.326 609.561C555.961 605.704 557.794 601.933 559.817 598.265C559.987 597.937 560.266 597.679 560.606 597.536C560.946 597.393 561.326 597.373 561.679 597.481C562.032 597.588 562.336 597.816 562.538 598.125C562.741 598.433 562.829 598.803 562.787 599.17V599.196C562.421 603.343 561.844 607.469 561.056 611.558C560.691 613.593 560.336 615.629 559.902 617.641C559.507 619.664 559.068 621.673 558.602 623.675C556.756 631.682 554.756 639.647 552.603 647.569C550.428 655.489 548.316 663.432 546.389 671.419C544.461 679.407 542.662 687.431 540.913 695.464C537.406 711.532 534.156 727.655 531.161 743.832C529.671 751.922 528.23 760.02 526.84 768.126L524.81 780.296C524.612 781.348 524.565 782.197 524.444 783.134C524.307 784.045 524.234 784.964 524.223 785.885C524.223 786.808 524.173 787.726 524.176 788.649L524.376 791.403C524.77 795.075 525.654 798.678 527.006 802.115C528.426 805.541 530.26 808.78 532.468 811.76C534.766 814.693 537.396 817.351 540.305 819.679C543.286 821.943 546.508 823.869 549.913 825.424C553.266 826.818 557.222 828.117 561.085 829.303C564.949 830.489 568.865 831.62 572.789 832.662C580.639 834.766 588.592 836.528 596.598 838.046C612.602 841.146 628.842 843.137 645.132 844.502C661.422 845.867 677.804 846.441 694.187 846.438C710.569 846.436 726.946 845.865 743.244 844.526C759.542 843.187 775.78 841.194 791.783 838.101C799.792 836.594 807.745 834.824 815.598 832.735C819.525 831.683 823.436 830.597 827.304 829.387C831.173 828.177 835.155 826.907 838.508 825.526C841.909 823.948 845.194 822.123 848.144 819.832C851.082 817.535 853.731 814.892 856.034 811.96C858.265 808.997 860.126 805.773 861.576 802.36C862.927 798.923 863.83 795.328 864.264 791.661C864.687 787.965 864.437 784.359 863.895 780.58L861.865 768.41C860.495 760.302 859.038 752.206 857.549 744.116C856.061 736.026 854.501 727.951 852.857 719.892C851.214 711.834 849.491 703.793 847.655 695.779C843.973 679.754 840.028 663.802 836.257 647.814C832.435 631.828 828.567 615.892 825.958 599.464C825.909 599.096 825.992 598.722 826.191 598.409C826.391 598.095 826.695 597.862 827.049 597.751C827.404 597.64 827.787 597.657 828.129 597.8C828.472 597.943 828.754 598.203 828.924 598.533L828.922 598.536Z" fill="#111D23"/>
<path d="M879.053 423.151C878.546 423.174 878.041 423.097 877.564 422.925C877.088 422.752 876.651 422.487 876.277 422.145C875.903 421.803 875.601 421.39 875.386 420.931C875.172 420.472 875.051 419.975 875.029 419.469L869.942 308.686C869.919 308.179 869.995 307.674 870.168 307.197C870.34 306.72 870.605 306.282 870.947 305.909C871.289 305.535 871.702 305.232 872.161 305.018C872.621 304.804 873.118 304.683 873.624 304.662C884.325 304.17 894.783 307.95 902.697 315.17C910.611 322.39 915.334 332.457 915.825 343.159L917.558 380.938C917.803 386.238 917.001 391.535 915.199 396.526C913.396 401.517 910.627 406.103 907.052 410.023C903.476 413.943 899.162 417.121 894.358 419.373C889.554 421.626 884.353 422.91 879.053 423.151Z" fill="white"/>
<path d="M878.868 424.061C877.647 424.056 876.475 423.583 875.593 422.738C874.712 421.892 874.19 420.741 874.134 419.521L869.045 308.738C869.016 308.113 869.11 307.489 869.322 306.901C869.534 306.313 869.86 305.773 870.281 305.311C870.702 304.849 871.21 304.474 871.776 304.209C872.342 303.944 872.955 303.792 873.579 303.764C878.996 303.516 884.409 304.337 889.509 306.181C894.608 308.025 899.294 310.855 903.3 314.51C907.306 318.166 910.552 322.574 912.854 327.484C915.156 332.394 916.469 337.709 916.717 343.126L918.452 380.905C919.504 403.653 901.841 423.011 879.092 424.055C879.018 424.061 878.945 424.061 878.868 424.061ZM875.507 305.537C874.889 305.537 874.274 305.55 873.65 305.579C872.871 305.615 872.138 305.959 871.612 306.536C871.086 307.112 870.811 307.874 870.847 308.653L875.936 419.439C875.972 420.219 876.316 420.952 876.893 421.478C877.469 422.004 878.231 422.279 879.01 422.243C900.758 421.244 917.64 402.738 916.64 380.99L914.905 343.211C914.44 333.07 910.088 323.498 902.751 316.482C895.415 309.467 885.658 305.547 875.507 305.537Z" fill="#111D23"/>
<g opacity="0.35">
<path d="M916.732 363.221L917.55 380.94C918.04 391.645 914.258 402.107 907.036 410.025C899.814 417.942 889.743 422.666 879.039 423.159C878.017 423.203 877.02 422.84 876.265 422.15C875.511 421.459 875.061 420.498 875.015 419.476L873.652 390.019C873.985 390.682 874.502 391.234 875.141 391.61C875.781 391.986 876.515 392.17 877.255 392.139L879.885 392.013C888.256 391.633 896.301 388.656 902.903 383.497C909.506 378.338 914.339 371.251 916.732 363.221Z" fill="#111D23"/>
</g>
<path d="M878.865 428.205C876.577 428.203 874.378 427.319 872.724 425.737C871.069 424.156 870.087 421.999 869.981 419.713L864.892 308.927C864.838 307.759 865.015 306.592 865.413 305.492C865.81 304.392 866.42 303.382 867.208 302.518C867.996 301.654 868.946 300.954 870.004 300.457C871.063 299.961 872.209 299.678 873.377 299.624C885.416 299.071 897.182 303.324 906.086 311.447C914.99 319.57 920.303 330.897 920.856 342.937L922.592 380.716C923.741 405.747 904.311 427.048 879.281 428.198L878.865 428.205ZM875.044 309.684L880.02 418.027C898.901 416.52 913.374 400.242 912.498 381.179L910.762 343.4C910.341 334.245 906.381 325.613 899.717 319.322C893.053 313.032 884.207 309.576 875.044 309.684Z" fill="#111D23"/>
<path d="M507.946 321.467C508.452 321.444 508.958 321.521 509.434 321.694C509.91 321.866 510.347 322.131 510.721 322.474C511.094 322.816 511.397 323.228 511.611 323.687C511.824 324.146 511.946 324.643 511.967 325.149L517.056 435.935C517.08 436.441 517.003 436.947 516.83 437.424C516.658 437.9 516.393 438.338 516.051 438.712C515.709 439.085 515.296 439.388 514.837 439.602C514.378 439.816 513.881 439.938 513.374 439.959C502.673 440.45 492.216 436.67 484.301 429.451C476.387 422.231 471.665 412.163 471.173 401.462L469.438 363.683C469.193 358.382 469.995 353.085 471.797 348.094C473.6 343.103 476.369 338.516 479.945 334.596C483.521 330.675 487.835 327.498 492.639 325.245C497.444 322.992 502.645 321.709 507.946 321.467Z" fill="white"/>
<path d="M511.494 440.896C500.876 440.886 490.671 436.786 482.997 429.448C475.323 422.11 470.77 412.098 470.284 401.491L468.549 363.712C467.497 340.964 485.162 321.606 507.909 320.56C509.17 320.502 510.402 320.948 511.334 321.799C512.266 322.65 512.822 323.836 512.88 325.097L517.969 435.88C518.026 437.141 517.58 438.372 516.73 439.305C515.879 440.237 514.693 440.793 513.432 440.851C512.785 440.882 512.138 440.896 511.494 440.896ZM508.13 322.372H507.991C486.243 323.371 469.364 341.877 470.363 363.625L472.096 401.404C472.577 411.865 477.194 421.707 484.93 428.764C492.667 435.822 502.89 439.517 513.351 439.036C514.13 439 514.863 438.656 515.389 438.079C515.915 437.503 516.19 436.741 516.154 435.961L511.065 325.175C511.03 324.42 510.706 323.707 510.159 323.185C509.613 322.662 508.886 322.37 508.13 322.369V322.372Z" fill="#111D23"/>
<g opacity="0.35">
<path d="M515.66 405.189L517.067 435.922C517.112 436.944 516.749 437.942 516.059 438.697C515.368 439.451 514.407 439.901 513.385 439.946C508.087 440.191 502.792 439.389 497.804 437.587C492.816 435.785 488.231 433.017 484.313 429.443C480.394 425.868 477.218 421.557 474.967 416.754C472.715 411.952 471.431 406.753 471.189 401.455L470.458 385.537C473.985 392.454 479.43 398.209 486.142 402.113C492.853 406.016 500.548 407.904 508.304 407.549L512.346 407.362C513.042 407.329 513.717 407.11 514.3 406.728C514.882 406.346 515.352 405.815 515.66 405.189Z" fill="#111D23"/>
</g>
<path d="M511.488 445.044C499.805 445.031 488.576 440.518 480.132 432.444C471.688 424.369 466.678 413.353 466.142 401.681L464.409 363.902C463.26 338.871 482.687 317.57 507.717 316.421C508.886 316.364 510.054 316.539 511.155 316.935C512.255 317.331 513.267 317.941 514.131 318.73C514.996 319.518 515.696 320.47 516.191 321.529C516.687 322.589 516.968 323.736 517.019 324.905L522.108 435.691C522.162 436.859 521.985 438.026 521.588 439.126C521.191 440.226 520.581 441.236 519.793 442.1C519.005 442.964 518.055 443.664 516.996 444.161C515.938 444.657 514.792 444.94 513.624 444.994C512.909 445.018 512.199 445.044 511.488 445.044ZM506.981 326.591C488.1 328.096 473.627 344.376 474.503 363.439L476.239 401.218C476.659 410.373 480.62 419.006 487.284 425.297C493.949 431.587 502.796 435.042 511.959 434.934L506.981 326.591Z" fill="#111D23"/>
<g opacity="0.35">
<path d="M836.255 518.779C833.211 522.286 830.046 525.672 826.76 528.937C822.133 533.537 817.272 537.896 812.198 541.998C776.194 571.083 730.764 585.934 684.534 583.732C638.303 581.53 594.491 562.427 561.414 530.052C557.851 526.559 554.416 522.924 551.157 519.168C562.852 508.31 578.224 502.283 594.181 502.299H793.669C809.424 502.281 824.616 508.16 836.255 518.779Z" fill="#111D23"/>
</g>
<path d="M693.524 561.295C797.894 561.295 882.503 476.683 882.503 372.308C882.503 267.933 797.894 183.32 693.524 183.32C589.154 183.32 504.545 267.933 504.545 372.308C504.545 476.683 589.154 561.295 693.524 561.295Z" fill="white"/>
<path d="M693.59 562.203C691.984 562.203 690.374 562.183 688.761 562.143C638.055 560.87 590.883 539.929 555.928 503.173C520.972 466.417 502.423 418.251 503.698 367.545C504.974 316.839 525.914 269.662 562.666 234.705C599.417 199.748 647.578 181.198 698.287 182.474C748.996 183.749 796.165 204.688 831.12 241.446C866.076 278.205 884.622 326.368 883.349 377.074C880.764 480.13 796.099 562.203 693.59 562.203ZM693.4 184.228C644.961 184.228 599.146 202.515 563.917 236.023C527.516 270.641 506.773 317.368 505.513 367.59C502.912 471.264 585.136 557.727 688.806 560.328C690.399 560.367 692.004 560.388 693.59 560.388C795.129 560.388 878.973 479.104 881.535 377.027C882.794 326.791 864.424 279.099 829.803 242.696C795.181 206.292 748.462 185.548 698.242 184.289C696.626 184.248 695.012 184.228 693.4 184.228Z" fill="#111D23"/>
<g opacity="0.35">
<path d="M881.288 350.859C882.284 359.555 882.67 368.309 882.445 377.058C879.815 481.398 793.114 563.857 688.78 561.248C584.445 558.639 501.992 471.913 504.598 367.576C504.672 364.575 504.817 361.574 505.035 358.634C515.463 450.92 592.595 523.708 688.059 526.107C789.393 528.622 874.076 450.917 881.288 350.859Z" fill="#111D23"/>
</g>
<path d="M693.592 566.348C691.948 566.348 690.307 566.33 688.656 566.287C636.845 564.986 588.642 543.587 552.924 506.029C517.206 468.471 498.254 419.243 499.556 367.429C500.858 315.616 522.253 267.421 559.809 231.715C597.366 196.008 646.599 177.045 698.392 178.342C750.185 179.638 798.406 201.042 834.124 238.6C869.842 276.159 888.793 325.376 887.492 377.189C884.851 482.484 798.337 566.348 693.592 566.348ZM693.403 188.373C646.034 188.373 601.227 206.258 566.774 239.026C531.174 272.884 510.889 318.58 509.658 367.692C507.112 469.083 587.527 553.642 688.911 556.183C790.25 558.739 874.852 478.31 877.39 376.924C879.936 275.533 799.521 190.974 698.137 188.433C696.559 188.394 694.976 188.373 693.403 188.373Z" fill="#111D23"/>
<path d="M882.096 381.64C881.728 418.62 869.38 452.832 848.569 481.032C832.965 502.176 769.324 538.814 691.192 538.737C618.746 538.664 553.225 499.383 538.047 477.932C517.796 449.321 506.14 414.869 506.508 377.89C507.487 280.03 591.965 240.3 695.684 241.336C799.404 242.372 883.072 283.773 882.096 381.64Z" fill="#263238"/>
<path d="M846.103 290.227C868.842 312.364 882.1 342.566 881.714 381.881C881.345 418.869 868.992 453.079 848.194 481.279C832.585 502.422 768.939 539.06 690.807 538.989C663.221 538.971 636.645 533.253 613.461 524.994C709.504 523.032 787.041 478.057 806.38 451.835C832.798 416.044 848.46 372.615 848.925 325.691C849.088 313.808 848.144 301.935 846.103 290.227Z" fill="#111D23"/>
<path d="M691.07 544.037H690.807C615.694 543.961 549.497 503.646 533.533 481.098C511.925 450.562 500.7 414.943 501.068 378.087C501.55 330.032 521.188 293.17 559.454 268.526C592.811 247.041 639.769 235.96 695.357 236.531C750.945 237.101 797.664 249.084 830.594 271.233C868.35 296.637 887.25 333.882 886.771 381.937C886.403 418.793 874.468 454.181 852.255 484.28C836.861 505.135 773.799 544.037 691.07 544.037ZM691.754 246.62C635.077 246.62 512.359 260.297 511.183 378.187C510.834 412.904 521.419 446.472 541.791 475.262C556.256 495.698 620.181 533.861 690.818 533.932H691.065C769.234 533.932 830.234 497.11 844.131 478.279C865.073 449.902 876.327 416.552 876.672 381.837C877.114 337.388 859.716 303.004 824.958 279.617C793.682 258.576 748.835 247.172 695.262 246.636C694.121 246.625 692.945 246.62 691.754 246.62Z" fill="#111D23"/>
<g opacity="0.5">
<path d="M844.588 372.519C848.062 354.378 840.222 337.631 827.077 335.114C813.933 332.597 800.461 345.263 796.987 363.404C793.514 381.545 801.354 398.292 814.498 400.81C827.643 403.327 841.115 390.661 844.588 372.519Z" fill="white"/>
</g>
<g opacity="0.5">
<path d="M802.899 438.131C805.628 430.104 802.257 421.698 795.369 419.355C788.481 417.013 780.684 421.622 777.954 429.649C775.225 437.676 778.596 446.082 785.485 448.425C792.373 450.767 800.169 446.159 802.899 438.131Z" fill="white"/>
</g>
<path d="M866.473 300.977C865.256 300.98 864.078 300.548 863.151 299.759C863.114 299.73 863.051 299.675 863.017 299.643L862.586 299.254L862.254 298.78C830.91 253.892 769.728 227.712 694.397 226.96C693.319 226.96 692.238 226.944 691.168 226.944C616.894 226.944 556.556 252.635 525.283 297.694L524.991 298.075C524.151 299.096 522.944 299.746 521.63 299.887C520.316 300.028 518.998 299.648 517.961 298.829C516.923 298.01 516.248 296.817 516.08 295.506C515.912 294.195 516.264 292.87 517.062 291.816C550.747 243.393 615.397 216.097 694.497 216.857C772.932 217.646 836.964 245.247 870.276 292.621C870.915 293.349 871.331 294.247 871.473 295.207C871.614 296.166 871.476 297.146 871.074 298.028C870.673 298.911 870.025 299.659 869.209 300.182C868.393 300.706 867.443 300.982 866.473 300.979V300.977Z" fill="#111D23"/>
<g opacity="0.5">
<path d="M547.722 436.774C547.722 436.774 518.379 339.931 570.803 301.981C623.227 264.031 698.061 264.933 696.254 269.714C696.254 269.714 613.191 288.948 580.113 354.141C554.602 404.406 547.722 436.774 547.722 436.774Z" fill="white"/>
</g>
<path d="M773.142 644.72C806.612 643.2 824.233 647.613 842.003 656.845C852.873 662.495 861.92 669.775 862.312 690.44C862.594 705.447 853.37 712.888 853.37 712.888C853.37 712.888 814.073 692.278 766.115 693.983C755.732 694.353 754.553 645.565 773.142 644.72Z" fill="white"/>
<g opacity="0.35">
<path d="M862.315 690.442C862.596 705.433 853.373 712.885 853.373 712.885C853.373 712.885 814.075 692.283 766.115 693.977C760.016 694.192 757.102 677.507 759.474 663.488C760.636 669.769 762.943 674.243 766.115 674.13C799.65 672.938 828.948 682.651 843.539 688.595C850.73 691.528 858.972 687.654 861.102 680.179C861.129 680.092 861.152 680.006 861.176 679.916C861.89 683.38 862.272 686.905 862.315 690.442Z" fill="#111D23"/>
</g>
<path d="M853.944 718.626L851.14 717.156C850.759 716.959 812.337 697.167 766.296 698.8H765.981C758.969 698.8 754.459 690.413 753.883 676.255C753.194 659.193 758.856 640.538 772.921 639.899C808.858 638.266 826.852 643.534 844.223 652.56C857.676 659.551 866.72 668.651 867.128 690.345C867.454 707.511 856.855 716.27 856.403 716.633L853.944 718.626ZM771.864 689.059C810.462 689.059 842.235 702.296 852.321 707.006C854.491 704.242 857.647 698.782 857.492 690.531C857.137 671.66 849.262 666.048 839.781 661.121C823.828 652.831 807.156 648 773.361 649.549C769.032 649.743 766.588 655.461 765.521 658.852C761.76 670.771 763.901 686.318 766.528 689.156C768.32 689.091 770.099 689.059 771.864 689.059Z" fill="#111D23"/>
<path d="M615.568 644.72C582.099 643.2 564.478 647.613 546.707 656.845C535.837 662.495 526.79 669.775 526.398 690.44C526.117 705.447 535.34 712.888 535.34 712.888C535.34 712.888 574.637 692.278 622.593 693.983C632.979 694.353 634.154 645.565 615.568 644.72Z" fill="white"/>
<path d="M534.772 718.625L532.31 716.639C531.861 716.276 521.264 707.518 521.588 690.351C521.998 668.658 531.04 659.557 544.492 652.566C561.861 643.54 579.855 638.272 615.776 639.91C629.841 640.549 635.501 659.205 634.812 676.269C634.231 690.638 629.534 699.064 622.406 698.807C576.381 697.168 537.941 716.955 537.557 717.165L534.772 718.625ZM603.536 649.255C577.438 649.255 562.913 653.86 548.937 661.122C539.469 666.048 531.579 671.661 531.227 690.532C531.072 698.772 534.22 704.23 536.4 707.005C546.949 702.079 581.21 687.823 622.191 689.146C624.821 686.308 626.959 670.759 623.198 658.842C622.127 655.452 619.687 649.734 615.358 649.539C611.158 649.347 607.226 649.255 603.528 649.255H603.536Z" fill="#111D23"/>
<g opacity="0.35">
<path d="M526.019 690.442C525.738 705.433 534.961 712.885 534.961 712.885C534.961 712.885 574.259 692.283 622.22 693.977C628.319 694.192 631.233 677.507 628.86 663.488C627.698 669.769 625.391 674.243 622.22 674.13C588.685 672.938 559.386 682.651 544.795 688.595C537.605 691.528 529.365 687.654 527.232 680.179C527.206 680.092 527.182 680.006 527.158 679.916C526.444 683.38 526.063 686.905 526.019 690.442Z" fill="#111D23"/>
</g>
<path d="M747.473 724.572H641.063C635.594 724.572 630.263 722.856 625.82 719.665C621.378 716.474 618.049 711.97 616.302 706.787L611.107 691.391H777.431L772.234 706.793C770.486 711.975 767.157 716.478 762.715 719.667C758.272 722.857 752.942 724.572 747.473 724.572Z" fill="white"/>
<g opacity="0.35">
<path d="M747.473 724.572H641.063C635.594 724.572 630.263 722.856 625.82 719.665C621.378 716.474 618.049 711.97 616.302 706.787L611.107 691.391H777.431L772.234 706.793C770.486 711.975 767.157 716.478 762.715 719.667C758.272 722.857 752.942 724.572 747.473 724.572Z" fill="#111D23"/>
</g>
<path d="M747.473 729.394H641.063C634.584 729.397 628.268 727.365 623.005 723.586C617.743 719.807 613.8 714.47 611.733 708.329L606.539 692.933C606.295 692.207 606.227 691.434 606.341 690.678C606.454 689.921 606.746 689.202 607.193 688.58C607.639 687.959 608.227 687.452 608.907 687.103C609.588 686.753 610.342 686.571 611.107 686.57H777.431C778.196 686.571 778.949 686.755 779.629 687.104C780.309 687.454 780.896 687.961 781.342 688.583C781.787 689.204 782.079 689.923 782.192 690.679C782.305 691.436 782.236 692.208 781.992 692.933L776.795 708.335C774.727 714.473 770.785 719.807 765.524 723.585C760.264 727.364 753.95 729.395 747.473 729.394ZM617.814 696.212L620.862 705.247C622.286 709.474 625 713.149 628.623 715.751C632.246 718.353 636.595 719.753 641.055 719.752H747.465C751.925 719.754 756.274 718.355 759.897 715.754C763.521 713.152 766.236 709.479 767.661 705.252L770.709 696.212H617.814Z" fill="#111D23"/>
<path d="M755.971 707.645H632.566C629.741 707.645 626.946 707.053 624.364 705.906C621.782 704.76 619.468 703.084 617.573 700.988C615.678 698.892 614.243 696.423 613.362 693.738C612.48 691.053 612.171 688.214 612.455 685.402L619.669 613.934C620.172 608.95 622.508 604.33 626.224 600.971C629.94 597.611 634.771 595.751 639.78 595.752H748.757C753.766 595.752 758.596 597.612 762.312 600.971C766.027 604.331 768.363 608.95 768.866 613.934L776.08 685.41C776.363 688.221 776.053 691.06 775.171 693.743C774.289 696.427 772.855 698.896 770.96 700.991C769.065 703.086 766.752 704.761 764.171 705.907C761.589 707.053 758.796 707.645 755.971 707.645Z" fill="white"/>
<path d="M755.971 712.467H632.566C629.066 712.467 625.606 711.733 622.407 710.313C619.208 708.893 616.343 706.818 613.996 704.222C611.649 701.626 609.872 698.566 608.78 695.241C607.688 691.916 607.306 688.399 607.657 684.917L614.871 613.451C615.479 607.272 618.368 601.541 622.974 597.377C627.579 593.213 633.571 590.915 639.78 590.932H748.757C754.965 590.915 760.957 593.213 765.562 597.377C770.168 601.541 773.056 607.272 773.663 613.451L780.877 684.917C781.229 688.399 780.846 691.915 779.754 695.241C778.663 698.566 776.886 701.625 774.539 704.221C772.193 706.817 769.328 708.892 766.129 710.312C762.931 711.733 759.47 712.467 755.971 712.467ZM639.78 600.574C635.963 600.563 632.279 601.976 629.447 604.536C626.615 607.096 624.839 610.62 624.466 614.419L617.252 685.887C617.035 688.028 617.27 690.191 617.941 692.235C618.612 694.28 619.704 696.161 621.147 697.757C622.591 699.353 624.353 700.629 626.319 701.502C628.286 702.375 630.414 702.826 632.566 702.825H755.971C758.123 702.825 760.251 702.374 762.217 701.501C764.184 700.628 765.945 699.352 767.389 697.756C768.832 696.16 769.924 694.279 770.595 692.235C771.267 690.19 771.502 688.028 771.285 685.887L764.069 614.419C763.696 610.62 761.92 607.096 759.089 604.536C756.258 601.976 752.574 600.563 748.757 600.574H639.78Z" fill="#111D23"/>
<path d="M682.794 712.467C681.515 712.467 680.289 711.959 679.385 711.055C678.481 710.151 677.973 708.925 677.973 707.646V666.892C677.97 665.499 677.645 664.125 677.023 662.878C676.401 661.631 675.499 660.545 674.388 659.704L660.791 649.468C658.49 647.725 656.622 645.475 655.334 642.892C654.045 640.309 653.371 637.463 653.364 634.576V595.753C653.364 594.474 653.872 593.248 654.776 592.344C655.68 591.44 656.906 590.932 658.185 590.932C659.464 590.932 660.69 591.44 661.594 592.344C662.498 593.248 663.006 594.474 663.006 595.753V634.576C663.009 635.97 663.335 637.344 663.956 638.591C664.578 639.838 665.48 640.925 666.591 641.767L680.185 652.008C682.487 653.75 684.356 656 685.645 658.584C686.934 661.167 687.608 664.013 687.615 666.9V707.654C687.613 708.931 687.104 710.155 686.2 711.058C685.296 711.96 684.071 712.467 682.794 712.467Z" fill="#111D23"/>
<g opacity="0.35">
<path d="M769.894 624.194L778.31 685.105C778.29 691.078 775.909 696.802 771.685 701.025C767.461 705.249 761.739 707.631 755.765 707.65H632.737C620.355 707.65 610.208 697.501 610.208 685.105V660.119C618.971 702.919 712.047 695.268 715.902 651.702C717.286 636.095 757.007 640.269 758.653 652.812C760.894 669.89 772.211 680.936 767.611 609.957C770.493 613.737 769.894 619.094 769.894 624.194Z" fill="#111D23"/>
</g>
<path d="M757.291 646.8C757.291 651.954 755.244 656.896 751.6 660.541C747.956 664.185 743.014 666.232 737.861 666.232C732.707 666.232 727.765 664.185 724.121 660.541C720.477 656.896 718.43 651.954 718.43 646.8C718.43 643.857 718.475 636.346 718.475 636.346C718.475 636.346 730.071 627.369 737.861 627.369C745.651 627.369 757.291 637.645 757.291 637.645V646.8Z" fill="#22A7F0"/>
<g opacity="0.35">
<path d="M757.291 646.8C757.291 651.954 755.244 656.896 751.6 660.541C747.956 664.185 743.014 666.232 737.861 666.232C732.707 666.232 727.765 664.185 724.121 660.541C720.477 656.896 718.43 651.954 718.43 646.8C718.43 643.857 718.475 636.346 718.475 636.346C718.475 636.346 730.071 627.369 737.861 627.369C745.651 627.369 757.291 637.645 757.291 637.645V646.8Z" fill="#111D23"/>
</g>
<path d="M737.861 669.849C731.75 669.842 725.892 667.411 721.572 663.091C717.251 658.77 714.821 652.912 714.814 646.801C714.814 643.853 714.861 636.323 714.861 636.323V634.563L716.253 633.487C717.539 632.491 729.079 623.756 737.85 623.756C746.747 623.756 758.377 633.792 759.679 634.937L760.902 636.015V646.798C760.896 652.908 758.466 658.767 754.147 663.088C749.827 667.409 743.97 669.84 737.861 669.849ZM722.081 638.174C722.081 640.583 722.044 644.776 722.044 646.801C722.044 650.996 723.71 655.019 726.676 657.986C729.643 660.952 733.666 662.619 737.861 662.619C742.056 662.619 746.079 660.952 749.045 657.986C752.011 655.019 753.677 650.996 753.677 646.801V639.318C749.306 635.733 742.105 630.986 737.861 630.986C733.616 630.986 726.473 635.044 722.081 638.174Z" fill="#111D23"/>
<g opacity="0.4">
<path d="M659.857 461.683L654.336 491.978L672.004 498.74L678.767 481.072L659.857 461.683Z" fill="#C28D00" stroke="#111D23" stroke-width="6" stroke-linejoin="round"/>
<path d="M720.611 459.953L735.059 491.591L713.528 503.157L700.46 485.549L720.611 459.953Z" fill="#C28D00" stroke="#111D23" stroke-width="6" stroke-linejoin="round"/>
<path opacity="0.2" d="M707.018 491.197L707.018 491.197C706.925 490.934 706.83 490.664 706.732 490.385C706.307 489.179 705.833 487.832 705.315 486.365L705.315 486.365C703.162 480.255 701.397 474.994 699.911 470.562C698.236 465.57 696.915 461.632 695.791 458.723C696.229 460.486 696.596 462.599 696.906 464.976C698.033 473.636 698.438 486.189 698.436 499.329C698.432 524.348 696.956 551.674 696.14 558.619C707.09 558.291 717.244 556.937 724.709 554.937C728.546 553.909 731.631 552.721 733.743 551.439C735.902 550.128 736.819 548.861 736.829 547.747L736.83 547.679L736.843 547.612C738.304 540.036 739.769 532.575 741.167 525.518C742.727 517.65 744.202 510.289 745.497 503.827C746.743 497.611 747.822 492.227 748.648 488.026C748.648 488.026 748.648 488.026 748.648 488.026L748.752 487.497C749.317 484.627 749.749 482.426 749.994 480.776C750.124 479.902 750.197 479.205 750.211 478.66C750.226 478.102 750.176 477.769 750.107 477.585C750.076 477.502 750.049 477.472 750.043 477.466C750.042 477.465 750.041 477.463 750.034 477.46C750.031 477.459 750.027 477.458 750.022 477.456C749.959 477.438 749.775 477.425 749.375 477.549C748.58 477.797 747.402 478.429 745.686 479.419C745.686 479.419 745.686 479.419 745.686 479.419L745.311 478.77C740.436 481.582 731.922 486.849 724.958 491.194C722.407 492.786 720.063 494.255 718.182 495.434L717.817 495.663C710.912 499.99 710.912 499.99 707.725 490.948L707.018 491.197ZM707.018 491.197L707.033 491.239C707.817 493.464 708.424 495.186 708.995 496.422C709.554 497.633 710.163 498.579 711.059 498.998C712.005 499.44 713.023 499.192 714.087 498.705C715.153 498.217 716.481 497.385 718.164 496.33L718.215 496.298L718.576 496.072C720.458 494.893 722.803 493.424 725.355 491.831L707.018 491.197Z" fill="#39454B" stroke="#111D23" stroke-width="1.5"/>
<path fill-rule="evenodd" clip-rule="evenodd" d="M645.341 546.911L645.342 546.914C645.34 547.302 645.408 547.687 645.543 548.066L645.548 548.081C647.74 554.215 667.388 559.174 691.352 559.39C716.824 559.621 737.522 554.406 737.582 547.743C742.235 523.61 746.933 500.644 749.387 488.161C751.84 475.679 752.093 474.848 745.314 478.759C740.44 481.572 731.925 486.839 724.961 491.184C722.242 492.881 719.759 494.438 717.82 495.652C710.915 499.979 710.915 499.979 707.728 490.938C707.234 489.534 706.663 487.911 706.026 486.105C690.077 440.853 695.115 441.131 678.252 486.017C677.648 487.625 677.101 489.078 676.621 490.359C673.134 499.637 673.134 499.637 666.309 495.187C664.363 493.918 661.86 492.286 659.123 490.509C652.261 486.054 643.92 480.684 639.125 477.8C632.419 473.767 632.656 474.604 634.883 487.127C637.075 499.451 641.193 523.092 645.341 546.911Z" fill="#FFCA28" stroke="#111D23" stroke-width="7" stroke-miterlimit="22.9256"/>
</g>
<path d="M751.6 651.385C759.189 643.796 759.189 631.493 751.6 623.904C744.012 616.316 731.71 616.316 724.122 623.905C716.534 631.493 716.534 643.796 724.122 651.385C731.71 658.973 744.012 658.973 751.6 651.385Z" fill="#FF8A00"/>
<g opacity="0.5">
<path d="M757.291 637.645C757.293 638.781 757.19 639.915 756.986 641.033C756.19 636.537 753.837 632.466 750.34 629.532C746.842 626.599 742.423 624.992 737.858 624.992C733.293 624.992 728.874 626.599 725.376 629.532C721.878 632.466 719.525 636.537 718.73 641.033C718.524 639.915 718.422 638.781 718.425 637.645C718.425 632.491 720.472 627.548 724.117 623.903C727.761 620.258 732.704 618.211 737.858 618.211C743.012 618.211 747.955 620.258 751.599 623.903C755.244 627.548 757.291 632.491 757.291 637.645Z" fill="white"/>
</g>
<g opacity="0.35">
<path d="M757.286 637.64C757.286 642.793 755.239 647.734 751.596 651.378C747.952 655.022 743.011 657.068 737.858 657.068C732.705 657.068 727.764 655.022 724.12 651.378C720.477 647.734 718.43 642.793 718.43 637.64C718.424 635.233 718.877 632.847 719.764 630.609C721.182 634.255 723.668 637.388 726.897 639.597C730.125 641.806 733.946 642.987 737.858 642.987C741.77 642.987 745.591 641.806 748.819 639.597C752.048 637.388 754.534 634.255 755.952 630.609C756.839 632.847 757.292 635.233 757.286 637.64Z" fill="#111D23"/>
</g>
<path d="M737.861 660.687C733.302 660.687 728.847 659.336 725.057 656.803C721.267 654.271 718.313 650.671 716.568 646.46C714.824 642.248 714.368 637.614 715.257 633.143C716.146 628.672 718.341 624.566 721.564 621.342C724.787 618.119 728.894 615.924 733.364 615.035C737.835 614.145 742.469 614.602 746.68 616.346C750.891 618.091 754.491 621.045 757.023 624.835C759.556 628.625 760.907 633.081 760.907 637.64C760.9 643.75 758.47 649.608 754.149 653.929C749.829 658.25 743.971 660.68 737.861 660.687ZM737.861 621.822C734.732 621.822 731.674 622.75 729.073 624.488C726.472 626.226 724.445 628.696 723.248 631.586C722.051 634.477 721.737 637.657 722.348 640.725C722.958 643.794 724.464 646.612 726.676 648.824C728.888 651.036 731.707 652.543 734.775 653.153C737.843 653.764 741.023 653.45 743.913 652.253C746.804 651.056 749.274 649.029 751.012 646.427C752.75 643.826 753.677 640.768 753.677 637.64C753.671 633.447 752.003 629.428 749.038 626.464C746.073 623.499 742.053 621.832 737.861 621.827V621.822Z" fill="#111D23"/>
<path d="M639.629 584.418L629.595 639.482L661.709 651.774L674.001 619.659L639.629 584.418Z" fill="#C28D00" stroke="#111D23" stroke-width="9" stroke-linejoin="round"/>
<path d="M750.057 581.27L776.319 638.777L737.182 659.8L713.43 627.795L750.057 581.27Z" fill="#C28D00" stroke="#111D23" stroke-width="9" stroke-linejoin="round"/>
<path opacity="0.2" d="M725.929 637.857L725.929 637.857C725.758 637.372 725.582 636.872 725.401 636.359C724.631 634.171 723.772 631.731 722.834 629.073L722.834 629.073C718.933 618.003 715.728 608.45 713.026 600.394C709.49 589.854 706.814 581.878 704.564 576.425C703.575 574.028 702.682 572.152 701.849 570.777C701.003 569.382 700.273 568.595 699.65 568.256C699.355 568.095 699.097 568.042 698.858 568.058C698.616 568.075 698.337 568.167 698.013 568.384C697.804 568.524 697.586 568.708 697.358 568.941C697.863 568.895 698.367 568.961 698.866 569.153C700.217 569.672 701.295 571.027 702.187 572.838C703.988 576.491 705.343 582.652 706.362 590.479C708.407 606.178 709.142 628.961 709.139 652.842C709.132 699.238 706.338 749.962 704.884 761.242C725.091 760.682 743.877 758.202 757.665 754.508C764.665 752.632 770.335 750.454 774.244 748.081C778.201 745.679 780.128 743.22 780.149 740.852L780.15 740.784L780.163 740.717C782.819 726.949 785.481 713.389 788.023 700.562C790.856 686.266 793.538 672.885 795.893 661.139C798.158 649.838 800.12 640.05 801.621 632.415M725.929 637.857L801.621 632.415M725.929 637.857L725.944 637.899C727.38 641.972 728.475 645.08 729.501 647.3C730.514 649.496 731.544 651.024 732.956 651.684C734.418 652.367 736.046 652.018 737.945 651.149C739.845 650.279 742.232 648.784 745.324 646.846L745.378 646.812L746.047 646.393C749.465 644.251 753.723 641.584 758.356 638.692C771.017 630.792 786.481 621.227 795.328 616.121C798.43 614.332 800.634 613.142 802.158 612.669C802.922 612.431 803.397 612.414 803.682 612.494C803.903 612.557 804.094 612.699 804.245 613.105C804.411 613.55 804.5 614.249 804.473 615.289C804.446 616.316 804.309 617.61 804.072 619.209C803.625 622.223 802.836 626.238 801.812 631.444C801.749 631.764 801.685 632.087 801.621 632.415M725.929 637.857L802.357 632.56L801.621 632.415" fill="#39454B" stroke="#111D23" stroke-width="1.5"/>
<path fill-rule="evenodd" clip-rule="evenodd" d="M613.245 739.33L613.246 739.337C613.242 740.041 613.367 740.741 613.612 741.431L613.62 741.457C617.605 752.606 653.318 761.621 696.875 762.013C743.173 762.432 780.794 752.953 780.904 740.844C789.362 696.978 797.901 655.234 802.362 632.545C806.821 609.857 807.28 608.348 794.959 615.457C786.098 620.57 770.622 630.142 757.964 638.04C753.022 641.124 748.508 643.954 744.984 646.162C732.434 654.027 732.434 654.027 726.642 637.593C725.743 635.04 724.705 632.09 723.547 628.808C694.557 546.558 703.716 547.062 673.065 628.649C671.966 631.571 670.973 634.213 670.1 636.54C663.763 653.405 663.763 653.405 651.357 645.316C647.819 643.01 643.27 640.042 638.296 636.812C625.823 628.715 610.662 618.955 601.947 613.713C589.757 606.383 590.188 607.903 594.236 630.667C598.22 653.067 605.705 696.037 613.245 739.33Z" fill="#FFCA28" stroke="#111D23" stroke-width="10" stroke-miterlimit="22.9256"/>
<g clip-path="url(#clip1_3722_26763)">
<path d="M685.513 375.449H699.081V389.018H685.513V375.449ZM707.657 375.449H721.225V389.018H707.657V375.449ZM707.657 353.304H721.225V366.873H707.657V353.304ZM729.801 375.449H743.369V389.018H729.801V375.449ZM641.224 353.304H654.793V366.873H641.224V353.304ZM663.368 353.304H676.937V366.873H663.368V353.304ZM663.368 375.449H676.937V389.018H663.368V375.449ZM641.224 375.449H654.793V389.018H641.224V375.449ZM619.08 353.304H632.649V366.873H619.08V353.304ZM751.945 375.449H765.434V389.018H751.945V375.449ZM707.657 397.594H721.225V411.163H707.657V397.594ZM751.945 353.304H765.434V366.873H751.945V353.304ZM729.801 397.594H743.369V411.163H729.801V397.594ZM729.801 353.304H743.369V366.873H729.801V353.304ZM641.224 331.158H654.793V344.727H641.224V331.158ZM641.224 397.594H654.793V411.163H641.224V397.594ZM619.08 375.449H632.649V389.018H619.08V375.449ZM685.513 397.594H699.081V411.163H685.513V397.594ZM729.801 331.158H743.369V344.727H729.801V331.158ZM663.368 397.594H676.937V411.163H663.368V397.594ZM685.513 419.739H699.081V433.308H685.513V419.739ZM663.368 419.739H676.937V433.308H663.368V419.739ZM707.657 419.739H721.225V433.308H707.657V419.739ZM685.513 441.884H699.081V455.453H685.513V441.884Z" fill="#FFCA28" fill-opacity="0.93"/>
<path d="M685.513 374.849H684.913V375.449V389.018V389.618H685.513H699.081H699.681V389.018V375.449V374.849H699.081H685.513ZM707.657 374.849H707.057V375.449V389.018V389.618H707.657H721.225H721.825V389.018V375.449V374.849H721.225H707.657ZM707.657 352.704H707.057V353.304V366.873V367.473H707.657H721.225H721.825V366.873V353.304V352.704H721.225H707.657ZM729.801 374.849H729.201V375.449V389.018V389.618H729.801H743.369H743.969V389.018V375.449V374.849H743.369H729.801ZM641.224 352.704H640.624V353.304V366.873V367.473H641.224H654.793H655.393V366.873V353.304V352.704H654.793H641.224ZM663.368 352.704H662.768V353.304V366.873V367.473H663.368H676.937H677.537V366.873V353.304V352.704H676.937H663.368ZM663.368 374.849H662.768V375.449V389.018V389.618H663.368H676.937H677.537V389.018V375.449V374.849H676.937H663.368ZM641.224 374.849H640.624V375.449V389.018V389.618H641.224H654.793H655.393V389.018V375.449V374.849H654.793H641.224ZM619.08 352.704H618.48V353.304V366.873V367.473H619.08H632.649H633.249V366.873V353.304V352.704H632.649H619.08ZM751.945 374.849H751.345V375.449V389.018V389.618H751.945H765.434H766.034V389.018V375.449V374.849H765.434H751.945ZM707.657 396.994H707.057V397.594V411.163V411.763H707.657H721.225H721.825V411.163V397.594V396.994H721.225H707.657ZM751.945 352.704H751.345V353.304V366.873V367.473H751.945H765.434H766.034V366.873V353.304V352.704H765.434H751.945ZM729.801 396.994H729.201V397.594V411.163V411.763H729.801H743.369H743.969V411.163V397.594V396.994H743.369H729.801ZM729.801 352.704H729.201V353.304V366.873V367.473H729.801H743.369H743.969V366.873V353.304V352.704H743.369H729.801ZM641.224 330.558H640.624V331.158V344.727V345.327H641.224H654.793H655.393V344.727V331.158V330.558H654.793H641.224ZM641.224 396.994H640.624V397.594V411.163V411.763H641.224H654.793H655.393V411.163V397.594V396.994H654.793H641.224ZM619.08 374.849H618.48V375.449V389.018V389.618H619.08H632.649H633.249V389.018V375.449V374.849H632.649H619.08ZM685.513 396.994H684.913V397.594V411.163V411.763H685.513H699.081H699.681V411.163V397.594V396.994H699.081H685.513ZM729.801 330.558H729.201V331.158V344.727V345.327H729.801H743.369H743.969V344.727V331.158V330.558H743.369H729.801ZM663.368 396.994H662.768V397.594V411.163V411.763H663.368H676.937H677.537V411.163V397.594V396.994H676.937H663.368ZM685.513 419.139H684.913V419.739V433.308V433.908H685.513H699.081H699.681V433.308V419.739V419.139H699.081H685.513ZM663.368 419.139H662.768V419.739V433.308V433.908H663.368H676.937H677.537V433.308V419.739V419.139H676.937H663.368ZM707.657 419.139H707.057V419.739V433.308V433.908H707.657H721.225H721.825V433.308V419.739V419.139H721.225H707.657ZM685.513 441.284H684.913V441.884V455.453V456.053H685.513H699.081H699.681V455.453V441.884V441.284H699.081H685.513Z" stroke="#FFCA28" stroke-opacity="0.93" stroke-width="1.2"/>
</g>
</g>
<defs>
<clipPath id="clip0_3722_26763">
<rect width="1400" height="800" fill="white"/>
</clipPath>
<clipPath id="clip1_3722_26763">
<rect width="146.354" height="146.361" fill="white" transform="translate(619.08 320.125)"/>
</clipPath>
</defs>
</svg>
