<svg width="278" height="430" viewBox="0 0 278 430" fill="none" xmlns="http://www.w3.org/2000/svg">
    <path d="M59.9077 68.1461C59.7289 69.1141 59.2969 70.0016 58.6661 70.697C58.0353 71.3923 57.2339 71.8644 56.3627 72.0539C55.4915 72.2434 54.5894 72.1417 53.77 71.7618C52.9505 71.3818 52.2503 70.7405 51.7574 69.9186C51.2645 69.0966 51.001 68.1307 51 67.1424C50.999 66.1541 51.2606 65.1876 51.7518 64.3644C52.243 63.5412 52.9419 62.8981 53.7606 62.5161C54.5793 62.1341 55.4812 62.0302 56.3528 62.2175C56.9375 62.3431 57.4941 62.5968 57.9901 62.9637C58.4862 63.3306 58.9119 63.8035 59.2426 64.355C59.5733 64.9065 59.8024 65.5255 59.9165 66.1763C60.0307 66.8271 60.0277 67.4966 59.9077 68.1461V68.1461Z"
          fill="#FFCA28"/>
    <path d="M164.894 85.1963C164.692 86.1628 164.21 87.0481 163.508 87.7409C162.806 88.4337 161.915 88.9032 160.947 89.0903C159.98 89.2773 158.979 89.1738 158.069 88.7925C157.16 88.4112 156.384 87.7693 155.838 86.9473C155.292 86.1253 155 85.16 155 84.1726C155 83.1851 155.291 82.2196 155.836 81.3973C156.382 80.5749 157.158 79.9325 158.066 79.5507C158.975 79.1688 159.976 79.0646 160.944 79.251C161.596 79.3765 162.216 79.6307 162.768 79.9987C163.321 80.3667 163.794 80.8412 164.162 81.3946C164.53 81.9479 164.784 82.569 164.909 83.2217C165.035 83.8744 165.03 84.5456 164.894 85.1963V85.1963Z"
          fill="#FFCA28"/>
    <path d="M197.951 87.1706C197.853 87.6557 197.614 88.101 197.265 88.4504C196.915 88.7997 196.47 89.0373 195.985 89.1334C195.501 89.2294 194.999 89.1794 194.542 88.9899C194.086 88.8003 193.696 88.4796 193.422 88.0682C193.147 87.6568 193 87.1731 193 86.6782C193 86.1833 193.145 85.6994 193.419 85.2875C193.693 84.8756 194.082 84.5541 194.538 84.3637C194.994 84.1733 195.496 84.1225 195.981 84.2176C196.304 84.2811 196.611 84.4079 196.886 84.5909C197.16 84.7738 197.395 85.0093 197.578 85.2837C197.761 85.5581 197.889 85.8661 197.952 86.1899C198.016 86.5137 198.016 86.847 197.951 87.1706V87.1706Z"
          fill="#FFCA28"/>
    <path d="M217.965 208.803C217.89 209.193 217.7 209.551 217.421 209.832C217.142 210.114 216.786 210.306 216.398 210.385C216.01 210.463 215.607 210.425 215.241 210.274C214.875 210.124 214.561 209.868 214.34 209.539C214.119 209.21 214.001 208.822 214 208.426C213.999 208.029 214.115 207.641 214.335 207.311C214.554 206.981 214.866 206.723 215.232 206.571C215.597 206.418 216 206.378 216.388 206.454C216.906 206.56 217.362 206.866 217.657 207.305C217.952 207.745 218.063 208.283 217.965 208.803V208.803Z"
          fill="#FFCA28"/>
    <path d="M116.953 98.5858C116.825 99.1073 116.444 99.5667 115.893 99.863C115.343 100.159 114.668 100.268 114.018 100.165C113.367 100.063 112.794 99.7573 112.424 99.3161C112.055 98.8748 111.919 98.3339 112.047 97.8124C112.11 97.5541 112.237 97.3084 112.418 97.0893C112.6 96.8702 112.834 96.6819 113.107 96.5352C113.379 96.3885 113.685 96.2863 114.007 96.2344C114.329 96.1825 114.66 96.1819 114.982 96.2327C115.305 96.2835 115.611 96.3847 115.884 96.5304C116.158 96.6761 116.393 96.8636 116.576 97.0821C116.759 97.3006 116.886 97.5459 116.951 97.8039C117.016 98.0619 117.016 98.3276 116.953 98.5858Z"
          fill="#FFCA28"/>
    <path d="M85.9596 52.1027C85.9107 52.4251 85.8108 52.7321 85.6658 53.0057C85.5209 53.2793 85.3338 53.5139 85.1155 53.696C84.8973 53.878 84.6522 54.0038 84.3946 54.066C84.137 54.1281 83.872 54.1254 83.6153 54.0579C83.2264 53.9626 82.869 53.7249 82.5884 53.3751C82.3077 53.0252 82.1164 52.5789 82.0388 52.0929C81.9611 51.6068 82.0007 51.1029 82.1523 50.6449C82.304 50.187 82.5609 49.7958 82.8906 49.5208C83.2203 49.2459 83.6078 49.0996 84.004 49.1006C84.4002 49.1016 84.7873 49.2498 85.1161 49.5264C85.4449 49.803 85.7006 50.1955 85.8507 50.6542C86.0009 51.1129 86.0388 51.617 85.9596 52.1027V52.1027Z"
          fill="#FFCA28"/>
    <path d="M62.9516 3.01147C62.8518 3.49782 62.6098 3.94348 62.2566 4.29187C61.9033 4.64026 61.4546 4.87565 60.9675 4.96816C60.4803 5.06066 59.9768 5.00611 59.5206 4.81141C59.0645 4.61672 58.6765 4.29067 58.4058 3.87468C58.135 3.45869 57.9939 2.97152 58.0002 2.47503C58.0065 1.97854 58.1601 1.49513 58.4413 1.08619C58.7225 0.67725 59.1187 0.361228 59.5796 0.17825C60.0406 -0.00472839 60.5454 -0.0464009 61.03 0.0585157C61.672 0.201872 62.2324 0.591089 62.5915 1.14293C62.9507 1.69477 63.0799 2.36543 62.9516 3.01147V3.01147Z"
          fill="#FFCA28"/>
    <path d="M178.828 327.77C179.341 326.963 180.057 326.344 180.886 325.989C181.715 325.635 182.62 325.561 183.486 325.778C184.352 325.994 185.142 326.491 185.755 327.207C186.368 327.922 186.778 328.823 186.932 329.797C187.086 330.77 186.978 331.773 186.621 332.678C186.264 333.584 185.675 334.351 184.927 334.885C184.179 335.418 183.307 335.693 182.419 335.675C181.531 335.657 180.668 335.347 179.938 334.784C179.449 334.407 179.032 333.926 178.711 333.368C178.39 332.81 178.171 332.187 178.068 331.535C177.965 330.883 177.979 330.214 178.109 329.568C178.24 328.922 178.484 328.311 178.828 327.77V327.77Z"
          fill="#FFCA28"/>
    <path d="M252.835 247.388C253.35 246.664 254.066 246.108 254.895 245.791C255.724 245.474 256.628 245.41 257.493 245.606C258.358 245.802 259.146 246.25 259.758 246.894C260.37 247.537 260.778 248.348 260.932 249.223C261.086 250.099 260.978 251 260.621 251.814C260.265 252.628 259.677 253.319 258.93 253.799C258.183 254.279 257.312 254.527 256.425 254.512C255.538 254.498 254.675 254.22 253.945 253.716C253.454 253.376 253.035 252.942 252.713 252.439C252.39 251.936 252.171 251.373 252.068 250.785C251.965 250.196 251.979 249.592 252.111 249.009C252.243 248.426 252.489 247.875 252.835 247.388Z"
          fill="#FFCA28"/>
    <path d="M199.928 244.382C200.499 243.658 201.296 243.102 202.217 242.785C203.138 242.468 204.142 242.404 205.103 242.6C206.065 242.796 206.94 243.244 207.62 243.888C208.3 244.531 208.754 245.342 208.924 246.217C209.095 247.093 208.975 247.994 208.579 248.808C208.184 249.622 207.53 250.313 206.7 250.793C205.871 251.273 204.902 251.521 203.917 251.506C202.931 251.491 201.972 251.214 201.161 250.709C200.615 250.37 200.15 249.936 199.792 249.433C199.434 248.93 199.19 248.367 199.076 247.778C198.961 247.19 198.977 246.586 199.123 246.003C199.269 245.42 199.543 244.869 199.928 244.382V244.382Z"
          fill="#FFCA28"/>
    <path d="M130.45 396.868C130.733 396.461 131.131 396.148 131.592 395.968C132.053 395.788 132.557 395.749 133.04 395.856C133.523 395.963 133.963 396.211 134.305 396.569C134.648 396.927 134.876 397.379 134.962 397.867C135.048 398.355 134.987 398.858 134.788 399.312C134.588 399.765 134.259 400.15 133.841 400.416C133.424 400.682 132.937 400.817 132.442 400.806C131.948 400.795 131.468 400.636 131.063 400.351C130.521 399.97 130.153 399.389 130.038 398.736C129.923 398.083 130.071 397.411 130.45 396.868V396.868Z"
          fill="#FFCA28"/>
    <path d="M173.458 388.84C173.743 388.436 174.141 388.126 174.602 387.948C175.062 387.77 175.565 387.733 176.047 387.841C176.529 387.95 176.968 388.198 177.309 388.556C177.65 388.914 177.877 389.366 177.962 389.853C178.048 390.34 177.987 390.842 177.788 391.295C177.589 391.748 177.261 392.131 176.845 392.397C176.428 392.664 175.943 392.8 175.449 392.79C174.955 392.78 174.476 392.624 174.071 392.341C173.8 392.152 173.57 391.911 173.392 391.633C173.215 391.354 173.095 391.044 173.038 390.718C172.981 390.393 172.988 390.06 173.061 389.737C173.133 389.415 173.268 389.11 173.458 388.84V388.84Z"
          fill="#FFCA28"/>
    <path d="M198.36 425.926C198.587 425.519 198.905 425.206 199.273 425.026C199.642 424.846 200.045 424.807 200.432 424.914C200.818 425.021 201.171 425.269 201.444 425.627C201.718 425.985 201.901 426.437 201.97 426.925C202.038 427.414 201.99 427.916 201.83 428.37C201.671 428.824 201.407 429.208 201.073 429.474C200.739 429.74 200.35 429.876 199.954 429.864C199.558 429.853 199.174 429.695 198.85 429.41C198.417 429.029 198.122 428.448 198.03 427.795C197.938 427.142 198.057 426.47 198.36 425.926V425.926Z"
          fill="#FFCA28"/>
    <path d="M168.456 367.595C168.739 367.27 169.136 367.019 169.596 366.875C170.056 366.731 170.56 366.7 171.042 366.786C171.525 366.871 171.965 367.07 172.306 367.356C172.648 367.643 172.876 368.004 172.962 368.395C173.048 368.785 172.987 369.187 172.788 369.55C172.589 369.913 172.26 370.221 171.843 370.433C171.426 370.646 170.94 370.755 170.446 370.746C169.952 370.737 169.472 370.61 169.068 370.382C168.798 370.232 168.569 370.041 168.392 369.819C168.215 369.598 168.095 369.35 168.038 369.091C167.981 368.832 167.988 368.566 168.06 368.309C168.132 368.053 168.267 367.81 168.456 367.595V367.595Z"
          fill="#FFCA28"/>
    <path d="M238.366 340.744C238.594 340.34 238.913 340.029 239.281 339.851C239.65 339.674 240.052 339.637 240.438 339.745C240.823 339.853 241.174 340.102 241.447 340.46C241.72 340.818 241.902 341.269 241.97 341.756C242.038 342.244 241.99 342.746 241.83 343.198C241.671 343.651 241.409 344.035 241.076 344.301C240.743 344.567 240.354 344.704 239.959 344.694C239.564 344.684 239.181 344.527 238.856 344.244C238.64 344.055 238.456 343.815 238.314 343.536C238.172 343.258 238.076 342.947 238.03 342.622C237.985 342.296 237.991 341.963 238.048 341.641C238.106 341.318 238.214 341.014 238.366 340.744Z"
          fill="#FFCA28"/>
    <path d="M261.45 390.856C261.733 390.449 262.131 390.136 262.592 389.956C263.053 389.776 263.557 389.737 264.04 389.844C264.523 389.951 264.963 390.199 265.305 390.557C265.648 390.915 265.876 391.367 265.962 391.855C266.048 392.343 265.987 392.846 265.788 393.3C265.588 393.753 265.259 394.138 264.841 394.404C264.424 394.67 263.937 394.805 263.442 394.794C262.948 394.783 262.468 394.624 262.063 394.339C261.521 393.958 261.153 393.377 261.038 392.724C260.923 392.071 261.071 391.399 261.45 390.856V390.856Z"
          fill="#FFCA28"/>
    <path d="M141.953 52.089C141.89 52.4118 141.763 52.7189 141.582 52.9928C141.4 53.2668 141.166 53.5021 140.893 53.6855C140.621 53.8688 140.315 53.9966 139.993 54.0615C139.671 54.1263 139.34 54.127 139.018 54.0636C138.695 54.0001 138.389 53.8737 138.116 53.6915C137.842 53.5093 137.607 53.275 137.424 53.0018C137.241 52.7287 137.114 52.4221 137.049 52.0996C136.984 51.7771 136.984 51.445 137.047 51.1222C137.175 50.4703 137.556 49.8961 138.107 49.5258C138.657 49.1555 139.332 49.0195 139.982 49.1477C140.633 49.2759 141.206 49.6578 141.576 50.2094C141.945 50.761 142.081 51.4371 141.953 52.089V52.089Z"
          fill="#FFCA28"/>
    <path d="M168.963 137.255C168.887 137.742 168.698 138.19 168.419 138.542C168.139 138.894 167.783 139.134 167.395 139.232C167.006 139.33 166.603 139.281 166.237 139.092C165.871 138.903 165.558 138.581 165.337 138.169C165.117 137.756 165 137.271 165 136.775C165 136.278 165.118 135.793 165.339 135.381C165.56 134.969 165.873 134.648 166.24 134.46C166.606 134.271 167.009 134.223 167.397 134.321C167.915 134.453 168.369 134.835 168.663 135.384C168.956 135.934 169.064 136.606 168.963 137.255V137.255Z"
          fill="#FFCA28"/>
    <path opacity="0.5"
          d="M59.9077 68.1461C59.7289 69.1141 59.2969 70.0016 58.6661 70.697C58.0353 71.3923 57.2339 71.8644 56.3627 72.0539C55.4915 72.2434 54.5894 72.1417 53.77 71.7618C52.9505 71.3818 52.2503 70.7405 51.7574 69.9186C51.2645 69.0966 51.001 68.1307 51 67.1424C50.999 66.1541 51.2606 65.1876 51.7518 64.3644C52.243 63.5412 52.9419 62.8981 53.7606 62.5161C54.5793 62.1341 55.4812 62.0302 56.3528 62.2175C56.9375 62.3431 57.4941 62.5968 57.9901 62.9637C58.4862 63.3306 58.9119 63.8035 59.2426 64.355C59.5733 64.9065 59.8024 65.5255 59.9165 66.1763C60.0307 66.8271 60.0277 67.4966 59.9077 68.1461V68.1461Z"
          fill="white"/>
    <path opacity="0.5"
          d="M197.951 87.1706C197.853 87.6557 197.614 88.101 197.265 88.4504C196.915 88.7997 196.47 89.0373 195.985 89.1334C195.501 89.2294 194.999 89.1794 194.542 88.9899C194.086 88.8003 193.696 88.4796 193.422 88.0682C193.147 87.6568 193 87.1731 193 86.6782C193 86.1833 193.145 85.6994 193.419 85.2875C193.693 84.8756 194.082 84.5541 194.538 84.3637C194.994 84.1733 195.496 84.1225 195.981 84.2176C196.304 84.2811 196.611 84.4079 196.886 84.5909C197.16 84.7738 197.395 85.0093 197.578 85.2837C197.761 85.5581 197.889 85.8661 197.952 86.1899C198.016 86.5137 198.016 86.847 197.951 87.1706V87.1706Z"
          fill="white"/>
    <path opacity="0.5"
          d="M116.953 98.5858C116.825 99.1073 116.444 99.5667 115.893 99.863C115.343 100.159 114.668 100.268 114.018 100.165C113.367 100.063 112.794 99.7573 112.424 99.3161C112.055 98.8748 111.919 98.3339 112.047 97.8124C112.11 97.5541 112.237 97.3084 112.418 97.0893C112.6 96.8702 112.834 96.6819 113.107 96.5352C113.379 96.3885 113.685 96.2863 114.007 96.2344C114.329 96.1825 114.66 96.1819 114.982 96.2327C115.305 96.2835 115.611 96.3847 115.884 96.5304C116.158 96.6761 116.393 96.8636 116.576 97.0821C116.759 97.3006 116.886 97.5459 116.951 97.8039C117.016 98.0619 117.016 98.3276 116.953 98.5858Z"
          fill="white"/>
    <path opacity="0.5"
          d="M85.9596 52.1027C85.9107 52.4251 85.8108 52.7321 85.6658 53.0057C85.5209 53.2793 85.3338 53.5139 85.1155 53.696C84.8973 53.878 84.6522 54.0038 84.3946 54.066C84.137 54.1281 83.872 54.1254 83.6153 54.0579C83.2264 53.9626 82.869 53.7249 82.5884 53.3751C82.3077 53.0252 82.1164 52.5789 82.0388 52.0929C81.9611 51.6068 82.0007 51.1029 82.1523 50.6449C82.304 50.187 82.5609 49.7958 82.8906 49.5208C83.2203 49.2459 83.6078 49.0996 84.004 49.1006C84.4002 49.1016 84.7873 49.2498 85.1161 49.5264C85.4449 49.803 85.7006 50.1955 85.8507 50.6542C86.0009 51.1129 86.0388 51.617 85.9596 52.1027V52.1027Z"
          fill="white"/>
    <path opacity="0.5"
          d="M62.9516 3.01147C62.8518 3.49782 62.6098 3.94348 62.2566 4.29187C61.9033 4.64026 61.4546 4.87565 60.9675 4.96816C60.4803 5.06066 59.9768 5.00611 59.5206 4.81141C59.0645 4.61672 58.6765 4.29067 58.4058 3.87468C58.135 3.45869 57.9939 2.97152 58.0002 2.47503C58.0065 1.97854 58.1601 1.49513 58.4413 1.08619C58.7225 0.67725 59.1187 0.361228 59.5796 0.17825C60.0406 -0.00472839 60.5454 -0.0464009 61.03 0.0585157C61.672 0.201872 62.2324 0.591089 62.5915 1.14293C62.9507 1.69477 63.0799 2.36543 62.9516 3.01147V3.01147Z"
          fill="white"/>
    <path opacity="0.5"
          d="M178.828 327.77C179.341 326.963 180.057 326.344 180.886 325.989C181.715 325.635 182.62 325.561 183.486 325.778C184.352 325.994 185.142 326.491 185.755 327.207C186.368 327.922 186.778 328.823 186.932 329.797C187.086 330.77 186.978 331.773 186.621 332.678C186.264 333.584 185.675 334.351 184.927 334.885C184.179 335.418 183.307 335.693 182.419 335.675C181.531 335.657 180.668 335.347 179.938 334.784C179.449 334.407 179.032 333.926 178.711 333.368C178.39 332.81 178.171 332.187 178.068 331.535C177.965 330.883 177.979 330.214 178.109 329.568C178.24 328.922 178.484 328.311 178.828 327.77V327.77Z"
          fill="white"/>
    <path opacity="0.5"
          d="M130.45 396.868C130.733 396.461 131.131 396.148 131.592 395.968C132.053 395.788 132.557 395.749 133.04 395.856C133.523 395.963 133.963 396.211 134.305 396.569C134.648 396.927 134.876 397.379 134.962 397.867C135.048 398.355 134.987 398.858 134.788 399.312C134.588 399.765 134.259 400.15 133.841 400.416C133.424 400.682 132.937 400.817 132.442 400.806C131.948 400.795 131.468 400.636 131.063 400.351C130.521 399.97 130.153 399.389 130.038 398.736C129.923 398.083 130.071 397.411 130.45 396.868V396.868Z"
          fill="white"/>
    <path opacity="0.5"
          d="M173.458 388.84C173.743 388.436 174.141 388.126 174.602 387.948C175.062 387.77 175.565 387.733 176.047 387.841C176.529 387.95 176.968 388.198 177.309 388.556C177.65 388.914 177.877 389.366 177.962 389.853C178.048 390.34 177.987 390.842 177.788 391.295C177.589 391.748 177.261 392.131 176.845 392.397C176.428 392.664 175.943 392.8 175.449 392.79C174.955 392.78 174.476 392.624 174.071 392.341C173.8 392.152 173.57 391.911 173.392 391.633C173.215 391.354 173.095 391.044 173.038 390.718C172.981 390.393 172.988 390.06 173.061 389.737C173.133 389.415 173.268 389.11 173.458 388.84V388.84Z"
          fill="white"/>
    <path opacity="0.5"
          d="M198.36 425.926C198.587 425.519 198.905 425.206 199.273 425.026C199.642 424.846 200.045 424.807 200.432 424.914C200.818 425.021 201.171 425.269 201.444 425.627C201.718 425.985 201.901 426.437 201.97 426.925C202.038 427.414 201.99 427.916 201.83 428.37C201.671 428.824 201.407 429.208 201.073 429.474C200.739 429.74 200.35 429.876 199.954 429.864C199.558 429.853 199.174 429.695 198.85 429.41C198.417 429.029 198.122 428.448 198.03 427.795C197.938 427.142 198.057 426.47 198.36 425.926V425.926Z"
          fill="white"/>
    <path opacity="0.5"
          d="M238.366 340.744C238.594 340.34 238.913 340.029 239.281 339.851C239.65 339.674 240.052 339.637 240.438 339.745C240.823 339.853 241.174 340.102 241.447 340.46C241.72 340.818 241.902 341.269 241.97 341.756C242.038 342.244 241.99 342.746 241.83 343.198C241.671 343.651 241.409 344.035 241.076 344.301C240.743 344.567 240.354 344.704 239.959 344.694C239.564 344.684 239.181 344.527 238.856 344.244C238.64 344.055 238.456 343.815 238.314 343.536C238.172 343.258 238.076 342.947 238.03 342.622C237.985 342.296 237.991 341.963 238.048 341.641C238.106 341.318 238.214 341.014 238.366 340.744Z"
          fill="white"/>
    <path opacity="0.5"
          d="M168.963 137.255C168.887 137.742 168.698 138.19 168.419 138.542C168.139 138.894 167.783 139.134 167.395 139.232C167.006 139.33 166.603 139.281 166.237 139.092C165.871 138.903 165.558 138.581 165.337 138.169C165.117 137.756 165 137.271 165 136.775C165 136.278 165.118 135.793 165.339 135.381C165.56 134.969 165.873 134.648 166.24 134.46C166.606 134.271 167.009 134.223 167.397 134.321C167.915 134.453 168.369 134.835 168.663 135.384C168.956 135.934 169.064 136.606 168.963 137.255V137.255Z"
          fill="white"/>
    <path d="M116.896 130.265C116.105 130.288 115.339 130.575 114.692 131.089C114.046 131.604 113.55 132.323 113.266 133.155C112.982 133.987 112.924 134.896 113.098 135.766C113.272 136.635 113.672 137.427 114.245 138.042C114.818 138.656 115.541 139.064 116.32 139.216C117.1 139.367 117.901 139.255 118.624 138.893C119.347 138.531 119.959 137.935 120.381 137.182C120.804 136.428 121.019 135.55 120.999 134.658C120.985 134.066 120.869 133.483 120.655 132.941C120.442 132.4 120.136 131.911 119.755 131.503C119.374 131.095 118.925 130.776 118.435 130.564C117.944 130.351 117.421 130.25 116.896 130.265V130.265Z"
          fill="#FFCA28"/>
    <path d="M192.383 350.708C191.494 350.728 190.631 350.983 189.904 351.441C189.177 351.898 188.619 352.537 188.299 353.276C187.98 354.016 187.915 354.824 188.111 355.597C188.306 356.37 188.755 357.074 189.401 357.62C190.046 358.166 190.858 358.529 191.735 358.664C192.612 358.799 193.514 358.699 194.327 358.377C195.141 358.055 195.828 357.526 196.304 356.856C196.779 356.186 197.021 355.405 196.999 354.613C196.985 354.086 196.855 353.567 196.615 353.085C196.375 352.603 196.031 352.169 195.602 351.806C195.173 351.443 194.668 351.159 194.116 350.971C193.563 350.782 192.975 350.693 192.383 350.708V350.708Z"
          fill="#FFCA28"/>
    <path d="M47.8961 78.1603C47.1054 78.1809 46.3385 78.4359 45.6924 78.8932C45.0463 79.3504 44.55 79.9894 44.2662 80.7292C43.9825 81.4691 43.924 82.2766 44.0982 83.0497C44.2724 83.8229 44.6715 84.5269 45.245 85.0728C45.8185 85.6187 46.5406 85.982 47.3201 86.1167C48.0996 86.2514 48.9015 86.1515 49.6244 85.8297C50.3472 85.5078 50.9586 84.9784 51.3812 84.3084C51.8039 83.6384 52.0187 82.8579 51.9987 82.0656C51.9854 81.5392 51.8687 81.0206 51.6553 80.5394C51.4419 80.0582 51.136 79.6238 50.755 79.2612C50.374 78.8985 49.9254 78.6146 49.4349 78.4257C48.9444 78.2368 48.4215 78.1466 47.8961 78.1603V78.1603Z"
          fill="#FFCA28"/>
    <path d="M46.7141 238.606C41.8064 235.042 36.5003 240.651 40.2859 245.396C45.1936 248.907 50.4997 243.308 46.7141 238.606Z"
          fill="#FFCA28"/>
    <path d="M3.37774 258.07C2.99324 257.704 2.47932 257.506 1.94906 257.52C1.4188 257.533 0.91563 257.757 0.550232 258.143C0.184834 258.528 -0.0128603 259.043 0.000649556 259.574C0.0141594 260.105 0.237768 260.61 0.622272 260.976C0.812659 261.157 1.03681 261.299 1.28194 261.393C1.52707 261.488 1.78838 261.533 2.05094 261.526C2.3135 261.52 2.57217 261.461 2.81218 261.354C3.05219 261.248 3.26886 261.094 3.44978 260.904C3.63071 260.713 3.77237 260.488 3.86666 260.243C3.96096 259.997 4.00604 259.735 3.99935 259.472C3.99266 259.209 3.93432 258.95 3.82767 258.709C3.72101 258.469 3.56813 258.252 3.37774 258.07Z"
          fill="#FFCA28"/>
    <path d="M88.9527 297.6C88.5569 297.61 88.1728 297.736 87.849 297.965C87.5253 298.193 87.2764 298.512 87.1339 298.883C86.9915 299.253 86.9619 299.657 87.0489 300.044C87.1358 300.431 87.3355 300.783 87.6225 301.057C87.9095 301.33 88.271 301.511 88.6612 301.579C89.0514 301.646 89.4527 301.596 89.8143 301.434C90.1759 301.273 90.4815 301.007 90.6925 300.671C90.9034 300.336 91.0102 299.945 90.9992 299.548C90.9846 299.018 90.7611 298.516 90.3775 298.151C89.9939 297.786 89.4816 297.588 88.9527 297.6V297.6Z"
          fill="#FFCA28"/>
    <path d="M114.962 233.471C114.566 233.479 114.181 233.604 113.856 233.831C113.531 234.058 113.28 234.377 113.136 234.747C112.993 235.117 112.962 235.522 113.048 235.909C113.134 236.297 113.333 236.65 113.619 236.925C113.906 237.199 114.267 237.381 114.658 237.449C115.048 237.517 115.45 237.467 115.812 237.306C116.174 237.145 116.481 236.879 116.692 236.543C116.903 236.207 117.01 235.816 116.999 235.419C116.985 234.891 116.762 234.39 116.381 234.025C115.999 233.66 115.489 233.461 114.962 233.471V233.471Z"
          fill="#FFCA28"/>
    <path d="M27.962 146.296C27.5658 146.304 27.1807 146.429 26.8557 146.656C26.5307 146.883 26.2803 147.202 26.1364 147.572C25.9926 147.942 25.9617 148.347 26.0476 148.734C26.1336 149.122 26.3325 149.475 26.6192 149.749C26.9059 150.024 27.2674 150.206 27.6579 150.274C28.0484 150.342 28.4502 150.292 28.8123 150.131C29.1745 149.97 29.4806 149.704 29.6919 149.368C29.9033 149.032 30.0102 148.641 29.9992 148.244C29.9846 147.716 29.7623 147.215 29.3808 146.85C28.9992 146.485 28.4893 146.286 27.962 146.296V146.296Z"
          fill="#FFCA28"/>
    <path d="M77.9527 188.381C77.5569 188.393 77.1728 188.551 76.849 188.837C76.5253 189.122 76.2764 189.521 76.134 189.984C75.9915 190.447 75.9619 190.952 76.0489 191.435C76.1358 191.919 76.3355 192.36 76.6225 192.701C76.9095 193.043 77.271 193.27 77.6612 193.354C78.0514 193.438 78.4527 193.375 78.8143 193.173C79.1759 192.971 79.4815 192.639 79.6925 192.22C79.9034 191.8 80.0102 191.312 79.9992 190.816C79.9846 190.154 79.7611 189.525 79.3775 189.069C78.9939 188.613 78.4816 188.365 77.9527 188.381V188.381Z"
          fill="#FFCA28"/>
    <path d="M148.999 322.602C148.988 322.206 148.829 321.821 148.545 321.497C148.26 321.172 147.861 320.923 147.4 320.78C146.938 320.637 146.434 320.608 145.951 320.695C145.468 320.782 145.028 320.982 144.688 321.27C144.347 321.557 144.12 321.919 144.036 322.31C143.952 322.701 144.015 323.103 144.217 323.466C144.418 323.828 144.749 324.134 145.168 324.346C145.587 324.557 146.074 324.664 146.569 324.653C147.23 324.638 147.857 324.414 148.313 324.03C148.768 323.646 149.015 323.132 148.999 322.602V322.602Z"
          fill="#FFCA28"/>
    <path d="M148.943 364.735C148.548 364.749 148.166 364.91 147.843 365.196C147.521 365.482 147.274 365.881 147.132 366.344C146.991 366.806 146.962 367.31 147.049 367.793C147.137 368.275 147.336 368.715 147.623 369.056C147.909 369.396 148.27 369.623 148.659 369.708C149.048 369.792 149.449 369.73 149.81 369.53C150.171 369.329 150.477 368.999 150.689 368.581C150.9 368.164 151.009 367.677 150.999 367.182C150.993 366.852 150.935 366.527 150.829 366.225C150.722 365.923 150.569 365.651 150.378 365.423C150.186 365.196 149.961 365.018 149.715 364.9C149.469 364.782 149.207 364.726 148.943 364.735V364.735Z"
          fill="#FFCA28"/>
    <path d="M139 141.286C140.105 141.286 141 140.164 141 138.781C141 137.397 140.105 136.276 139 136.276C137.895 136.276 137 137.397 137 138.781C137 140.164 137.895 141.286 139 141.286Z"
          fill="#FFCA28"/>
    <path d="M97.0448 267.612C97.2579 263.774 94.3403 260.489 90.528 260.274C86.7158 260.06 83.4526 262.997 83.2394 266.835C83.0263 270.673 85.9439 273.958 89.7562 274.172C93.5684 274.387 96.8317 271.45 97.0448 267.612Z"
          fill="#FFCA28"/>
    <path d="M76.3854 257.519C75.9867 261.144 75.598 261.514 72 262.143C75.6179 262.542 75.9867 262.932 76.6146 266.537C77.0133 262.902 77.402 262.492 81 261.913C77.3721 261.514 76.9634 261.124 76.3854 257.519Z"
          fill="#FFCA28"/>
    <path d="M243.395 244.493C242.987 248.118 242.598 248.488 239 249.117C242.628 249.516 243.037 249.906 243.615 253.511C244.013 249.876 244.402 249.466 248 248.887C244.382 248.488 243.973 248.098 243.395 244.493Z"
          fill="#FFCA28"/>
    <g clip-path="url(#clip0_2305_17377)">
        <path d="M230.828 126.564C232.127 126.634 233.419 126.314 234.543 125.644C235.666 124.975 236.571 123.986 237.143 122.802C237.715 121.617 237.929 120.291 237.758 118.988C237.587 117.686 237.039 116.466 236.182 115.481C235.325 114.496 234.198 113.791 232.943 113.454C231.687 113.117 230.359 113.163 229.125 113.586C227.89 114.009 226.806 114.791 226.006 115.833C225.207 116.875 224.729 118.13 224.632 119.442C224.566 120.325 224.675 121.211 224.953 122.049C225.23 122.887 225.67 123.66 226.246 124.323C226.823 124.986 227.525 125.526 228.312 125.91C229.098 126.295 229.954 126.517 230.828 126.564V126.564Z"
              fill="#FFCA28"/>
        <path d="M123.37 196.792C124.03 196.836 124.691 196.681 125.267 196.347C125.842 196.012 126.308 195.513 126.604 194.912C126.9 194.311 127.013 193.636 126.929 192.972C126.846 192.309 126.568 191.686 126.133 191.184C125.698 190.681 125.124 190.322 124.484 190.151C123.844 189.98 123.168 190.005 122.54 190.223C121.913 190.441 121.362 190.842 120.959 191.376C120.555 191.909 120.317 192.551 120.274 193.22C120.217 194.11 120.511 194.985 121.09 195.654C121.67 196.323 122.489 196.732 123.37 196.792V196.792Z"
              fill="#FFCA28"/>
        <path d="M260.845 135.858C261.5 135.898 262.153 135.741 262.722 135.407C263.291 135.073 263.75 134.576 264.041 133.98C264.333 133.384 264.443 132.715 264.359 132.058C264.275 131.4 264 130.784 263.569 130.286C263.137 129.788 262.569 129.432 261.936 129.261C261.302 129.091 260.632 129.114 260.01 129.328C259.387 129.542 258.841 129.937 258.438 130.464C258.036 130.99 257.797 131.625 257.75 132.287C257.693 133.177 257.986 134.052 258.566 134.721C259.146 135.39 259.965 135.799 260.845 135.858V135.858Z"
              fill="#FFCA28"/>
        <path d="M182.865 186.181C183.52 186.221 184.173 186.064 184.741 185.729C185.31 185.395 185.769 184.898 186.061 184.302C186.352 183.706 186.462 183.037 186.378 182.38C186.294 181.722 186.019 181.106 185.588 180.608C185.157 180.111 184.589 179.754 183.955 179.584C183.322 179.413 182.652 179.436 182.029 179.65C181.407 179.864 180.86 180.26 180.458 180.786C180.056 181.313 179.816 181.947 179.769 182.609C179.738 183.05 179.794 183.493 179.933 183.912C180.071 184.331 180.291 184.717 180.579 185.049C180.866 185.381 181.216 185.652 181.609 185.846C182.001 186.04 182.428 186.154 182.865 186.181V186.181Z"
              fill="#FFCA28"/>
        <path opacity="0.5"
              d="M230.828 126.564C232.127 126.634 233.419 126.314 234.543 125.644C235.666 124.975 236.571 123.986 237.143 122.802C237.715 121.617 237.929 120.291 237.758 118.988C237.587 117.686 237.039 116.466 236.182 115.481C235.325 114.496 234.198 113.791 232.943 113.454C231.687 113.117 230.359 113.163 229.125 113.586C227.89 114.009 226.806 114.791 226.006 115.833C225.207 116.875 224.729 118.13 224.632 119.442C224.566 120.325 224.675 121.211 224.953 122.049C225.23 122.887 225.67 123.66 226.246 124.323C226.823 124.986 227.525 125.526 228.312 125.91C229.098 126.295 229.954 126.517 230.828 126.564V126.564Z"
              fill="white"/>
        <path opacity="0.5"
              d="M123.37 196.792C124.03 196.836 124.691 196.681 125.267 196.347C125.842 196.012 126.308 195.513 126.604 194.912C126.9 194.311 127.013 193.636 126.929 192.972C126.846 192.309 126.568 191.686 126.133 191.184C125.698 190.681 125.124 190.322 124.484 190.151C123.844 189.98 123.168 190.005 122.54 190.223C121.913 190.441 121.362 190.842 120.959 191.376C120.555 191.909 120.317 192.551 120.274 193.22C120.217 194.11 120.511 194.985 121.09 195.654C121.67 196.323 122.489 196.732 123.37 196.792V196.792Z"
              fill="white"/>
        <path opacity="0.5"
              d="M260.845 135.858C261.5 135.898 262.153 135.741 262.722 135.407C263.291 135.073 263.75 134.576 264.041 133.98C264.333 133.384 264.443 132.715 264.359 132.058C264.275 131.4 264 130.784 263.569 130.286C263.137 129.788 262.569 129.432 261.936 129.261C261.302 129.091 260.632 129.114 260.01 129.328C259.387 129.542 258.841 129.937 258.438 130.464C258.036 130.99 257.797 131.625 257.75 132.287C257.693 133.177 257.986 134.052 258.566 134.721C259.146 135.39 259.965 135.799 260.845 135.858V135.858Z"
              fill="white"/>
        <path opacity="0.5"
              d="M182.865 186.181C183.52 186.221 184.173 186.064 184.741 185.729C185.31 185.395 185.769 184.898 186.061 184.302C186.352 183.706 186.462 183.037 186.378 182.38C186.294 181.722 186.019 181.106 185.588 180.608C185.157 180.111 184.589 179.754 183.955 179.584C183.322 179.413 182.652 179.436 182.029 179.65C181.407 179.864 180.86 180.26 180.458 180.786C180.056 181.313 179.816 181.947 179.769 182.609C179.738 183.05 179.794 183.493 179.933 183.912C180.071 184.331 180.291 184.717 180.579 185.049C180.866 185.381 181.216 185.652 181.609 185.846C182.001 186.04 182.428 186.154 182.865 186.181V186.181Z"
              fill="white"/>
        <path d="M162.043 131.882C160.639 132.313 159.12 132.171 157.82 131.484C156.52 130.798 155.545 129.623 155.109 128.219L151.916 117.985C151.698 117.286 151.62 116.551 151.686 115.822C151.752 115.093 151.962 114.384 152.303 113.736C152.644 113.089 153.109 112.515 153.672 112.047C154.235 111.58 154.885 111.228 155.584 111.013V111.013C156.282 110.795 157.016 110.717 157.745 110.783C158.473 110.849 159.181 111.059 159.828 111.4C160.476 111.741 161.049 112.207 161.516 112.77C161.983 113.334 162.334 113.984 162.549 114.684L165.715 124.894C165.933 125.594 166.012 126.331 165.945 127.061C165.879 127.791 165.669 128.501 165.328 129.15C164.987 129.799 164.521 130.375 163.957 130.843C163.394 131.312 162.743 131.665 162.043 131.882V131.882Z"
              fill="white" stroke="#39454B" stroke-width="1.5" stroke-linecap="round" stroke-linejoin="round"/>
        <path d="M82.4528 181.267L82.4482 181.273L82.4253 181.301C82.4042 181.328 82.372 181.369 82.3308 181.424C82.2483 181.533 82.1302 181.696 81.9936 181.902C81.7191 182.317 81.376 182.9 81.094 183.575C80.5197 184.95 80.2609 186.55 81.0958 187.942C81.5109 188.634 82.2194 189.225 83.118 189.721C84.0114 190.214 85.0436 190.585 86.0393 190.86C87.0317 191.134 87.9665 191.307 88.6545 191.411C88.9978 191.463 89.2777 191.498 89.4705 191.519C89.5668 191.53 89.6413 191.538 89.6908 191.542L89.7459 191.547L89.7587 191.548L89.7613 191.549L89.7616 191.549L89.7617 191.549L90.3929 191.599L90.4483 192.227C90.4483 192.227 90.4484 192.227 90.4484 192.228C90.4485 192.228 90.4486 192.229 90.4486 192.23C90.4491 192.234 90.45 192.242 90.4515 192.254C90.4547 192.278 90.4603 192.319 90.4697 192.373C90.4885 192.483 90.5221 192.649 90.5797 192.858C90.6951 193.277 90.9058 193.867 91.2844 194.525C92.0354 195.829 93.4649 197.433 96.2062 198.495C99.0675 199.604 103.139 200.73 106.911 201.467C108.795 201.835 110.59 202.103 112.11 202.224C113.646 202.347 114.821 202.313 115.522 202.128C117.153 201.629 118.82 201.258 120.508 201.018L120.693 200.992L120.868 201.055C126.137 202.953 130.197 204.417 133.421 205.581C145.174 209.822 145.822 210.056 153.525 212.64L82.4528 181.267ZM82.4528 181.267L82.4529 181.267L82.4531 181.267L82.4533 181.266L82.4535 181.266L83.0811 180.513L82.1887 180.105L82.1886 180.105L82.1885 180.105L82.1882 180.105L82.187 180.104L82.1775 180.1L82.1347 180.079C82.0959 180.061 82.0374 180.032 81.9623 179.994C81.8119 179.918 81.5956 179.803 81.3382 179.655C80.8208 179.356 80.1497 178.926 79.5159 178.394C78.1869 177.277 77.3087 175.967 77.6988 174.602C78.1198 173.128 79.5119 172.232 81.0144 171.7C81.7446 171.441 82.4498 171.288 82.9751 171.2C83.2366 171.156 83.4507 171.129 83.5976 171.113C83.6709 171.105 83.7272 171.099 83.7641 171.096L83.7943 171.094C83.808 171.093 83.8217 171.092 83.8355 171.09L83.7136 169.596M82.4528 181.267L83.7605 169.601C83.7605 169.601 83.7599 169.601 83.7586 169.601M83.7136 169.596C83.7384 169.596 83.7535 169.599 83.7586 169.601M83.7136 169.596L83.7635 170.344C83.7181 169.662 83.7138 169.601 83.7132 169.596C83.7133 169.596 83.7135 169.596 83.7136 169.596ZM83.7586 169.601C83.7502 169.597 83.7141 169.58 83.6485 169.523C83.5248 169.416 83.3688 169.226 83.2062 168.947C82.8828 168.392 82.6058 167.611 82.5028 166.81C82.3986 166.001 82.4833 165.266 82.7732 164.741C83.0377 164.261 83.5187 163.867 84.4515 163.781C85.5414 163.679 87.5536 163.736 90.0132 163.89C92.4539 164.042 95.2808 164.285 97.9688 164.543C100.656 164.8 103.199 165.071 105.071 165.277C106.007 165.381 106.775 165.468 107.308 165.529C107.575 165.56 107.783 165.584 107.925 165.6L108.073 165.618M83.7586 169.601L108.073 165.618M108.073 165.618L108.71 165.814L108.94 165.117L108.228 164.881M108.073 165.618L108.228 164.881M108.228 164.881L108.449 164.164C106.061 163.427 103.728 162.52 101.468 161.45C101.067 161.214 100.623 160.783 100.267 160.223C99.9064 159.656 99.6679 159.008 99.6326 158.38C99.598 157.766 99.7553 157.168 100.197 156.639C100.647 156.1 101.443 155.572 102.792 155.215C105.649 154.457 108.277 154.078 110.902 154.628C113.51 155.175 116.203 156.659 119.148 159.794C123.581 164.938 127.465 170.531 130.737 176.483L130.931 176.835L131.331 176.869L160.418 179.327L160.814 179.361L161.064 179.051C166.904 171.815 173.173 164.938 179.839 158.458C185.358 153.801 191.637 150.134 198.4 147.615C205.477 153.555 209.027 162.844 210.797 170.798C211.692 174.822 212.125 178.471 212.333 181.115C212.437 182.436 212.485 183.505 212.507 184.241C212.518 184.609 212.522 184.893 212.524 185.085C212.524 185.087 212.524 185.089 212.524 185.091M108.228 164.881L212.524 185.091M212.524 185.091L212.51 185.107C212.374 185.257 212.174 185.478 211.915 185.762C211.398 186.329 210.649 187.146 209.724 188.14C207.873 190.13 205.317 192.832 202.494 195.683C199.671 198.535 196.586 201.531 193.677 204.109C190.757 206.697 188.053 208.83 185.985 209.987C181.848 212.302 175.447 213.55 169.154 213.915C162.863 214.281 156.85 213.755 153.525 212.64L212.524 185.091Z"
              fill="white" stroke="#39454B" stroke-width="1.5"/>
        <path d="M212.58 185.007L212.566 185.022C212.431 185.173 212.231 185.394 211.973 185.678C211.458 186.246 210.711 187.063 209.789 188.058C207.944 190.05 205.395 192.754 202.58 195.607C199.765 198.461 196.687 201.458 193.784 204.038C190.87 206.627 188.17 208.761 186.103 209.918C181.966 212.233 175.565 213.481 169.272 213.846C162.98 214.212 156.968 213.686 153.643 212.571C145.94 209.987 145.292 209.753 133.538 205.512C131.529 204.786 129.194 203.944 126.445 202.953C128.625 203.136 131.304 203.35 134.274 203.564C142.081 204.127 151.912 204.692 159.97 204.695C168.133 204.699 174.7 202.47 179.302 198.327C183.91 194.179 186.464 188.188 186.743 180.84C187.214 171.519 188.273 162.237 189.912 153.05L196.659 148.291C197.312 148.025 197.84 147.822 198.207 147.683C198.277 147.657 198.342 147.633 198.4 147.611C205.484 153.529 209.048 162.798 210.83 170.738C211.732 174.754 212.17 178.398 212.382 181.037C212.488 182.356 212.538 183.423 212.561 184.158C212.573 184.525 212.578 184.81 212.58 185.001C212.58 185.003 212.58 185.005 212.58 185.007Z"
              fill="#FFCA28" stroke="#39454B" stroke-width="1.5"/>
        <path opacity="0.5"
              d="M212.58 185.007L212.566 185.022C212.431 185.173 212.231 185.394 211.973 185.678C211.458 186.246 210.711 187.063 209.789 188.058C207.944 190.05 205.395 192.754 202.58 195.607C199.765 198.461 196.687 201.458 193.784 204.038C190.87 206.627 188.17 208.761 186.103 209.918C181.966 212.233 175.565 213.481 169.272 213.846C162.98 214.212 156.968 213.686 153.643 212.571C145.94 209.987 145.292 209.753 133.538 205.512C131.529 204.786 129.194 203.944 126.445 202.953C128.625 203.136 131.304 203.35 134.274 203.564C142.081 204.127 151.912 204.692 159.97 204.695C168.133 204.699 174.7 202.47 179.302 198.327C183.91 194.179 186.464 188.188 186.743 180.84C187.214 171.519 188.273 162.237 189.912 153.05L196.659 148.291C197.312 148.025 197.84 147.822 198.207 147.683C198.277 147.657 198.342 147.633 198.4 147.611C205.484 153.529 209.048 162.798 210.83 170.738C211.732 174.754 212.17 178.398 212.382 181.037C212.488 182.356 212.538 183.423 212.561 184.158C212.573 184.525 212.578 184.81 212.58 185.001C212.58 185.003 212.58 185.005 212.58 185.007Z"
              fill="white" stroke="#39454B" stroke-width="1.5"/>
        <path d="M198.545 146.762C191.538 149.317 185.036 153.088 179.335 157.901C172.641 164.408 166.344 171.314 160.481 178.58L131.394 176.122C128.095 170.119 124.177 164.479 119.705 159.292C113.65 152.839 108.398 152.952 102.599 154.49C96.8004 156.027 98.9836 160.896 101.12 162.114C103.42 163.206 105.796 164.13 108.228 164.881C108.228 164.881 89.0082 162.604 84.3819 163.034C79.7556 163.464 82.22 170.492 83.7635 170.344C83.7635 170.344 78.0268 170.724 76.9777 174.395C75.9287 178.067 81.8766 180.787 81.8766 180.787C81.8766 180.787 78.419 184.937 80.4528 188.327C82.4866 191.718 89.7017 192.296 89.7017 192.296C89.7017 192.296 90.1115 196.938 95.9355 199.195C101.76 201.451 112.399 203.742 115.729 202.849C117.326 202.359 118.96 201.996 120.614 201.761C145.091 210.575 143.462 210.055 153.287 213.352C160.202 215.669 177.78 215.438 186.351 210.641C194.923 205.845 213.275 185.379 213.275 185.379C213.275 185.379 213.529 158.934 198.545 146.762Z"
              stroke="#39454B" stroke-width="1.5" stroke-linecap="round" stroke-linejoin="round"/>
        <path d="M149.186 177.62L131.4 176.158C128.101 170.156 124.183 164.516 119.712 159.329C113.656 152.876 108.404 152.989 102.605 154.526C96.8065 156.064 98.9897 160.933 101.126 162.151C103.426 163.242 105.802 164.167 108.234 164.918C108.234 164.918 89.0143 162.641 84.388 163.071C79.7617 163.5 82.2261 170.529 83.7696 170.381C83.7696 170.381 78.0329 170.761 76.9839 174.432C75.9348 178.104 81.8827 180.824 81.8827 180.824C81.8827 180.824 78.4251 184.974 80.4589 188.364C82.4927 191.754 89.7078 192.333 89.7078 192.333C89.7078 192.333 90.1176 196.975 95.9416 199.231C101.766 201.488 112.406 203.779 115.735 202.886C117.332 202.396 118.966 202.032 120.62 201.798C131.442 205.692 137.195 207.781 141.025 209.155L149.186 177.62Z"
              fill="white" stroke="#39454B" stroke-width="1.5" stroke-linecap="round" stroke-linejoin="round"/>
        <path d="M181.323 212.634C182.405 212.314 183.467 211.93 184.505 211.487C180.806 203.515 171.672 185.353 162.231 175.742C161.15 177.437 160.48 178.58 160.48 178.58C160.48 178.58 174.697 197.014 181.323 212.634Z"
              fill="white" stroke="#39454B" stroke-width="1.5" stroke-linecap="round" stroke-linejoin="round"/>
        <path d="M108.198 164.873C108.198 164.873 103.754 179.311 115.629 184.149" stroke="#39454B" stroke-width="1.5"
              stroke-linecap="round" stroke-linejoin="round"/>
        <path d="M83.7318 170.337L99.3589 173.999" stroke="#39454B" stroke-width="1.5" stroke-linecap="round"
              stroke-linejoin="round"/>
        <path d="M81.908 180.795L96.1912 183.551" stroke="#39454B" stroke-width="1.5" stroke-linecap="round"
              stroke-linejoin="round"/>
        <path d="M89.7322 192.306L98.8954 193.076" stroke="#39454B" stroke-width="1.5" stroke-linecap="round"
              stroke-linejoin="round"/>
        <path d="M99.4191 170.871C99.4191 170.871 97.7709 188.076 101.454 195.861" stroke="#39454B" stroke-width="1.5"
              stroke-linecap="round" stroke-linejoin="round"/>
        <path d="M194.885 201.133C191.947 195.04 183.125 192.909 174.829 196.863L194.885 201.133ZM194.885 201.133L195.56 200.807M194.885 201.133L195.56 200.807M195.56 200.807L194.899 201.162C195.121 201.576 195.31 202.006 195.464 202.45C192.554 205.256 189.376 207.769 185.975 209.954C180.911 212.81 172.506 214.048 165.095 214.043M195.56 200.807L165.095 214.043M165.095 214.043C163.13 208.107 167.061 200.572 174.828 196.863L165.095 214.043Z"
              fill="#FFCA28" stroke="#39454B" stroke-width="1.5"/>
        <path d="M195.56 200.807C192.372 194.197 183.01 192.132 174.505 196.186C166.32 200.094 162.028 208.288 164.567 214.791C172.151 214.856 181.007 213.626 186.363 210.596C189.942 208.299 193.279 205.641 196.319 202.665C196.131 202.021 195.877 201.398 195.56 200.807V200.807Z"
              stroke="#39454B" stroke-width="1.5" stroke-linecap="round" stroke-linejoin="round"/>
        <path d="M211.52 216.235L211.52 216.235L211.546 216.071L211.5 215.911C210.965 214.047 211.586 212.611 212.375 211.599C212.773 211.089 213.21 210.696 213.548 210.429C213.717 210.297 213.858 210.198 213.956 210.134C214.004 210.102 214.041 210.078 214.065 210.064L214.066 210.063L214.076 210.059L214.224 209.992C214.354 209.934 214.548 209.847 214.802 209.734C215.309 209.507 216.053 209.176 217.001 208.754C218.899 207.911 221.615 206.71 224.888 205.277C231.436 202.411 240.212 198.619 249.13 194.913C258.05 191.206 267.102 187.588 274.204 185.07C277.758 183.809 280.807 182.83 283.1 182.252C284.249 181.962 285.185 181.778 285.89 181.706C286.243 181.67 286.518 181.665 286.721 181.681C286.822 181.689 286.895 181.702 286.947 181.715C286.999 181.729 287.015 181.739 287.01 181.736C288.042 182.353 289.743 183.937 291.729 186.239C293.696 188.519 295.889 191.439 297.908 194.659C299.929 197.88 301.766 201.386 303.031 204.84C304.3 208.3 304.976 211.66 304.726 214.606C304.222 220.545 300.604 226.278 295.44 231.641C290.286 236.991 283.678 241.885 277.357 246.149C271.161 250.33 261.166 253.311 251.718 254.622C247.005 255.276 242.462 255.51 238.637 255.278C234.781 255.045 231.766 254.344 230.018 253.219C228.214 252.058 226.233 249.947 224.237 247.321C222.252 244.71 220.295 241.647 218.528 238.641C215.043 232.71 212.329 227.048 211.643 225.617L211.616 225.562C211.358 225.022 211.195 224.192 211.122 223.177C211.05 222.179 211.068 221.077 211.127 220.041C211.186 219.007 211.285 218.053 211.368 217.357C211.41 217.01 211.448 216.727 211.476 216.533C211.49 216.435 211.501 216.36 211.508 216.309L211.517 216.253L211.519 216.239L211.52 216.235L211.52 216.235Z"
              fill="white" stroke="#39454B" stroke-width="1.5"/>
        <path d="M211.519 216.239L211.519 216.239L211.519 216.239L211.546 216.074L211.5 215.913C210.964 214.048 211.58 212.64 212.357 211.66C212.75 211.164 213.181 210.785 213.516 210.529C213.682 210.402 213.822 210.307 213.918 210.246C213.966 210.215 214.003 210.193 214.026 210.179L214.031 210.176L214.047 210.169L214.195 210.103C214.325 210.044 214.519 209.957 214.773 209.844C215.279 209.618 216.024 209.286 216.972 208.864C218.87 208.022 221.586 206.82 224.859 205.388C231.407 202.522 240.183 198.73 249.101 195.023C258.021 191.316 267.073 187.699 274.175 185.18C277.729 183.92 280.778 182.941 283.071 182.362C284.219 182.072 285.156 181.889 285.861 181.817C286.214 181.781 286.489 181.775 286.692 181.791C286.793 181.799 286.866 181.812 286.918 181.826C286.97 181.839 286.986 181.85 286.981 181.847C288.013 182.463 289.714 184.048 291.7 186.35C293.667 188.629 295.86 191.549 297.879 194.769C299.9 197.99 301.737 201.497 303.002 204.95C304.271 208.41 304.947 211.77 304.697 214.716C304.192 220.655 300.575 226.389 295.411 231.751C290.257 237.102 283.649 241.995 277.328 246.259C271.131 250.44 261.137 253.421 251.688 254.733C246.976 255.387 242.433 255.62 238.608 255.389C234.771 255.157 231.768 254.462 230.016 253.347C227.191 251.16 224.746 248.525 222.777 245.549C225.958 245.298 229.399 245.162 232.84 245.026C233.584 244.996 234.328 244.967 235.069 244.936C239.668 244.746 244.171 244.512 247.863 243.944L247.863 243.944C254.929 242.853 265.965 240.006 275.881 235.562C280.84 233.34 285.545 230.708 289.338 227.679C293.126 224.654 296.057 221.193 297.381 217.3C299.931 209.804 299.152 205.684 296.575 203.229C295.333 202.045 293.745 201.328 292.16 200.777C291.404 200.514 290.63 200.283 289.882 200.06L289.768 200.026C288.978 199.791 288.221 199.563 287.509 199.306C286.596 198.976 285.562 198.995 284.471 199.222C283.376 199.449 282.167 199.898 280.866 200.496C278.325 201.662 275.31 203.452 271.944 205.45L271.714 205.587C264.761 209.714 256.222 214.751 246.705 217.515C237.193 220.278 228.923 220.339 223.037 219.711C220.094 219.397 217.748 218.911 216.142 218.505C215.34 218.303 214.723 218.12 214.309 217.989C214.102 217.924 213.947 217.871 213.844 217.835C213.792 217.818 213.754 217.804 213.73 217.795L213.703 217.786L213.697 217.784L213.697 217.783L213.697 217.783L213.697 217.783L213.468 217.697L213.232 217.763L211.259 218.315C211.304 217.865 211.351 217.465 211.393 217.14C211.429 216.857 211.461 216.63 211.484 216.475C211.495 216.397 211.504 216.337 211.51 216.298L211.517 216.253L211.519 216.242L211.519 216.24L211.519 216.239ZM214.054 210.163C214.054 210.163 214.054 210.163 214.054 210.163L214.054 210.163Z"
              fill="#FFCA28" stroke="#39454B" stroke-width="1.5"/>
        <path opacity="0.5"
              d="M211.519 216.239L211.519 216.239L211.519 216.239L211.546 216.074L211.5 215.913C210.964 214.048 211.58 212.64 212.357 211.66C212.75 211.164 213.181 210.785 213.516 210.529C213.682 210.402 213.822 210.307 213.918 210.246C213.966 210.215 214.003 210.193 214.026 210.179L214.031 210.176L214.047 210.169L214.195 210.103C214.325 210.044 214.519 209.957 214.773 209.844C215.279 209.618 216.024 209.286 216.972 208.864C218.87 208.022 221.586 206.82 224.859 205.388C231.407 202.522 240.183 198.73 249.101 195.023C258.021 191.316 267.073 187.699 274.175 185.18C277.729 183.92 280.778 182.941 283.071 182.362C284.219 182.072 285.156 181.889 285.861 181.817C286.214 181.781 286.489 181.775 286.692 181.791C286.793 181.799 286.866 181.812 286.918 181.826C286.97 181.839 286.986 181.85 286.981 181.847C288.013 182.463 289.714 184.048 291.7 186.35C293.667 188.629 295.86 191.549 297.879 194.769C299.9 197.99 301.737 201.497 303.002 204.95C304.271 208.41 304.947 211.77 304.697 214.716C304.192 220.655 300.575 226.389 295.411 231.751C290.257 237.102 283.649 241.995 277.328 246.259C271.131 250.44 261.137 253.421 251.688 254.733C246.976 255.387 242.433 255.62 238.608 255.389C234.771 255.157 231.768 254.462 230.016 253.347C227.191 251.16 224.746 248.525 222.777 245.549C225.958 245.298 229.399 245.162 232.84 245.026C233.584 244.996 234.328 244.967 235.069 244.936C239.668 244.746 244.171 244.512 247.863 243.944L247.863 243.944C254.929 242.853 265.965 240.006 275.881 235.562C280.84 233.34 285.545 230.708 289.338 227.679C293.126 224.654 296.057 221.193 297.381 217.3C299.931 209.804 299.152 205.684 296.575 203.229C295.333 202.045 293.745 201.328 292.16 200.777C291.404 200.514 290.63 200.283 289.882 200.06L289.768 200.026C288.978 199.791 288.221 199.563 287.509 199.306C286.596 198.976 285.562 198.995 284.471 199.222C283.376 199.449 282.167 199.898 280.866 200.496C278.325 201.662 275.31 203.452 271.944 205.45L271.714 205.587C264.761 209.714 256.222 214.751 246.705 217.515C237.193 220.278 228.923 220.339 223.037 219.711C220.094 219.397 217.748 218.911 216.142 218.505C215.34 218.303 214.723 218.12 214.309 217.989C214.102 217.924 213.947 217.871 213.844 217.835C213.792 217.818 213.754 217.804 213.73 217.795L213.703 217.786L213.697 217.784L213.697 217.783L213.697 217.783L213.697 217.783L213.468 217.697L213.232 217.763L211.259 218.315C211.304 217.865 211.351 217.465 211.393 217.14C211.429 216.857 211.461 216.63 211.484 216.475C211.495 216.397 211.504 216.337 211.51 216.298L211.517 216.253L211.519 216.242L211.519 216.24L211.519 216.239ZM214.054 210.163C214.054 210.163 214.054 210.163 214.054 210.163L214.054 210.163Z"
              fill="white" stroke="#39454B" stroke-width="1.5"/>
        <path d="M210.779 216.117C210.779 216.117 209.657 223.21 210.94 225.886C212.223 228.562 221.944 248.916 229.612 253.85C237.281 258.784 265.112 255.316 277.777 246.771C290.442 238.226 304.421 227.057 305.473 214.67C306.526 202.283 291.968 183.824 287.395 181.092C282.822 178.361 213.719 209.397 213.719 209.397C213.719 209.397 209.539 211.799 210.779 216.117Z"
              stroke="#39454B" stroke-width="1.5" stroke-linecap="round" stroke-linejoin="round"/>
        <path d="M193.551 148.599L193.551 148.598L193.551 148.598L193.551 148.598L193.552 148.597L193.709 148.36L193.669 148.077C193.554 147.275 193.848 146.296 194.637 145.131C195.418 143.975 196.628 142.725 198.172 141.421C201.258 138.814 205.564 136.087 210.101 133.555C219.178 128.489 229.028 124.284 231.519 123.456C232.42 123.157 233.471 122.706 234.596 122.223C235.103 122.005 235.626 121.78 236.156 121.561C237.895 120.841 239.791 120.137 241.772 119.732C245.701 118.929 249.947 119.297 253.938 123.133C258.08 127.114 264.36 135.773 270.309 145.004C276.248 154.22 281.796 163.91 284.485 169.904C287.166 175.881 287.653 179.708 287.162 182.52C286.693 185.2 285.328 187.059 283.81 189.127C283.733 189.233 283.655 189.339 283.577 189.446C280.704 193.359 275.436 197.414 268.935 201.225C262.452 205.025 254.814 208.541 247.273 211.399C239.73 214.257 232.309 216.448 226.263 217.608C223.239 218.188 220.579 218.506 218.431 218.526C216.25 218.547 214.718 218.257 213.851 217.734L213.85 217.733C210.784 215.889 207.906 212.583 205.284 208.392C202.669 204.212 200.344 199.213 198.358 194.056C194.384 183.738 191.799 172.875 190.953 166.867C190.114 160.91 190.783 156.317 191.65 153.229C192.083 151.684 192.567 150.514 192.939 149.735C193.124 149.346 193.282 149.056 193.391 148.865C193.445 148.77 193.487 148.7 193.515 148.656C193.529 148.633 193.539 148.617 193.545 148.608L193.551 148.599Z"
              fill="white" stroke="#39454B" stroke-width="1.5"/>
        <path d="M256.02 142.658L255.172 124.364C259.27 128.73 264.941 136.636 270.339 145.011C276.278 154.228 281.826 163.918 284.515 169.911C287.196 175.888 287.683 179.715 287.191 182.527C286.723 185.207 285.358 187.067 283.84 189.135C283.763 189.24 283.685 189.347 283.607 189.454C280.839 193.213 275.852 197.107 269.674 200.792C265.566 203.243 260.96 205.584 256.188 207.717C260.478 204.521 265.73 199.944 270.054 195.156C272.936 191.965 275.438 188.645 276.962 185.548C278.47 182.481 279.107 179.452 277.934 176.977C275.862 172.608 270.334 163.961 265.361 156.456C262.867 152.692 260.501 149.198 258.759 146.646C257.888 145.37 257.172 144.328 256.675 143.606C256.426 143.245 256.232 142.964 256.099 142.772L256.02 142.658Z"
              fill="#FFCA28" stroke="#39454B" stroke-width="1.5"/>
        <path d="M193.571 148.564L193.706 148.337L193.668 148.076C193.554 147.274 193.849 146.295 194.639 145.129C195.423 143.973 196.635 142.723 198.183 141.418C201.275 138.81 205.588 136.082 210.129 133.548C219.211 128.48 229.055 124.272 231.492 123.445C232.371 123.146 233.391 122.709 234.479 122.241C234.969 122.031 235.474 121.814 235.986 121.602C237.665 120.904 239.492 120.219 241.404 119.8C245.066 118.998 249.007 119.175 252.77 122.161L248.974 131.387L248.956 131.421C248.933 131.464 248.898 131.529 248.852 131.614C248.759 131.785 248.62 132.038 248.437 132.361C248.07 133.009 247.526 133.943 246.822 135.078C245.412 137.349 243.36 140.424 240.792 143.639C235.634 150.1 228.494 156.999 220.394 159.228C212.063 161.521 205.983 162.343 201.465 161.298C197.111 160.29 194.106 157.52 191.935 152.277C192.329 150.979 192.879 149.732 193.571 148.564Z"
              fill="#FFCA28" stroke="#39454B" stroke-width="1.5"/>
        <path opacity="0.5"
              d="M256.02 142.658L255.172 124.364C259.27 128.73 264.941 136.636 270.339 145.011C276.278 154.228 281.826 163.918 284.515 169.911C287.196 175.888 287.683 179.715 287.191 182.527C286.723 185.207 285.358 187.067 283.84 189.135C283.763 189.24 283.685 189.347 283.607 189.454C280.839 193.213 275.852 197.107 269.674 200.792C265.566 203.243 260.96 205.584 256.188 207.717C260.478 204.521 265.73 199.944 270.054 195.156C272.936 191.965 275.438 188.645 276.962 185.548C278.47 182.481 279.107 179.452 277.934 176.977C275.862 172.608 270.334 163.961 265.361 156.456C262.867 152.692 260.501 149.198 258.759 146.646C257.888 145.37 257.172 144.328 256.675 143.606C256.426 143.245 256.232 142.964 256.099 142.772L256.02 142.658Z"
              fill="white" stroke="#39454B" stroke-width="1.5"/>
        <path opacity="0.5"
              d="M193.571 148.564L193.706 148.337L193.668 148.076C193.554 147.274 193.849 146.295 194.639 145.129C195.423 143.973 196.635 142.723 198.183 141.418C201.275 138.81 205.588 136.082 210.129 133.548C219.211 128.48 229.055 124.272 231.492 123.445C232.371 123.146 233.391 122.709 234.479 122.241C234.969 122.031 235.474 121.814 235.986 121.602C237.665 120.904 239.492 120.219 241.404 119.8C245.066 118.998 249.007 119.175 252.77 122.161L248.974 131.387L248.956 131.421C248.933 131.464 248.898 131.529 248.852 131.614C248.759 131.785 248.62 132.038 248.437 132.361C248.07 133.009 247.526 133.943 246.822 135.078C245.412 137.349 243.36 140.424 240.792 143.639C235.634 150.1 228.494 156.999 220.394 159.228C212.063 161.521 205.983 162.343 201.465 161.298C197.111 160.29 194.106 157.52 191.935 152.277C192.329 150.979 192.879 149.732 193.571 148.564Z"
              fill="white" stroke="#39454B" stroke-width="1.5"/>
        <path d="M192.926 148.183C192.926 148.183 188.501 154.836 190.21 166.971C191.919 179.106 200.611 210.646 213.464 218.376C221.9 223.467 272.321 206.044 284.181 189.89C287.359 185.549 290.591 181.686 285.169 169.597C279.746 157.508 262.882 130.69 254.458 122.592C246.033 114.494 236.379 121.052 231.282 122.745C226.186 124.437 191.707 139.652 192.926 148.183Z"
              stroke="#39454B" stroke-width="1.5" stroke-linecap="round" stroke-linejoin="round"/>
        <path d="M237.399 151.308L206.751 163.138C201.906 165.008 199.494 170.455 201.362 175.304L210.46 198.914C212.328 203.763 217.77 206.178 222.614 204.308L253.263 192.477C258.108 190.607 260.52 185.16 258.652 180.312L249.554 156.701C247.686 151.852 242.244 149.438 237.399 151.308Z"
              fill="white" stroke="#39454B" stroke-width="1.5" stroke-linecap="round" stroke-linejoin="round"/>
        <path d="M216.156 165.974C217.147 166.24 218.037 166.794 218.714 167.566C219.39 168.338 219.823 169.293 219.957 170.311C220.091 171.329 219.92 172.364 219.466 173.285C219.012 174.206 218.296 174.972 217.407 175.486C216.519 175.999 215.498 176.237 214.474 176.17C213.451 176.103 212.47 175.733 211.656 175.108C210.842 174.483 210.231 173.63 209.901 172.658C209.572 171.686 209.537 170.637 209.803 169.645C210.159 168.315 211.028 167.181 212.22 166.492C213.411 165.804 214.827 165.617 216.156 165.974V165.974Z"
              fill="#FFCA28" stroke="#39454B" stroke-width="1.5" stroke-linecap="round" stroke-linejoin="round"/>
        <path d="M223.952 182.653C224.945 182.916 225.838 183.469 226.517 184.24C227.196 185.012 227.631 185.968 227.767 186.987C227.902 188.006 227.733 189.043 227.279 189.965C226.825 190.888 226.108 191.655 225.218 192.169C224.329 192.683 223.307 192.921 222.281 192.853C221.256 192.785 220.274 192.414 219.46 191.787C218.646 191.16 218.037 190.305 217.709 189.33C217.381 188.356 217.349 187.306 217.618 186.313C217.973 184.987 218.84 183.857 220.028 183.17C221.215 182.484 222.627 182.298 223.952 182.653V182.653Z"
              fill="#FFCA28" stroke="#39454B" stroke-width="1.5" stroke-linecap="round" stroke-linejoin="round"/>
        <path d="M200.498 73.2357C223.439 72.7548 242.427 90.9787 242.908 113.942C243.388 136.904 225.179 155.908 202.238 156.389C179.298 156.87 160.31 138.646 159.829 115.683C159.348 92.7205 177.557 73.7167 200.498 73.2357Z"
              fill="white" stroke="#39454B" stroke-width="1.5"/>
        <path d="M183.44 77.2929L183.441 77.2925C189.045 74.6086 195.179 73.2173 201.392 73.2211C207.605 73.2248 213.737 74.6236 219.338 77.3142C224.939 80.0049 229.866 83.919 233.755 88.7681C237.644 93.6173 240.396 99.278 241.81 105.333C243.223 111.389 243.261 117.684 241.922 123.756C240.582 129.828 237.898 135.522 234.067 140.418C230.237 145.314 225.358 149.288 219.791 152.046C214.954 154.443 209.704 155.869 204.336 156.254C210.938 151.113 215.913 144.143 218.626 136.186C221.607 127.442 221.697 117.969 218.884 109.17C216.07 100.37 210.502 92.7103 203.002 87.3229C196.182 82.4239 188.095 79.6407 179.744 79.2877C180.942 78.5623 182.175 77.8965 183.44 77.2929Z"
              fill="#FFCA28" stroke="#39454B" stroke-width="1.5"/>
        <path opacity="0.5"
              d="M183.44 77.2929L183.441 77.2925C189.045 74.6086 195.179 73.2173 201.392 73.2211C207.605 73.2248 213.737 74.6236 219.338 77.3142C224.939 80.0049 229.866 83.919 233.755 88.7681C237.644 93.6173 240.396 99.278 241.81 105.333C243.223 111.389 243.261 117.684 241.922 123.756C240.582 129.828 237.898 135.522 234.067 140.418C230.237 145.314 225.358 149.288 219.791 152.046C214.954 154.443 209.704 155.869 204.336 156.254C210.938 151.113 215.913 144.143 218.626 136.186C221.607 127.442 221.697 117.969 218.884 109.17C216.07 100.37 210.502 92.7103 203.002 87.3229C196.182 82.4239 188.095 79.6407 179.744 79.2877C180.942 78.5623 182.175 77.8965 183.44 77.2929Z"
              fill="white" stroke="#39454B" stroke-width="1.5"/>
        <path d="M243.657 113.926C243.168 90.5495 223.838 71.9962 200.482 72.4859C177.127 72.9755 158.59 92.3227 159.079 115.699C159.568 139.075 178.898 157.629 202.254 157.139C225.61 156.649 244.147 137.302 243.657 113.926Z"
              stroke="#39454B" stroke-width="1.5" stroke-linecap="round" stroke-linejoin="round"/>
        <path d="M239.312 86.0801L232.326 71.438" stroke="#39454B" stroke-width="1.5" stroke-linecap="round"
              stroke-linejoin="round"/>
        <path d="M247.739 103.985C247.08 104.299 246.366 104.481 245.636 104.519C244.907 104.557 244.178 104.451 243.489 104.206C242.801 103.962 242.168 103.584 241.626 103.094C241.084 102.605 240.644 102.013 240.33 101.353L235.707 91.7108C235.076 90.3751 234.999 88.8439 235.492 87.4515C235.986 86.0592 237.01 84.9189 238.341 84.2797V84.2797C238.999 83.9639 239.713 83.781 240.442 83.7416C241.171 83.7022 241.901 83.807 242.589 84.05C243.278 84.293 243.911 84.6694 244.454 85.1579C244.997 85.6463 245.439 86.237 245.754 86.8964L250.373 96.5537C251.008 97.8887 251.088 99.4216 250.594 100.815C250.1 102.209 249.073 103.349 247.739 103.985Z"
              fill="white" stroke="#39454B" stroke-width="1.5" stroke-linecap="round" stroke-linejoin="round"/>
        <path d="M352.003 198.422L352.006 198.423L352.03 198.431C352.053 198.439 352.09 198.45 352.139 198.465C352.237 198.493 352.382 198.533 352.564 198.574C352.931 198.655 353.435 198.738 353.99 198.747C355.102 198.765 356.295 198.49 357.1 197.474C358.309 195.475 358.922 193.172 358.865 190.836L358.858 190.554L359.038 190.338L359.615 190.818C359.291 190.141 359.291 190.141 359.291 190.141L359.291 190.141L359.297 190.138L359.324 190.125C359.349 190.113 359.387 190.093 359.437 190.066C359.538 190.014 359.684 189.933 359.862 189.828C360.219 189.615 360.694 189.304 361.173 188.91C362.162 188.094 363.014 187.045 363.099 185.878C363.117 185.635 363.071 185.276 362.925 184.786C362.782 184.303 362.556 183.737 362.252 183.095C361.644 181.811 360.749 180.281 359.67 178.609C357.514 175.269 354.663 171.431 352.002 167.993C351.034 166.741 349.632 164.863 347.915 162.562C347.261 161.686 346.561 160.748 345.822 159.761C343.14 156.177 339.934 151.925 336.505 147.526C329.638 138.717 321.905 129.359 315.694 123.591C304.414 113.115 290.525 112.004 280.987 111.242C280.128 111.173 279.305 111.107 278.521 111.037C273.927 110.629 268.027 111.337 262.832 112.821C260.238 113.562 257.843 114.49 255.891 115.553C253.936 116.617 252.485 117.784 251.69 118.978L251.68 118.995C251.666 119.02 251.644 119.059 251.616 119.111C251.559 119.216 251.476 119.372 251.373 119.575C251.167 119.983 250.881 120.578 250.569 121.324C249.943 122.817 249.216 124.899 248.802 127.26C247.972 131.986 248.404 137.725 253.267 142.209C255.708 144.46 259.48 146.247 263.848 147.65C268.199 149.048 273.067 150.04 277.635 150.742C282.201 151.443 286.451 151.851 289.56 152.083C291.114 152.199 292.382 152.271 293.26 152.315C293.699 152.336 294.041 152.351 294.273 152.36C294.388 152.364 294.476 152.367 294.535 152.369L294.602 152.371L294.618 152.372L294.622 152.372L294.623 152.372C294.623 152.372 294.623 152.372 294.601 153.122M352.003 198.422L350.272 197.813L351.074 199.445C351.075 199.447 351.076 199.45 351.077 199.454C351.084 199.474 351.098 199.517 351.11 199.581C351.135 199.708 351.159 199.924 351.123 200.223C351.051 200.814 350.736 201.789 349.618 203.081L349.612 203.088L349.606 203.095C349.092 203.72 348.369 204.138 347.572 204.272C346.774 204.406 345.955 204.246 345.266 203.823L344.184 203.159L344.125 204.427C344.073 205.526 343.671 206.579 342.978 207.432C342.285 208.286 341.337 208.894 340.274 209.169L340.265 209.171L340.257 209.173C339.256 209.457 338.723 209.407 338.345 209.214C337.934 209.005 337.531 208.541 336.994 207.569C336.645 206.936 336.278 206.167 335.829 205.224C335.591 204.724 335.33 204.176 335.036 203.574C334.198 201.857 333.121 199.763 331.622 197.273C328.64 192.319 326.228 189.463 324.417 188.092C323.523 187.415 322.674 187.021 321.91 187.031C321.509 187.036 321.132 187.154 320.818 187.396C320.509 187.635 320.307 187.958 320.185 188.303C320.057 188.665 320.022 189.1 320.021 189.525C320.021 189.965 320.058 190.464 320.113 190.99C320.174 191.576 320.264 192.246 320.355 192.929C320.423 193.439 320.493 193.957 320.552 194.453C320.695 195.656 320.79 196.805 320.735 197.748C320.677 198.738 320.462 199.286 320.2 199.519C319.294 200.323 317.81 200.986 316.415 200.547C315.059 200.121 313.415 198.531 312.448 193.975C311.487 189.447 311.762 185.203 312.135 181.607C312.189 181.084 312.246 180.571 312.301 180.07C312.434 178.87 312.558 177.747 312.619 176.749C312.703 175.343 312.673 174.051 312.302 173.022C312.108 172.482 311.671 171.768 311.119 170.977C310.555 170.167 309.825 169.215 308.993 168.181C307.329 166.114 305.235 163.693 303.186 161.389C301.136 159.084 299.127 156.888 297.63 155.27C296.881 154.46 296.261 153.795 295.827 153.332C295.611 153.1 295.441 152.919 295.325 152.796L295.192 152.655L295.158 152.619L295.149 152.61L295.147 152.607L295.147 152.607C295.147 152.607 295.146 152.607 294.601 153.122M352.003 198.422L352.003 198.422L352.002 198.422L352.002 198.422L352.003 198.422ZM294.601 153.122L294.623 152.372L294.933 152.381L295.146 152.607L294.601 153.122Z"
              fill="white" stroke="#39454B" stroke-width="1.5"/>
        <path d="M278.569 111.051L278.566 111.051C273.978 110.627 268.067 111.332 262.859 112.817C260.259 113.559 257.858 114.488 255.9 115.552C254.497 116.315 253.354 117.129 252.526 117.969C266.537 116.369 280.737 118.063 293.993 122.928C306.7 127.428 316.534 136.991 323.86 146.511C329.555 153.911 333.78 161.354 336.656 166.418C337.478 167.866 338.189 169.118 338.793 170.121L278.569 111.051ZM278.569 111.051C279.35 111.12 280.17 111.186 281.026 111.255C290.554 112.017 304.393 113.125 315.676 123.604C321.887 129.372 329.62 138.73 336.487 147.539C339.916 151.937 343.121 156.189 345.803 159.773C346.542 160.76 347.242 161.698 347.896 162.574C349.613 164.875 351.016 166.754 351.984 168.005C354.644 171.444 357.496 175.281 359.652 178.622C360.731 180.293 361.625 181.824 362.234 183.108C362.538 183.749 362.764 184.316 362.907 184.798C363.053 185.288 363.099 185.648 363.081 185.891C362.996 187.058 362.143 188.107 361.154 188.922C360.676 189.317 360.201 189.628 359.844 189.84C359.666 189.946 359.519 190.026 359.419 190.079C359.369 190.105 359.33 190.125 359.305 190.138L359.278 190.151L359.273 190.154L359.273 190.154C359.273 190.154 359.273 190.154 359.542 190.716M278.569 111.051L359.542 190.716M359.542 190.716L358.872 190.636L359.596 190.831L358.847 190.849C358.903 193.172 358.297 195.464 357.101 197.455C356.538 198.034 355.827 198.449 355.045 198.655C354.365 198.833 353.655 198.847 352.973 198.697C349.973 188.294 344.755 179.82 340.588 173.054C339.962 172.038 339.36 171.061 338.793 170.121L359.542 190.716Z"
              fill="#FFCA28" stroke="#39454B" stroke-width="1.5"/>
        <path opacity="0.5"
              d="M278.569 111.051L278.566 111.051C273.978 110.627 268.067 111.332 262.859 112.817C260.259 113.559 257.858 114.488 255.9 115.552C254.497 116.315 253.354 117.129 252.526 117.969C266.537 116.369 280.737 118.063 293.993 122.928C306.7 127.428 316.534 136.991 323.86 146.511C329.555 153.911 333.78 161.354 336.656 166.418C337.478 167.866 338.189 169.118 338.793 170.121L278.569 111.051ZM278.569 111.051C279.35 111.12 280.17 111.186 281.026 111.255C290.554 112.017 304.393 113.125 315.676 123.604C321.887 129.372 329.62 138.73 336.487 147.539C339.916 151.937 343.121 156.189 345.803 159.773C346.542 160.76 347.242 161.698 347.896 162.574C349.613 164.875 351.016 166.754 351.984 168.005C354.644 171.444 357.496 175.281 359.652 178.622C360.731 180.293 361.625 181.824 362.234 183.108C362.538 183.749 362.764 184.316 362.907 184.798C363.053 185.288 363.099 185.648 363.081 185.891C362.996 187.058 362.143 188.107 361.154 188.922C360.676 189.317 360.201 189.628 359.844 189.84C359.666 189.946 359.519 190.026 359.419 190.079C359.369 190.105 359.33 190.125 359.305 190.138L359.278 190.151L359.273 190.154L359.273 190.154C359.273 190.154 359.273 190.154 359.542 190.716M278.569 111.051L359.542 190.716M359.542 190.716L358.872 190.636L359.596 190.831L358.847 190.849C358.903 193.172 358.297 195.464 357.101 197.455C356.538 198.034 355.827 198.449 355.045 198.655C354.365 198.833 353.655 198.847 352.973 198.697C349.973 188.294 344.755 179.82 340.588 173.054C339.962 172.038 339.36 171.061 338.793 170.121L359.542 190.716Z"
              fill="white" stroke="#39454B" stroke-width="1.5"/>
        <path d="M251.051 118.585C251.051 118.585 242.514 133.314 252.759 142.76C263.003 152.206 294.601 153.122 294.601 153.122C294.601 153.122 310.335 169.779 311.597 173.276C312.858 176.774 309.742 184.836 311.715 194.131C313.688 203.426 318.682 201.871 320.698 200.08C322.714 198.288 320.213 190.472 320.892 188.554C321.571 186.635 325.043 187.798 330.98 197.66C336.916 207.522 336.17 211.109 340.461 209.895C341.68 209.58 342.766 208.883 343.56 207.905C344.355 206.928 344.815 205.721 344.874 204.463C345.717 204.98 346.72 205.175 347.696 205.012C348.672 204.848 349.556 204.337 350.185 203.572C352.578 200.806 351.754 199.13 351.754 199.13C351.754 199.13 355.696 200.518 357.718 197.901C359.017 195.771 359.675 193.312 359.615 190.818C359.615 190.818 363.631 188.902 363.847 185.933C364.064 182.964 357.923 174.421 352.595 167.534C347.267 160.647 328.724 134.669 316.205 123.042C303.685 111.414 287.997 111.127 278.587 110.29C269.177 109.454 254.611 113.188 251.051 118.585Z"
              stroke="#39454B" stroke-width="1.5" stroke-linecap="round" stroke-linejoin="round"/>
        <path d="M219.083 259.207L218.94 259.218L218.811 259.28C217.484 259.921 215.739 261.408 214.907 263.958C214.071 266.52 214.191 270.047 216.397 274.708C217.517 277.072 219.562 279.759 221.931 282.604C223.015 283.904 224.178 285.251 225.365 286.626C225.482 286.761 225.6 286.898 225.718 287.034C227.029 288.553 228.364 290.105 229.662 291.68C232.261 294.833 234.687 298.049 236.438 301.21C238.193 304.377 239.231 307.424 239.139 310.251C238.953 315.994 235.451 321.052 230.718 325.278C225.997 329.495 220.153 332.789 215.513 335.003C210.927 337.192 203.456 339.346 196.636 339.876C193.227 340.14 190.031 339.995 187.46 339.277C184.891 338.559 183.038 337.299 182.13 335.398C181.209 333.469 181.345 331.433 182.138 329.395C182.937 327.344 184.386 325.34 186 323.562C187.609 321.79 189.351 320.277 190.694 319.205C191.365 318.67 191.934 318.246 192.334 317.958C192.534 317.814 192.691 317.703 192.798 317.629C192.852 317.592 192.892 317.564 192.919 317.546L192.949 317.526L192.956 317.521L192.957 317.52L192.958 317.52L192.958 317.52L193.564 317.116L193.177 316.498L192.541 316.896C193.177 316.498 193.177 316.498 193.177 316.498L193.176 316.497L193.174 316.493L193.165 316.479L193.128 316.42C193.096 316.369 193.048 316.292 192.985 316.19C192.859 315.987 192.674 315.686 192.436 315.297C191.961 314.52 191.276 313.389 190.442 311.981C188.773 309.165 186.505 305.238 184.107 300.797C179.301 291.894 174.016 281 171.964 272.843C167.922 256.782 178.297 241.717 191.896 232.773C198.762 228.257 204.78 224.57 210.292 222.638C215.773 220.716 220.675 220.557 225.374 223.006C230.172 225.506 235.283 230.499 238.747 235.854C240.477 238.527 241.774 241.257 242.423 243.776C243.074 246.302 243.056 248.541 242.257 250.299C241.464 252.046 239.705 253.516 237.364 254.732C235.038 255.939 232.239 256.844 229.516 257.512C226.799 258.179 224.188 258.603 222.254 258.861C221.287 258.99 220.492 259.076 219.939 259.131C219.663 259.158 219.448 259.177 219.302 259.19C219.229 259.196 219.174 259.2 219.137 259.203L219.096 259.206L219.086 259.207L219.084 259.207L219.083 259.207Z"
              fill="white" stroke="#39454B" stroke-width="1.5"/>
        <path d="M223.374 222.43C223.11 222.225 222.858 222.034 222.621 221.86C223.583 222.149 224.516 222.53 225.408 222.997L225.409 222.998C230.207 225.498 235.318 230.491 238.782 235.847C240.512 238.52 241.809 241.25 242.458 243.768C243.109 246.294 243.091 248.534 242.292 250.292C241.499 252.039 239.74 253.509 237.399 254.724C235.073 255.932 232.274 256.836 229.551 257.505C226.834 258.171 224.223 258.596 222.289 258.853C221.322 258.982 220.527 259.069 219.974 259.123C219.698 259.151 219.483 259.17 219.337 259.182C219.264 259.188 219.209 259.193 219.172 259.196L219.131 259.199L219.121 259.199L219.119 259.2L219.118 259.2L218.977 259.21L218.849 259.271C217.517 259.906 215.769 261.416 214.933 263.984C214.093 266.564 214.204 270.115 216.412 274.777C217.531 277.141 219.576 279.829 221.945 282.675C223.029 283.978 224.193 285.326 225.381 286.703C225.498 286.837 225.614 286.972 225.731 287.108C227.041 288.627 228.377 290.18 229.675 291.755C232.273 294.909 234.699 298.125 236.451 301.286C238.206 304.453 239.245 307.498 239.154 310.321C238.969 316.058 235.496 321.108 230.795 325.327C226.106 329.534 220.296 332.823 215.658 335.037C212.807 336.327 209.849 337.366 206.82 338.142C209.046 335.27 211.148 332.305 213.123 329.253L213.124 329.251C216.849 323.452 220.246 315.902 221.008 307.947C221.773 299.968 219.881 291.585 213.037 284.223C209.673 280.605 206.597 277.815 204.006 275.494C203.827 275.334 203.651 275.177 203.477 275.022C201.116 272.91 199.23 271.222 197.898 269.62C196.485 267.921 195.771 266.403 195.774 264.685C195.777 262.937 196.521 260.848 198.335 258.019C201.826 252.576 206.869 251.619 212.503 250.701C212.648 250.677 212.794 250.653 212.94 250.629C218.411 249.741 224.366 248.775 229.126 243.222C231.592 240.347 232.318 237.428 231.954 234.674C231.594 231.955 230.182 229.475 228.523 227.407C226.859 225.333 224.904 223.62 223.374 222.43Z"
              fill="#FFCA28" stroke="#39454B" stroke-width="1.5"/>
        <path opacity="0.5"
              d="M223.374 222.43C223.11 222.225 222.858 222.034 222.621 221.86C223.583 222.149 224.516 222.53 225.408 222.997L225.409 222.998C230.207 225.498 235.318 230.491 238.782 235.847C240.512 238.52 241.809 241.25 242.458 243.768C243.109 246.294 243.091 248.534 242.292 250.292C241.499 252.039 239.74 253.509 237.399 254.724C235.073 255.932 232.274 256.836 229.551 257.505C226.834 258.171 224.223 258.596 222.289 258.853C221.322 258.982 220.527 259.069 219.974 259.123C219.698 259.151 219.483 259.17 219.337 259.182C219.264 259.188 219.209 259.193 219.172 259.196L219.131 259.199L219.121 259.199L219.119 259.2L219.118 259.2L218.977 259.21L218.849 259.271C217.517 259.906 215.769 261.416 214.933 263.984C214.093 266.564 214.204 270.115 216.412 274.777C217.531 277.141 219.576 279.829 221.945 282.675C223.029 283.978 224.193 285.326 225.381 286.703C225.498 286.837 225.614 286.972 225.731 287.108C227.041 288.627 228.377 290.18 229.675 291.755C232.273 294.909 234.699 298.125 236.451 301.286C238.206 304.453 239.245 307.498 239.154 310.321C238.969 316.058 235.496 321.108 230.795 325.327C226.106 329.534 220.296 332.823 215.658 335.037C212.807 336.327 209.849 337.366 206.82 338.142C209.046 335.27 211.148 332.305 213.123 329.253L213.124 329.251C216.849 323.452 220.246 315.902 221.008 307.947C221.773 299.968 219.881 291.585 213.037 284.223C209.673 280.605 206.597 277.815 204.006 275.494C203.827 275.334 203.651 275.177 203.477 275.022C201.116 272.91 199.23 271.222 197.898 269.62C196.485 267.921 195.771 266.403 195.774 264.685C195.777 262.937 196.521 260.848 198.335 258.019C201.826 252.576 206.869 251.619 212.503 250.701C212.648 250.677 212.794 250.653 212.94 250.629C218.411 249.741 224.366 248.775 229.126 243.222C231.592 240.347 232.318 237.428 231.954 234.674C231.594 231.955 230.182 229.475 228.523 227.407C226.859 225.333 224.904 223.62 223.374 222.43Z"
              fill="white" stroke="#39454B" stroke-width="1.5"/>
        <path d="M219.138 259.955C219.138 259.955 239.357 258.498 242.94 250.61C246.522 242.722 235.596 227.487 225.721 222.341C215.845 217.195 205.202 223.123 191.484 232.146C177.765 241.169 167.081 256.513 171.236 273.026C175.392 289.539 192.541 316.896 192.541 316.896C192.541 316.896 177.313 327.052 181.454 335.721C185.594 344.39 206.496 340.138 215.836 335.68C225.176 331.222 239.496 322.36 239.889 310.276C240.282 298.192 221.371 283.461 217.075 274.387C212.779 265.312 216.803 261.083 219.138 259.955Z"
              stroke="#39454B" stroke-width="1.5" stroke-linecap="round" stroke-linejoin="round"/>
        <path d="M179.146 292.615C185.376 305.268 192.661 316.88 192.661 316.88C192.661 316.88 177.433 327.037 181.573 335.706C185.714 344.375 206.616 340.123 215.956 335.664C225.296 331.206 239.496 322.362 239.888 310.278C240.242 299.39 224.803 286.385 218.73 277.28C206.379 284.352 193.035 289.521 179.146 292.615V292.615Z"
              stroke="#39454B" stroke-width="1.5" stroke-linecap="round" stroke-linejoin="round"/>
        <path d="M172.608 254.195C172.125 255.416 171.708 256.662 171.361 257.929C186.439 257.932 201.358 261.011 215.208 266.976C215.208 265.654 215.501 264.349 216.066 263.154C205.362 259.373 187.415 253.882 172.608 254.195Z"
              stroke="#39454B" stroke-width="1.5" stroke-linecap="round" stroke-linejoin="round"/>
        <path d="M198.948 251.98C200.135 254.489 200.553 257.294 200.148 260.041C199.743 262.788 198.534 265.353 196.673 267.412C194.812 269.471 192.383 270.932 189.693 271.609C187.003 272.287 184.172 272.151 181.559 271.22C178.946 270.288 176.667 268.601 175.011 266.374C173.356 264.146 172.397 261.477 172.256 258.705C172.115 255.932 172.798 253.179 174.22 250.795C175.642 248.411 177.737 246.502 180.243 245.31C181.908 244.517 183.714 244.061 185.555 243.967C187.397 243.873 189.24 244.144 190.977 244.763C192.714 245.383 194.312 246.339 195.68 247.577C197.048 248.816 198.158 250.312 198.948 251.98V251.98Z"
              fill="#FFCA28" stroke="#39454B" stroke-width="1.5" stroke-linecap="round" stroke-linejoin="round"/>
        <path d="M239.887 310.277C239.849 307.371 239.091 304.519 237.681 301.978C236.937 309.569 232.942 322.886 214.997 331.156C197.57 339.218 186.431 336.446 180.917 333.71C181.033 334.39 181.24 335.052 181.53 335.677C185.667 344.362 206.573 340.094 215.913 335.636C225.253 331.178 239.495 322.361 239.887 310.277Z"
              stroke="#39454B" stroke-width="1.5" stroke-linecap="round" stroke-linejoin="round"/>
        <path d="M293.967 239.995L293.967 239.995L293.893 240.116L293.869 240.255C293.611 241.715 293.849 244.035 295.462 246.219C297.085 248.418 300.042 250.403 305.089 251.298C307.646 251.751 311.008 251.639 314.689 251.355C316.358 251.226 318.109 251.061 319.898 250.892C320.092 250.873 320.286 250.855 320.481 250.837C322.475 250.648 324.511 250.46 326.543 250.315C330.614 250.025 334.636 249.913 338.223 250.319C341.817 250.725 344.896 251.645 347.139 253.357C351.697 256.835 353.783 262.601 354.481 268.886C355.176 275.157 354.473 281.808 353.586 286.87C352.709 291.872 350.126 299.213 346.597 305.078C344.832 308.011 342.857 310.531 340.779 312.208C338.702 313.884 336.6 314.66 334.525 314.292C332.417 313.918 330.838 312.623 329.64 310.792C328.434 308.95 327.645 306.607 327.136 304.26C326.628 301.922 326.408 299.626 326.316 297.91C326.27 297.054 326.257 296.345 326.254 295.852C326.253 295.606 326.254 295.414 326.256 295.284C326.257 295.219 326.258 295.17 326.259 295.137L326.26 295.101L326.26 295.093L326.26 295.091L326.26 295.091L326.26 295.091L326.283 294.362L325.555 294.318L325.511 295.067C325.555 294.318 325.555 294.318 325.555 294.318L325.554 294.318L325.55 294.318L325.533 294.317L325.464 294.313C325.403 294.309 325.312 294.303 325.192 294.295C324.953 294.28 324.6 294.256 324.145 294.224C323.234 294.159 321.914 294.06 320.28 293.921C317.012 293.644 312.491 293.211 307.478 292.585C297.428 291.331 285.487 289.314 277.684 286.265C262.32 280.263 256.033 263.051 256.717 246.793C257.403 230.487 260.648 221.314 268.394 213.705C273.689 208.538 280.598 207.301 286.752 208.286C292.949 209.279 298.195 212.489 300.197 215.97C301.151 217.628 301.321 219.912 300.947 222.523C300.576 225.116 299.684 227.919 298.646 230.522C297.61 233.12 296.439 235.491 295.525 237.214C295.069 238.075 294.678 238.773 294.402 239.254C294.263 239.495 294.154 239.681 294.08 239.807C294.042 239.87 294.014 239.918 293.995 239.949L293.973 239.985L293.968 239.993L293.967 239.995L293.967 239.995Z"
              fill="white" stroke="#39454B" stroke-width="1.5"/>
        <path d="M293.966 239.996L293.966 239.996L293.893 240.117L293.868 240.256C293.61 241.714 293.841 244.025 295.45 246.201C297.068 248.39 300.02 250.366 305.065 251.26C307.623 251.713 310.985 251.601 314.666 251.317C316.335 251.188 318.086 251.023 319.874 250.854C320.068 250.835 320.263 250.817 320.458 250.798C322.451 250.61 324.487 250.422 326.52 250.277C330.59 249.987 334.613 249.875 338.199 250.281C341.793 250.687 344.872 251.607 347.116 253.319C351.674 256.797 353.761 262.559 354.459 268.842C355.155 275.111 354.452 281.762 353.563 286.831C352.779 291.303 350.634 297.635 347.663 303.119C346.179 305.859 344.503 308.362 342.707 310.308C341.032 312.123 339.295 313.409 337.555 313.989C337.219 313.624 337.034 313.234 336.955 312.815C336.852 312.27 336.915 311.616 337.156 310.82C337.647 309.205 338.792 307.256 340.234 304.9C340.373 304.672 340.514 304.442 340.658 304.208C343.443 299.67 346.979 293.91 347.996 287.101C349.042 280.096 348.704 275.268 346.13 271.874C343.567 268.495 338.94 266.743 332.032 265.428C328.504 264.757 324.374 264.641 320.087 264.668C318.53 264.678 316.955 264.706 315.377 264.735C312.578 264.785 309.767 264.836 307.016 264.783C302.724 264.701 298.673 264.368 295.224 263.409C291.781 262.452 289 260.89 287.165 258.393C283.428 253.31 283.606 246.679 284.945 239.679C285.475 236.91 286.176 234.127 286.866 231.392C287.045 230.681 287.223 229.975 287.397 229.272C288.237 225.883 288.984 222.592 289.23 219.621C289.728 213.605 287.786 210.289 285.572 208.505C285.39 208.358 285.207 208.222 285.024 208.097C287.798 208.338 290.459 209.043 292.794 210.061C296.241 211.563 298.9 213.713 300.196 215.971L300.196 215.971C301.15 217.629 301.32 219.913 300.946 222.524C300.575 225.117 299.683 227.92 298.645 230.523C297.609 233.121 296.438 235.492 295.524 237.216C295.068 238.077 294.677 238.774 294.401 239.255C294.263 239.496 294.153 239.683 294.079 239.808C294.041 239.871 294.013 239.919 293.994 239.95L293.973 239.986L293.967 239.994L293.966 239.996L293.966 239.996Z"
              fill="#FFCA28" stroke="#39454B" stroke-width="1.5"/>
        <path opacity="0.5"
              d="M293.966 239.996L293.966 239.996L293.893 240.117L293.868 240.256C293.61 241.714 293.841 244.025 295.45 246.201C297.068 248.39 300.02 250.366 305.065 251.26C307.623 251.713 310.985 251.601 314.666 251.317C316.335 251.188 318.086 251.023 319.874 250.854C320.068 250.835 320.263 250.817 320.458 250.798C322.451 250.61 324.487 250.422 326.52 250.277C330.59 249.987 334.613 249.875 338.199 250.281C341.793 250.687 344.872 251.607 347.116 253.319C351.674 256.797 353.761 262.559 354.459 268.842C355.155 275.111 354.452 281.762 353.563 286.831C352.779 291.303 350.634 297.635 347.663 303.119C346.179 305.859 344.503 308.362 342.707 310.308C341.032 312.123 339.295 313.409 337.555 313.989C337.219 313.624 337.034 313.234 336.955 312.815C336.852 312.27 336.915 311.616 337.156 310.82C337.647 309.205 338.792 307.256 340.234 304.9C340.373 304.672 340.514 304.442 340.658 304.208C343.443 299.67 346.979 293.91 347.996 287.101C349.042 280.096 348.704 275.268 346.13 271.874C343.567 268.495 338.94 266.743 332.032 265.428C328.504 264.757 324.374 264.641 320.087 264.668C318.53 264.678 316.955 264.706 315.377 264.735C312.578 264.785 309.767 264.836 307.016 264.783C302.724 264.701 298.673 264.368 295.224 263.409C291.781 262.452 289 260.89 287.165 258.393C283.428 253.31 283.606 246.679 284.945 239.679C285.475 236.91 286.176 234.127 286.866 231.392C287.045 230.681 287.223 229.975 287.397 229.272C288.237 225.883 288.984 222.592 289.23 219.621C289.728 213.605 287.786 210.289 285.572 208.505C285.39 208.358 285.207 208.222 285.024 208.097C287.798 208.338 290.459 209.043 292.794 210.061C296.241 211.563 298.9 213.713 300.196 215.971L300.196 215.971C301.15 217.629 301.32 219.913 300.946 222.524C300.575 225.117 299.683 227.92 298.645 230.523C297.609 233.121 296.438 235.492 295.524 237.216C295.068 238.077 294.677 238.774 294.401 239.255C294.263 239.496 294.153 239.683 294.079 239.808C294.041 239.871 294.013 239.919 293.994 239.95L293.973 239.986L293.967 239.994L293.966 239.996L293.966 239.996Z"
              fill="white" stroke="#39454B" stroke-width="1.5"/>
        <path d="M294.607 240.386C294.607 240.386 305.154 223.086 300.847 215.597C296.54 208.107 278.875 202.427 267.869 213.17C259.932 220.965 256.658 230.357 255.968 246.761C255.278 263.165 261.614 280.792 277.412 286.964C293.21 293.136 325.511 295.067 325.511 295.067C325.511 295.067 324.928 313.352 334.394 315.031C343.859 316.709 352.539 297.188 354.325 286.999C356.111 276.81 357.186 260.08 347.594 252.761C338.003 245.442 315.032 252.298 305.219 250.559C295.406 248.82 294.158 242.928 294.607 240.386Z"
              stroke="#39454B" stroke-width="1.5" stroke-linecap="round" stroke-linejoin="round"/>
        <path d="M262.985 274.99C263.694 276.088 264.465 277.146 265.293 278.157C274.058 265.905 285.209 255.557 298.076 247.734C297.032 246.965 296.169 245.977 295.546 244.839C286.142 251.265 271.248 262.702 262.985 274.99Z"
              stroke="#39454B" stroke-width="1.5" stroke-linecap="round" stroke-linejoin="round"/>
        <path d="M288.024 265.45C287.691 257.692 281.138 251.674 273.387 252.007C265.637 252.34 259.624 258.899 259.957 266.656C260.29 274.414 266.843 280.432 274.593 280.099C282.344 279.765 288.357 273.207 288.024 265.45Z"
              fill="#FFCA28" stroke="#39454B" stroke-width="1.5" stroke-linecap="round" stroke-linejoin="round"/>
        <path d="M187.848 96.4111C181.409 99.0521 174.794 101.24 168.05 102.96C165.275 109.62 164.559 116.959 165.993 124.03C167.427 131.101 170.945 137.579 176.095 142.629C181.244 147.679 187.787 151.068 194.88 152.358C201.972 153.649 209.289 152.782 215.884 149.87C222.48 146.957 228.051 142.133 231.88 136.02C235.709 129.906 237.62 122.784 237.364 115.574C237.109 108.363 234.7 101.394 230.449 95.5673C226.197 89.7404 220.299 85.3227 213.514 82.8846C205.429 88.2365 196.832 92.7678 187.848 96.4111V96.4111Z"
              fill="#263238" stroke="#39454B" stroke-width="1.5" stroke-linecap="round" stroke-linejoin="round"/>
        <path d="M205.605 97.3958L205.617 97.3901L205.629 97.384C206.846 96.7492 208.177 96.3614 209.544 96.2426C210.911 96.1238 212.289 96.2765 213.597 96.6918C214.905 97.1072 216.118 97.777 217.167 98.6629C218.216 99.5488 219.08 100.633 219.709 101.854L220.375 101.511L219.721 101.878C220.786 103.775 221.255 105.95 221.068 108.118C220.882 110.287 220.048 112.349 218.675 114.037C217.302 115.724 215.454 116.96 213.371 117.583C211.288 118.205 209.065 118.186 206.993 117.528C204.921 116.87 203.094 115.604 201.75 113.893C200.406 112.182 199.607 110.106 199.458 107.935C199.308 105.764 199.814 103.598 200.911 101.718C202.007 99.8385 203.643 98.3325 205.605 97.3958Z"
              fill="white" stroke="#39454B" stroke-width="1.5"/>
        <path d="M187.266 105.135L187.266 105.135L187.269 105.133C187.904 104.836 188.631 104.801 189.293 105.034C189.954 105.267 190.499 105.75 190.809 106.38L191.481 106.049L190.81 106.383C191.049 106.864 191.14 107.406 191.07 107.939C191 108.472 190.772 108.972 190.417 109.375C190.061 109.778 189.594 110.066 189.074 110.201C188.554 110.336 188.006 110.313 187.5 110.135C186.993 109.957 186.551 109.631 186.231 109.2C185.91 108.769 185.726 108.251 185.7 107.714C185.675 107.177 185.811 106.645 186.09 106.185C186.368 105.726 186.778 105.36 187.266 105.135Z"
              fill="white" stroke="#39454B" stroke-width="1.5"/>
    </g>
    <defs>
        <clipPath id="clip0_2305_17377">
            <rect width="235" height="341.686" fill="white" transform="translate(43 37)"/>
        </clipPath>
    </defs>
</svg>
