<svg width="159" height="228" viewBox="0 0 159 228" fill="none" xmlns="http://www.w3.org/2000/svg">
    <g clip-path="url(#clip0_2031_23622)">
        <path d="M42.0386 139.889L124.074 166.496C128.301 167.885 132.861 165.552 134.252 161.33L140.926 140.833C142.316 136.612 139.98 132.057 135.753 130.668L53.6625 104.062C49.4357 102.673 44.875 105.006 43.4846 109.227L36.8106 129.724C35.4758 133.946 37.8117 138.501 42.0386 139.889Z"
              fill="#FFCA28"/>
        <path d="M53.7736 107.061L133.973 133.057C138.756 134.612 141.37 139.723 139.813 144.5L134.641 160.386C133.083 165.163 127.967 167.774 123.184 166.218L42.9839 140.167C38.2008 138.612 35.5868 133.501 37.1441 128.724L42.3165 112.838C43.8737 108.117 48.9905 105.506 53.7736 107.061Z"
              fill="#D8AA06"/>
        <path d="M140.648 141.833C140.648 141.833 164.396 146.888 146.877 180.105L141.871 171.55C141.871 171.55 147.711 158.886 143.428 154.72C139.146 150.554 137.7 151.054 137.7 151.054L140.648 141.833Z"
              fill="#D8AA06"/>
        <path d="M25.5757 164.44L7.05518 245.594L91.0369 269.979L112.95 216.487L129.468 163.163L42.8169 132.89L25.5757 164.44Z"
              fill="white"/>
        <path d="M43.2065 110.227C43.2065 110.227 21.0153 100.395 15.6761 137.556L24.7417 133.557C24.7417 133.557 27.4669 119.892 33.4179 119.059C39.369 118.226 40.2032 119.448 40.2032 119.448L43.2065 110.227Z"
              fill="#CACACA"/>
        <path d="M131.971 134.556C134.53 126.613 134.863 118.17 132.583 110.616C129.635 100.895 122.516 89.397 105.553 83.8979C90.4253 79.0098 78.4676 84.1756 70.57 90.1746C64.2297 94.9517 59.4466 102.062 56.8326 110.06L56.2764 111.838C53.6068 120.114 53.3843 129.002 55.9427 136.778C58.9461 145.888 65.6757 156.331 80.4698 161.108C95.3752 165.94 107.611 161.552 116.009 156.108C123.351 151.22 129.024 143.499 131.971 134.556Z"
              fill="white"/>
        <path d="M81.3042 161.331C79.6357 159.164 78.4678 156.998 77.9672 155.165C77.2998 152.665 77.2998 148.777 79.302 147.333C82.0829 145.333 86.1985 149.777 92.4833 151.11C102.772 153.332 114.452 146.444 120.737 138.334C127.578 129.502 127.633 119.726 127.689 116.282C127.8 104.895 122.795 96.6189 123.573 96.2856C124.296 96.0079 128.189 102.785 131.248 110.561C132.416 113.616 133.362 116.449 134.085 119.004C134.363 124.17 133.64 129.447 132.027 134.557C129.135 143.5 123.462 151.221 116.065 156.054C107.722 161.442 95.8203 165.719 81.3042 161.331Z"
              fill="url(#paint0_linear_2031_23622)"/>
        <path d="M124.241 129.613C125.909 124.503 125.854 118.948 123.963 113.949C121.516 107.45 115.843 99.729 103.106 95.6186C91.7604 91.9525 83.0841 94.952 77.4112 98.6181C72.8506 101.562 69.5135 106.061 67.845 111.227L67.4557 112.394C65.7316 117.726 65.8428 123.559 68.0119 128.724C70.5146 134.779 75.7983 141.833 86.9217 145.444C98.1007 149.054 106.999 146.61 113.117 143.278C118.345 140.278 122.35 135.39 124.241 129.613Z"
              fill="#263238"/>
        <path d="M44.0961 131.556C44.0961 131.556 49.3241 126.502 52.0493 120.836L49.1016 133.556L44.0961 131.556Z"
              fill="white"/>
        <path d="M57.0549 119.781C56.4987 121.281 56.2763 122.892 56.165 124.558C56.0538 126.169 56.2207 127.836 56.4987 129.446C56.8324 131.057 57.4442 132.613 58.2229 134.057C59.0572 135.501 60.1695 136.723 61.4487 137.667C60.5032 136.334 59.669 135.057 59.0572 133.612C58.9459 133.446 58.8903 133.279 58.8347 133.057L58.6122 132.501C58.4454 132.168 58.3341 131.779 58.2229 131.39C58.1117 131.002 58.0004 130.668 57.8892 130.28L57.6111 129.169C57.2774 127.669 57.1106 126.114 56.9993 124.558C57.0549 122.947 57.0549 121.392 57.0549 119.781Z"
              fill="#9BA4A8"/>
        <path d="M125.353 141.888C124.463 143.221 123.517 144.498 122.516 145.665C121.515 146.887 120.458 147.998 119.29 149.053L118.4 149.831C118.122 150.053 117.789 150.275 117.455 150.553C117.177 150.831 116.843 150.997 116.509 151.219L116.009 151.553C115.842 151.664 115.675 151.775 115.508 151.83C114.174 152.608 112.727 153.164 111.17 153.664C112.783 153.664 114.396 153.33 115.898 152.664C117.399 151.997 118.79 151.053 120.013 149.997C121.237 148.887 122.294 147.609 123.183 146.276C124.129 144.887 124.908 143.443 125.353 141.888Z"
              fill="#263238"/>
        <path d="M41.9829 174.883C41.9829 174.883 7.33352 161.274 15.1755 125.89C15.1755 125.89 46.6547 119.78 54.0518 123.946C54.0518 123.891 64.9528 162.773 41.9829 174.883Z"
              fill="white"/>
        <path d="M15.175 125.891C15.175 125.891 8.44536 85.6193 14.1183 79.1759L45.0414 78.2871C45.0414 78.2871 54.8856 114.059 54.107 123.891C54.0514 123.891 41.3707 120.28 15.175 125.891Z"
              fill="white"/>
        <path d="M14.1189 79.121L31.7495 78.6211C36.1432 80.7319 40.1477 84.0091 42.8173 87.8974C46.9886 93.8964 49.825 104.006 45.6537 109.283C42.7616 112.949 37.5893 112.838 37.5337 114.837C37.478 117.893 49.2689 119.448 49.1576 121.725C48.9908 124.336 33.5848 125.447 33.6405 126.78C33.6961 127.947 45.3757 125.78 50.9374 131.779C55.1086 136.334 53.8295 143.388 53.5514 147.11C51.2155 175.494 92.2052 198.935 86.5323 208.489C82.8059 214.877 64.2855 205.045 56.0541 214.044C48.3234 222.487 59.6692 236.596 53.7182 245.372C50.6593 249.927 43.2066 252.649 33.8629 253.371L6.99987 245.594L25.576 164.441L25.9097 163.885C18.1233 156.053 11.2824 143.777 15.2312 125.891C15.1756 125.891 8.44593 85.5644 14.1189 79.121ZM15.3981 125.836C15.3424 125.836 15.3424 125.836 15.2868 125.836C15.2868 125.836 15.3424 125.836 15.3981 125.836ZM18.6795 125.114C18.6238 125.114 18.457 125.169 18.2901 125.169C18.457 125.169 18.5682 125.169 18.6795 125.114ZM18.1233 125.225C18.012 125.225 17.9008 125.28 17.7896 125.28C17.9008 125.28 18.012 125.28 18.1233 125.225ZM17.3446 125.391C17.289 125.391 17.289 125.391 17.2334 125.391C17.289 125.447 17.3446 125.391 17.3446 125.391ZM16.7329 125.558C16.3435 125.614 15.8986 125.725 15.3981 125.836C15.6761 125.78 16.1767 125.669 16.7329 125.558Z"
              fill="url(#paint1_linear_2031_23622)"/>
        <path d="M126.855 157.553C126.855 157.553 92.6502 179.716 108.779 215.988C108.779 215.988 143.874 215.71 150.937 209.655C150.937 209.655 154.163 165.607 126.855 157.553Z"
              fill="white"/>
        <path d="M51.2709 184.549C63.9516 191.215 77.689 195.658 91.8713 197.714L99.0459 175.662L94.4297 173.44C84.1405 168.552 73.2396 165.052 62.0606 163.108L58.4455 162.497L51.2709 184.549Z"
              fill="#263238"/>
        <path d="M142.705 265.314C142.705 265.314 154.996 227.431 147.655 211.434L110.836 216.322C110.836 216.322 105.497 250.039 108.056 260.537C108 260.537 113.45 263.647 142.705 265.314Z"
              fill="white"/>
        <path d="M103.05 95.618C127.577 103.561 125.798 124.78 125.798 124.78L125.13 126.835C125.13 126.835 126.91 105.616 102.383 97.6732C80.859 90.6743 68.9013 107.838 68.9013 107.838L69.5687 105.783C69.5687 105.783 81.5264 88.6191 103.05 95.618Z"
              fill="white"/>
        <path d="M125.798 124.781C126.02 118.282 123.851 111.727 119.902 106.45C117.9 103.84 115.453 101.562 112.728 99.6737C110.003 97.7851 106.999 96.3964 103.94 95.2855C100.881 94.1746 97.6001 93.4525 94.263 93.3414C90.9816 93.2303 87.6446 93.7302 84.5301 94.7856C81.4155 95.841 78.5234 97.5074 75.9094 99.507C73.351 101.507 71.0151 103.784 68.9573 106.339C71.2376 104.006 73.6291 101.84 76.2987 100.007C78.9127 98.1739 81.8048 96.6742 84.8637 95.7299C87.9227 94.7856 91.0929 94.3412 94.263 94.5078C97.4332 94.6745 100.603 95.341 103.607 96.452C106.61 97.5074 109.558 98.896 112.172 100.674C113.507 101.562 114.786 102.507 115.954 103.617C117.122 104.728 118.234 105.839 119.235 107.117C121.237 109.617 122.85 112.394 123.963 115.449C125.019 118.337 125.687 121.559 125.798 124.781Z"
              fill="#263238"/>
        <path d="M64.7859 119.003C64.2853 125.391 66.3988 132.056 70.4588 137.111C71.4599 138.389 72.5723 139.611 73.8515 140.666C74.1296 140.944 74.4633 141.222 74.797 141.444C75.1307 141.721 75.4087 141.944 75.7424 142.221C76.4098 142.666 77.0773 143.166 77.7447 143.61C80.5255 145.332 83.4732 146.721 86.5878 147.72C89.7023 148.72 92.9281 149.387 96.2095 149.498C99.4909 149.609 102.772 149.22 105.887 148.276C109.001 147.332 111.949 145.887 114.619 143.999C117.233 142.11 119.624 139.888 121.682 137.389C117.288 142.055 111.782 145.665 105.664 147.332C99.5466 148.998 92.9837 148.554 87.0327 146.554C84.0294 145.554 81.1373 144.277 78.4121 142.61C75.6868 140.999 73.2953 138.889 71.2375 136.5C69.1796 134.112 67.6224 131.334 66.51 128.335C65.3977 125.391 64.7859 122.169 64.7859 119.003Z"
              fill="#263238"/>
        <path d="M76.6252 106.391C75.7167 102.131 79.8756 97.6354 85.9144 96.351C91.9531 95.0665 97.5851 97.4794 98.4936 101.74C99.4022 106.001 95.2433 110.496 89.2045 111.781C83.1657 113.065 77.5338 110.652 76.6252 106.391Z"
              fill="white"/>
        <path d="M122.906 98.5623C123.351 98.2846 123.128 97.1737 122.405 96.0627C121.682 94.9518 120.737 94.2852 120.347 94.5074C119.902 94.7852 120.125 95.8961 120.848 97.007C121.571 98.1735 122.516 98.8401 122.906 98.5623Z"
              fill="#9BA4A8"/>
        <path d="M110.447 87.3965C108.167 85.8967 105.553 84.8413 102.939 84.0081C100.269 83.2305 97.5441 82.7305 94.7633 82.6194C93.3728 82.5639 91.9824 82.6194 90.592 82.7305C89.2016 82.8972 87.8111 83.1194 86.4763 83.4526C83.8067 84.1192 81.1927 85.2857 78.9124 86.7854C81.4708 85.7301 84.0292 84.8413 86.6988 84.3414C89.3684 83.8415 92.038 83.6193 94.7076 83.7304C97.3773 83.8415 100.047 84.2303 102.716 84.7858C105.33 85.5634 107.889 86.3411 110.447 87.3965Z"
              fill="#9BA4A8"/>
        <path d="M58.2233 113.061C57.8896 113.338 57.7227 113.616 57.5559 113.894C57.3891 114.171 57.2778 114.505 57.2222 114.838C57.1666 115.171 57.111 115.505 57.111 115.838C57.111 116.171 57.1666 116.504 57.3891 116.893C57.7227 116.616 57.8896 116.338 58.0564 116.005C58.2233 115.727 58.3345 115.394 58.3901 115.116C58.4457 114.782 58.5013 114.505 58.4457 114.171C58.4457 113.783 58.3901 113.449 58.2233 113.061Z"
              fill="#9BA4A8"/>
        <path d="M74.4077 89.4531C72.5723 90.453 70.9038 91.7305 69.3466 93.1748C67.7893 94.5634 66.3988 96.1743 65.1196 97.8407C64.7859 98.2295 64.5079 98.6739 64.1742 99.1182C63.8961 99.5626 63.5624 99.9514 63.2843 100.451C62.7281 101.34 62.172 102.229 61.727 103.173C60.7815 105.006 60.0585 107.006 59.5023 109.006C60.5034 107.172 61.4489 105.339 62.5613 103.618C63.618 101.84 64.7859 100.174 66.0095 98.5628C67.2331 96.8964 68.5679 95.3411 69.9583 93.8413C71.4044 92.3415 72.8504 90.8418 74.4077 89.4531Z"
              fill="#9BA4A8"/>
        <path d="M135.865 215.044C136.198 215.21 136.476 215.266 136.81 215.321C137.088 215.321 137.422 215.321 137.7 215.266C137.978 215.21 138.256 215.099 138.534 214.933C138.812 214.766 139.035 214.599 139.257 214.266C138.924 214.099 138.59 214.044 138.312 213.988C138.034 213.988 137.756 213.988 137.478 214.044C137.199 214.099 136.921 214.21 136.699 214.377C136.31 214.544 136.087 214.71 135.865 215.044Z"
              fill="#9BA4A8"/>
        <path d="M107.667 215.377C109.614 215.932 111.671 216.321 113.674 216.543C115.732 216.821 117.734 216.932 119.792 216.932C120.793 216.932 121.849 216.932 122.85 216.877C123.852 216.821 124.908 216.766 125.909 216.655C127.967 216.488 129.969 216.099 131.972 215.599C129.914 215.599 127.912 215.71 125.854 215.71C123.852 215.71 121.794 215.766 119.792 215.71C117.789 215.71 115.732 215.655 113.729 215.544L107.667 215.377Z"
              fill="#9BA4A8"/>
        <path d="M42.9282 125.669C43.2619 125.835 43.54 125.891 43.8737 125.946C44.1518 125.946 44.4855 125.946 44.7636 125.891C45.0416 125.835 45.3197 125.724 45.5978 125.558C45.8759 125.391 46.0983 125.224 46.3208 124.891C45.9871 124.724 45.6534 124.669 45.3753 124.613C45.0972 124.613 44.8192 124.613 44.5411 124.669C44.263 124.724 43.9849 124.835 43.7624 125.002C43.4287 125.169 43.1507 125.335 42.9282 125.669Z"
              fill="#263238"/>
        <path d="M14.7306 126.058C16.6771 126.613 18.735 127.002 20.7372 127.224C22.795 127.502 24.7972 127.613 26.855 127.613C27.8562 127.613 28.9129 127.613 29.914 127.557C30.9151 127.502 31.9718 127.446 32.9729 127.335C35.0307 127.169 37.0329 126.78 39.0352 126.28C36.9773 126.28 34.9751 126.391 32.9173 126.391C30.9151 126.391 28.8573 126.446 26.855 126.391C24.8528 126.391 22.795 126.335 20.7928 126.224L14.7306 126.058Z"
              fill="#263238"/>
        <path d="M38.3119 200.323C38.5344 200.601 38.8125 200.768 39.0905 200.934C39.3686 201.045 39.6467 201.156 39.9248 201.212C40.2029 201.267 40.481 201.267 40.8147 201.212C41.0928 201.156 41.4265 201.101 41.7046 200.879C41.4821 200.601 41.204 200.434 40.9259 200.268C40.6478 200.157 40.3698 200.045 40.0917 199.99C39.8136 199.934 39.5355 199.934 39.2574 199.99C38.9793 200.045 38.6456 200.157 38.3119 200.323Z"
              fill="#263238"/>
        <path d="M23.1844 195.102C25.0754 195.879 26.9108 196.601 28.8017 197.379C30.6927 198.101 32.5837 198.768 34.5303 199.545C32.4724 199.268 30.4702 198.879 28.5236 198.268C27.5225 197.99 26.5771 197.657 25.576 197.324C24.6305 196.99 23.6294 196.601 22.6839 196.213C21.3491 195.657 20.0142 195.046 18.6794 194.38L18.9019 193.324C20.4036 193.935 21.794 194.546 23.1844 195.102Z"
              fill="#263238"/>
        <path d="M84.5859 193.602C84.8083 193.88 85.0864 194.047 85.3645 194.158C85.6426 194.269 85.9207 194.38 86.1988 194.38C86.4769 194.436 86.7549 194.436 87.0886 194.38C87.3667 194.324 87.7004 194.213 87.9785 193.991C87.7004 193.713 87.478 193.547 87.1999 193.436C86.9218 193.325 86.6437 193.214 86.3656 193.214C86.0875 193.158 85.8095 193.158 85.5314 193.214C85.1977 193.325 84.9196 193.436 84.5859 193.602Z"
              fill="#9BA4A8"/>
        <path d="M58.0012 184.271C59.6697 185.493 61.4494 186.492 63.2848 187.437C65.1202 188.381 67.0111 189.214 68.9021 189.936C69.8476 190.325 70.8487 190.603 71.7942 190.936C72.7953 191.214 73.7408 191.547 74.7419 191.769C76.7441 192.269 78.7464 192.658 80.8042 192.88C78.8576 192.158 76.9666 191.547 75.02 190.881C73.129 190.214 71.1824 189.547 69.2914 188.77C67.4005 188.048 65.5095 187.326 63.6185 186.548L58.0012 184.271Z"
              fill="#9BA4A8"/>
        <path d="M64.4526 166.441C64.1746 166.107 63.8965 165.941 63.5628 165.774C63.2291 165.607 62.951 165.496 62.6173 165.441C62.2836 165.385 61.9499 165.33 61.6162 165.385C61.2825 165.441 60.9488 165.496 60.5594 165.663C60.8375 165.996 61.1712 166.163 61.4493 166.33C61.783 166.496 62.0611 166.607 62.3948 166.663C62.7285 166.718 63.0622 166.718 63.3959 166.718C63.7296 166.718 64.0633 166.607 64.4526 166.441Z"
              fill="#9BA4A8"/>
        <path d="M96.3208 177.106C94.2074 175.884 92.0383 174.828 89.8136 173.828C87.5889 172.829 85.3086 171.94 83.0283 171.162C81.8604 170.773 80.748 170.385 79.5801 169.996C78.4121 169.662 77.2442 169.274 76.0762 168.996C73.7403 168.385 71.3488 167.829 68.9016 167.496C71.1819 168.329 73.4622 169.107 75.7981 169.885C78.0784 170.662 80.3587 171.44 82.639 172.273C87.144 173.884 91.7046 175.55 96.3208 177.106Z"
              fill="#9BA4A8"/>
        <path d="M126.854 157.553C126.854 157.553 119.346 152.498 112.283 155.387L111.17 158.775L122.461 163.663L126.854 157.553Z"
              fill="white"/>
        <path d="M121.126 157.609C118.345 158.72 115.397 159.109 112.45 159.331C111.004 159.442 109.502 159.497 108.056 159.497L105.831 159.442L103.607 159.331C102.884 159.275 102.161 159.22 101.382 159.109C100.659 159.053 99.9359 158.997 99.2129 158.886L97.0438 158.553C96.3208 158.442 95.5977 158.331 94.8747 158.22C93.4287 157.942 91.9826 157.72 90.5366 157.387C89.0905 157.053 87.6445 156.776 86.2541 156.387C84.8636 155.998 83.4176 155.72 82.0272 155.22L79.9137 154.554C79.1907 154.332 78.5789 153.998 77.8559 153.776C75.075 152.776 72.5167 151.388 69.9583 149.943C67.4555 148.444 65.064 146.722 62.8949 144.722C60.7258 142.722 58.7236 140.556 57.222 137.945C58.3899 140.723 60.2253 143.111 62.2831 145.333C64.341 147.499 66.6769 149.443 69.2353 151.11C74.2964 154.443 79.9693 156.72 85.8091 158.164C91.6489 159.608 97.6 160.553 103.607 160.719C106.61 160.83 109.613 160.664 112.617 160.219C114.118 159.997 115.564 159.664 117.01 159.275C118.456 158.831 119.847 158.331 121.126 157.609Z"
              fill="#263238"/>
        <path d="M117.566 133.001C117.566 133.001 116.343 135.334 112.728 136.556Z" fill="white"/>
        <path d="M115.397 132.835C115.397 132.835 114.174 135.168 110.559 136.39Z" fill="white"/>
        <path d="M111.671 133.113C111.671 133.113 110.837 134.669 108.39 135.502Z" fill="white"/>
        <path d="M71.5156 121.003C71.5156 121.003 69.4022 119.393 68.7904 115.671Z" fill="white"/>
        <path d="M72.0713 118.947C72.0713 118.947 69.9578 117.336 69.346 113.614Z" fill="white"/>
        <path d="M72.4053 115.17C72.4053 115.17 71.0148 114.115 70.5699 111.56Z" fill="white"/>
        <path d="M126.187 127.502C127.188 122.725 126.91 113.282 119.735 104.339C115.564 99.1176 112.616 96.4514 100.214 91.6188C100.047 91.5633 117.066 95.1182 124.908 107.45C132.36 119.114 126.131 127.891 126.187 127.502Z"
              fill="#9BA4A8"/>
        <path d="M81.8604 91.8971C81.3598 91.7861 80.9149 91.8416 80.5256 91.8971C80.0806 91.9527 79.6913 92.0638 79.302 92.2304C78.9127 92.3971 78.5233 92.6193 78.1896 92.8414C77.8559 93.1192 77.5223 93.3969 77.2442 93.8413C77.7447 93.8968 78.134 93.7857 78.579 93.7302C78.9683 93.6191 79.3576 93.508 79.7469 93.3414C80.1362 93.1747 80.4699 93.0081 80.8593 92.7859C81.193 92.5082 81.5267 92.2304 81.8604 91.8971Z"
              fill="#263238"/>
        <path d="M124.352 106.616C122.405 103.561 119.902 100.84 117.066 98.5622C114.229 96.2848 111.003 94.4518 107.611 93.0075C104.274 91.6189 100.714 90.4524 97.0436 90.008C93.4285 89.5637 89.7021 89.7303 86.1983 90.7301C89.8134 90.3413 93.4285 90.4524 96.9323 91.0634C97.8222 91.2301 98.6565 91.3967 99.5464 91.6189C100.436 91.8411 101.27 92.0633 102.105 92.2854C103.829 92.8409 105.497 93.3964 107.166 94.0629C110.447 95.4516 113.617 97.118 116.51 99.2288C119.457 101.34 122.071 103.784 124.352 106.616Z"
              fill="#263238"/>
        <path d="M108.945 150.886C109.446 150.997 109.891 150.942 110.28 150.886C110.725 150.83 111.114 150.719 111.504 150.553C111.893 150.386 112.282 150.164 112.616 149.942C112.95 149.664 113.283 149.386 113.562 148.942C113.061 148.886 112.672 148.997 112.227 149.053C111.837 149.164 111.448 149.275 111.059 149.442C110.669 149.608 110.336 149.775 109.946 149.997C109.557 150.275 109.223 150.497 108.945 150.886Z"
              fill="#263238"/>
        <path d="M66.3979 136.166C68.3445 139.221 70.8473 141.943 73.6838 144.22C76.5202 146.498 79.746 148.331 83.1387 149.775C86.4757 151.164 90.0352 152.33 93.7059 152.774C97.321 153.219 101.047 153.052 104.551 152.052C100.936 152.441 97.321 152.33 93.8172 151.719C92.9273 151.552 92.093 151.386 91.2032 151.164C90.3133 150.941 89.479 150.719 88.6448 150.497C86.9206 149.942 85.2521 149.386 83.5836 148.72C80.3022 147.331 77.132 145.664 74.2399 143.554C71.3478 141.443 68.6782 138.999 66.3979 136.166Z"
              fill="#263238"/>
        <path d="M99.1016 107.838C98.601 108.393 98.1561 108.893 97.5999 109.338C97.3218 109.56 97.0437 109.782 96.7657 110.004L95.9314 110.615C94.7635 111.448 93.5399 112.115 92.2051 112.615C90.9259 113.115 89.5355 113.448 88.0894 113.559C86.699 113.726 85.2529 113.559 83.8069 113.393C84.1406 113.504 84.4743 113.559 84.8636 113.67C85.1973 113.726 85.5867 113.837 85.9204 113.892C86.6434 113.948 87.3664 114.059 88.0894 114.004C88.8124 114.059 89.5355 113.892 90.2585 113.781C90.5922 113.726 90.9815 113.615 91.3152 113.504C91.6489 113.448 92.0382 113.281 92.3719 113.17C93.7623 112.67 95.0415 111.893 96.1539 111.004C97.3218 110.115 98.3229 109.06 99.1016 107.838Z"
              fill="white"/>
        <path d="M132.806 121.78C132.694 122.669 132.639 123.502 132.472 124.391C132.361 125.28 132.194 126.113 132.083 126.946C131.749 128.668 131.415 130.334 130.97 132.001C130.525 133.667 130.025 135.334 129.469 137C129.302 137.389 129.191 137.833 129.024 138.222L128.523 139.444C128.245 140.277 127.856 141.055 127.522 141.888C128.412 140.388 129.246 138.833 129.858 137.167C130.192 136.389 130.47 135.5 130.803 134.723C131.082 133.889 131.304 133.056 131.526 132.167C131.971 130.446 132.305 128.724 132.528 127.002C132.75 125.28 132.861 123.558 132.806 121.78Z"
              fill="white"/>
        <path d="M97.0996 241.817C97.7114 239.373 71.4045 230.707 71.6826 229.819C72.0163 228.874 99.7136 237.762 100.993 234.596C101.493 233.429 97.767 231.929 97.8226 228.819C97.8782 224.597 105.72 224.208 106.721 218.82C107.778 213.21 102.494 209.933 103.162 203.489C103.996 196.046 113.562 188.492 117.845 190.325C118.735 190.714 119.513 191.547 120.181 192.713L112.839 216.432L96.599 256.148C81.8605 256.425 65.231 242.094 66.399 239.095C67.9006 235.484 96.599 243.983 97.0996 241.817Z"
              fill="url(#paint2_linear_2031_23622)"/>
        <path d="M118.623 170.773C117.9 170.217 118.29 167.94 121.237 162.108C124.463 159.164 126.855 157.608 126.855 157.608C154.163 165.607 150.937 209.656 150.937 209.656C150.158 210.322 149.046 210.933 147.655 211.433C154.997 227.431 142.706 265.313 142.706 265.313C136.866 264.98 131.971 264.591 127.911 264.202C126.966 261.203 126.799 258.259 128.134 255.981C131.638 250.038 143.484 251.482 143.651 249.038C143.762 246.761 133.529 245.205 133.64 242.984C133.807 240.54 146.543 239.984 146.599 238.04C146.654 235.762 129.024 234.763 128.746 230.985C128.523 228.042 139.313 227.764 144.597 219.099C146.043 216.766 146.599 213.266 147.822 206.267C149.324 197.491 150.047 193.047 147.989 191.214C144.207 187.826 134.307 193.603 133.807 192.269C132.973 190.103 145.709 183.937 144.708 181.938C143.762 179.994 133.529 182.827 133.306 182.049C133.139 181.438 140.203 180.716 141.593 176.883C142.984 172.995 138.534 166.163 133.139 164.996C126.243 163.607 120.292 171.995 118.623 170.773Z"
              fill="url(#paint3_linear_2031_23622)"/>
        <path d="M123.072 160.108C123.072 160.108 125.352 158.83 129.079 159.775Z" fill="white"/>
        <path d="M124.74 161.497C124.74 161.497 127.021 160.219 130.747 161.163Z" fill="white"/>
        <path d="M128.078 163.274C128.078 163.274 129.635 162.441 132.138 163.052Z" fill="white"/>
        <path d="M16.2878 84.4536C16.2878 84.4536 18.5681 83.176 22.2944 84.1203Z" fill="white"/>
        <path d="M17.9567 85.7866C17.9567 85.7866 20.237 84.509 23.9634 85.4533Z" fill="white"/>
        <path d="M21.2935 87.5633C21.2935 87.5633 22.8508 86.7301 25.3535 87.3411Z" fill="white"/>
        <path d="M140.202 193.047C140.202 193.047 142.705 192.27 146.153 193.936Z" fill="#9BA4A8"/>
        <path d="M141.537 194.714C141.537 194.714 144.04 193.937 147.488 195.603Z" fill="#9BA4A8"/>
        <path d="M144.429 197.157C144.429 197.157 146.098 196.657 148.434 197.768Z" fill="#9BA4A8"/>
        <path d="M47.4897 25.685L56.7221 7.13239C56.7221 7.13239 58.5019 3.46632 61.394 4.96607C64.2861 6.46583 62.9512 10.0764 62.9512 10.0764L53.6632 33.517C53.6632 33.517 55.5542 36.5166 54.8868 38.1829C54.275 39.9049 47.5453 49.1256 44.6532 49.4589C41.7611 49.7922 31.8613 53.2916 22.1839 47.7925L23.63 43.9598C23.63 43.9598 19.0138 36.1277 19.5143 32.7949C20.0705 29.4621 23.8524 21.0746 23.8524 21.0746L24.7423 5.96591C24.7423 5.96591 24.2974 1.41109 27.9681 1.02227C31.6388 0.633439 31.4164 5.46599 31.4164 5.46599L31.3051 18.0195L47.4897 25.685Z"
              fill="#D8AA06"/>
        <path d="M46.4888 41.5158C45.7657 41.7935 43.2074 38.8495 42.2063 38.4607C40.9827 37.9608 40.7602 36.8498 39.5923 35.5723C38.1462 34.017 37.4232 34.5169 35.5322 33.0727C32.5289 30.7953 31.6391 27.2958 31.4166 26.4071C30.9717 24.7407 30.9717 23.2965 31.0273 22.3522C31.0273 22.3522 29.4144 21.5745 27.8015 21.2968C26.2442 21.0746 26.3555 20.8524 26.3555 20.8524C26.3555 20.8524 29.3031 20.1859 32.9739 21.1302L44.4866 32.906L46.4888 41.5158Z"
              fill="#263238"/>
        <path d="M39.4809 18.6854C39.4809 18.6854 46.4886 16.1858 47.8234 20.2962C49.1582 24.4067 47.4897 33.5164 45.4319 33.7941C43.374 34.0718 40.1482 33.4053 40.76 29.7947C41.4274 26.1842 41.3718 23.4624 41.3718 23.4624C41.3718 23.4624 40.4263 23.518 39.9258 24.0734"
              fill="#D8AA06"/>
        <path d="M39.481 18.6857C40.9827 18.2413 42.54 17.9636 44.0973 18.0746C44.8759 18.1302 45.6545 18.2968 46.2663 18.6301C46.9337 18.9634 47.3787 19.5744 47.6011 20.2965C48.0461 21.7407 48.1017 23.296 48.0461 24.8513C47.9905 26.4066 47.768 27.9619 47.4343 29.4617C47.2674 30.1838 47.045 30.9615 46.7669 31.6836C46.6556 32.0168 46.4888 32.4057 46.2663 32.6834C46.0995 33.0167 45.877 33.2944 45.5989 33.461C45.5433 33.5166 45.4877 33.5166 45.4321 33.5166L45.154 33.5721C44.9871 33.5721 44.7647 33.5721 44.5978 33.6277C44.2085 33.6277 43.8748 33.5721 43.4855 33.5166C42.7624 33.35 42.0394 33.0722 41.5945 32.5168C41.0939 31.9613 40.9271 31.2392 40.9827 30.5171C40.9827 30.1282 41.0383 29.795 41.1496 29.3506C41.2052 28.9618 41.2608 28.5729 41.3164 28.1841C41.4833 26.6288 41.5945 25.0735 41.5389 23.4627V23.4071H41.4833C40.9271 23.4627 40.4265 23.6849 40.0372 24.0737C40.4265 23.6849 40.9827 23.5738 41.4833 23.5182L41.4276 23.4627C41.372 25.018 41.2052 26.5733 40.9827 28.1286C40.9271 28.5174 40.8715 28.9062 40.8159 29.2951C40.7602 29.6839 40.649 30.0727 40.649 30.4615C40.5934 31.2947 40.7602 32.1835 41.3164 32.85C41.8726 33.5166 42.7068 33.9054 43.4855 34.0721C43.8748 34.1832 44.3197 34.1832 44.7091 34.1832C44.9315 34.1832 45.0984 34.1832 45.3208 34.1832L45.5989 34.1276C45.7102 34.1276 45.877 34.0721 45.9882 34.0165C46.4332 33.7943 46.6557 33.4055 46.8781 33.0722C47.1006 32.7389 47.2674 32.3501 47.4343 31.9613C47.7124 31.2392 47.9349 30.4615 48.1017 29.6839C48.4354 28.1286 48.6579 26.5733 48.7135 24.9624C48.7691 23.4071 48.7135 21.7963 48.1573 20.241C47.8792 19.4633 47.3231 18.7412 46.5444 18.4079C45.8214 18.0191 44.9871 17.908 44.2085 17.908C42.54 17.7969 40.9827 18.1302 39.481 18.6857Z"
              fill="#263238"/>
        <path d="M26.4111 20.7975C26.4111 20.7975 27.9127 20.0753 32.9739 21.0752C32.9739 21.0752 33.0295 24.2414 32.3621 27.8519C31.6947 31.4624 34.9761 32.129 37.0339 31.8513C39.0918 31.5735 40.7603 22.4639 39.4255 18.3534C38.0907 14.243 31.3054 16.687 31.3054 16.687"
              fill="#D8AA06"/>
        <path d="M26.4108 20.7973C26.9113 20.6307 27.5231 20.6307 28.0237 20.6307C28.5799 20.6307 29.136 20.6862 29.6922 20.7418C30.8046 20.8529 31.8613 21.075 32.918 21.2972L32.8068 21.1306C32.8068 22.6859 32.6399 24.2412 32.4731 25.7965C32.3618 26.5742 32.2506 27.3518 32.1394 28.1295C32.0281 28.9071 32.0838 29.8514 32.5287 30.5735C32.9736 31.3512 33.7523 31.7955 34.5865 32.0177C35.3652 32.2399 36.1994 32.2955 37.0337 32.1844C37.1449 32.1844 37.2562 32.1288 37.423 32.0733C37.5342 32.0177 37.6455 31.9622 37.7567 31.9066C37.9236 31.74 38.0904 31.5733 38.2017 31.4067C38.4797 31.0734 38.6466 30.6846 38.8134 30.2958C39.1472 29.5737 39.3696 28.796 39.5365 28.0184C39.9258 26.4631 40.0926 24.9078 40.2039 23.2969C40.2595 21.6861 40.2039 20.0752 39.7589 18.5199C39.5365 17.7423 39.0359 16.9646 38.3685 16.5202C37.6455 16.0759 36.8668 15.8537 36.0326 15.8537C34.4197 15.7981 32.8624 16.1314 31.3607 16.6869C32.8624 16.2425 34.4197 15.9648 35.977 16.1314C36.7556 16.2425 37.4786 16.4091 38.0904 16.8535C38.7022 17.2979 39.0915 17.9644 39.314 18.6865C39.7033 20.1863 39.7033 21.7416 39.6477 23.2969C39.5365 24.8522 39.314 26.4075 38.9803 27.9073C38.8134 28.6849 38.5354 29.407 38.2573 30.0736C38.0904 30.4069 37.9236 30.7402 37.7011 31.0179C37.4786 31.2956 37.2562 31.5178 36.9781 31.5734C36.2551 31.6844 35.4764 31.6289 34.7534 31.4067C34.0304 31.1845 33.4186 30.7957 33.0292 30.1847C32.2506 28.9627 32.918 27.2963 32.9736 25.741C33.1405 24.1857 33.1961 22.5748 33.1961 21.0195V20.9084H33.0849C31.9725 20.6862 30.9158 20.5751 29.8034 20.5196C29.2473 20.464 28.6911 20.464 28.1349 20.5196C27.5231 20.5751 26.9113 20.6307 26.4108 20.7973Z"
              fill="#263238"/>
        <path d="M53.6631 33.5176C53.6631 33.5176 43.7076 20.0754 39.8144 24.1858C35.9212 28.2963 39.8144 30.6292 43.3183 32.4623C43.3183 32.4623 44.4863 38.2391 46.4885 41.4608"
              fill="#D8AA06"/>
        <path d="M53.6631 33.517C52.2727 31.5173 50.7154 29.6287 48.9912 27.8512C48.157 26.9625 47.2671 26.1293 46.266 25.3516C45.3205 24.574 44.2638 23.8519 43.0402 23.463C42.4285 23.2408 41.7611 23.1298 41.0936 23.2408C40.4262 23.3519 39.8145 23.7963 39.3695 24.2407C38.9246 24.6851 38.5353 25.185 38.2572 25.796C37.9235 26.3515 37.8122 27.018 37.8122 27.7401C37.8679 28.4067 38.1459 29.0177 38.5353 29.5732C38.9246 30.1286 39.4251 30.5175 39.9257 30.9063C40.9268 31.6284 42.0391 32.2394 43.0959 32.7949L42.9846 32.6282C43.3739 34.1835 43.8189 35.7388 44.3194 37.2386C44.8756 38.7384 45.4874 40.2381 46.3773 41.5712C45.5986 40.1826 45.0981 38.6828 44.5975 37.1275C44.1526 35.6277 43.7633 34.0724 43.4296 32.5171V32.406L43.3183 32.3505C42.2616 31.7395 41.2049 31.184 40.2594 30.4619C39.3139 29.7398 38.4796 28.7955 38.424 27.6846C38.3684 26.5736 39.0358 25.5183 39.8144 24.6295C40.2038 24.1851 40.6487 23.8519 41.1493 23.7963C41.7054 23.6852 42.2616 23.7963 42.8178 23.963C43.9301 24.3518 44.9312 25.0183 45.8767 25.7404C46.8222 26.4626 47.7677 27.2958 48.6019 28.129C50.4373 29.7954 52.1058 31.6284 53.6631 33.517Z"
              fill="#263238"/>
        <path d="M48.2681 78.788L12.2838 79.4545L22.1837 47.793L44.653 49.4594C44.653 49.4594 41.3159 60.4021 48.2681 78.788Z"
              fill="#D8AA06"/>
        <path d="M26.4655 163.274C27.8003 163.107 29.1351 163.107 30.4699 162.94C31.8047 162.774 33.1395 162.496 34.4187 162.107C35.6979 161.718 36.9771 161.218 38.1451 160.607L38.2007 160.719C37.0883 161.552 35.8648 162.163 34.5856 162.718C33.3064 163.218 31.9716 163.607 30.6368 163.94C29.302 164.218 27.9115 164.551 26.5211 164.551C26.1874 164.551 25.8537 164.551 25.52 164.551V164.496L25.8537 163.94C25.6869 163.774 25.5756 163.662 25.4088 163.496C25.7981 163.385 26.1318 163.329 26.4655 163.274Z"
              fill="#263238"/>
        <path d="M54.3853 15.7422C53.8847 15.4644 53.4398 15.1312 52.9392 14.7423L53.1061 14.3535C53.551 14.7979 53.9403 15.2423 54.3853 15.7422Z"
              fill="#263238"/>
        <path d="M55.4419 14.7418C54.7189 14.5752 53.9402 14.4085 53.2172 14.0752L53.4397 13.6309C54.1071 14.0197 54.8301 14.353 55.4419 14.7418Z"
              fill="#263238"/>
        <path d="M62.4504 10.6875C63.0066 9.02108 62.4504 6.91031 61.2268 6.52148C60.1145 6.1882 59.0021 7.35468 58.8909 7.52132C57.5005 9.02108 56.9443 12.0206 57.9454 13.0204C58.9465 14.0203 61.6718 12.9093 62.4504 10.6875Z"
              fill="#FFCA28"/>
        <path d="M61.4487 13.2432C61.4487 13.2432 60.8369 14.0208 59.8358 13.9653Z" fill="#FFCA28"/>
        <path d="M59.1685 6.18848C58.8347 6.35512 58.6123 6.52176 58.3342 6.74394C58.0561 6.96613 57.8336 7.24386 57.6668 7.5216C57.4999 7.79933 57.3331 8.13261 57.2775 8.46589C57.2218 8.79917 57.2218 9.188 57.3331 9.46573C57.3887 9.13245 57.3887 8.79917 57.4999 8.52144C57.6112 8.24371 57.778 7.96597 57.9449 7.68824C58.2786 7.18832 58.7235 6.6884 59.1685 6.18848Z"
              fill="#FFCA28"/>
        <path d="M30.5817 5.07625C30.5261 3.57649 29.4138 1.96563 28.2458 2.07673C27.2447 2.13227 26.7442 3.4654 26.6329 3.63204C25.9655 5.29843 26.4661 7.90913 27.634 8.40905C28.802 8.90896 30.693 7.13147 30.5817 5.07625Z"
              fill="#FFCA28"/>
        <path d="M30.5811 7.52148C30.5811 7.52148 30.3586 8.3547 29.5244 8.57689Z" fill="#FFCA28"/>
        <path d="M26.4658 2.52246C26.2434 2.74465 26.0765 2.96683 25.9653 3.24457C25.7984 3.5223 25.7428 3.80003 25.6872 4.07776C25.6316 4.3555 25.6316 4.68877 25.6872 4.96651C25.7428 5.24424 25.8541 5.57752 26.0765 5.7997C26.0209 5.52197 25.9653 5.24424 25.9653 4.96651C25.9653 4.68877 25.9653 4.41104 26.0209 4.13331C26.0765 3.57784 26.299 3.07793 26.4658 2.52246Z"
              fill="#FFCA28"/>
        <path d="M53.9959 38.0714C53.4953 39.5156 52.0493 41.1264 50.492 41.0709C47.5999 41.0153 44.4854 35.6273 45.7646 31.7946C45.9871 31.1836 46.4876 29.6283 47.6556 29.4061C50.1583 28.8506 55.3307 34.072 53.9959 38.0714Z"
              fill="#FFCA28"/>
        <path d="M45.598 23.296C46.321 23.4071 47.044 22.9072 47.0996 22.1851C47.2109 21.1852 46.9884 20.352 46.4322 19.7966C45.9873 19.4077 45.3199 19.3522 44.0407 19.1856C42.7059 19.0745 41.7048 18.9634 41.3155 19.4633C40.9818 20.0188 41.4267 20.8519 41.4823 21.0741C42.3166 22.5739 44.2632 23.1294 45.598 23.296Z"
              fill="#FFCA28"/>
        <path d="M52.6062 19.1304C52.3837 19.7414 52.9955 20.6301 53.8854 21.1856C55.1089 21.8521 56.2212 22.241 56.9443 22.0188C57.5004 21.8521 57.6117 21.3522 57.9454 20.2413C58.2234 19.1303 58.4459 18.2972 57.7785 17.6306C57.1111 17.0196 55.9988 16.8529 55.7207 16.8529C53.7741 16.6308 52.9399 18.075 52.6062 19.1304Z"
              fill="#FFCA28"/>
        <path d="M50.2141 26.573C49.9916 27.1284 50.3809 27.9616 51.1596 28.3505C52.1607 28.9059 53.1062 29.1281 53.7736 28.8504C54.2741 28.6837 54.441 28.1283 54.7747 27.0729C55.1084 26.0175 55.3865 25.1843 54.8859 24.6844C54.3854 24.1289 53.3842 24.1289 53.1618 24.1289C51.4933 24.1289 50.6034 25.5731 50.2141 26.573Z"
              fill="#FFCA28"/>
        <path d="M25.2418 16.2979C25.2974 16.9089 26.1317 17.5755 27.1884 17.6866C28.5788 17.8532 29.7468 17.7976 30.3586 17.3533C30.8035 17.02 30.7479 16.4645 30.581 15.3536C30.4142 14.2427 30.3586 13.3539 29.4687 13.0206C28.6344 12.6874 27.5221 12.9651 27.2996 13.0206C25.4086 13.5206 25.1862 15.1314 25.2418 16.2979Z"
              fill="#FFCA28"/>
        <path d="M37.2 21.2413C37.9231 21.3524 38.5904 20.8525 38.7017 20.1304C38.8129 19.1305 38.5905 18.2973 38.0343 17.7419C37.5894 17.3531 36.9219 17.2975 35.6428 17.1309C34.3079 17.0198 33.3068 16.9087 32.9175 17.4086C32.5838 17.9641 33.0288 18.7973 33.0844 19.0195C33.863 20.5192 35.8652 21.0191 37.2 21.2413Z"
              fill="#FFCA28"/>
        <path d="M36.8663 45.7928C39.4247 43.4599 35.1978 30.7952 27.5782 29.2399C27.2445 29.1844 23.5182 28.4623 22.1834 30.3509C20.0699 33.2393 24.2412 41.2935 30.6372 44.5708C32.0276 45.2929 35.4202 47.0704 36.8663 45.7928Z"
              fill="#FFCA28"/>
        <path d="M46.7104 84.7317C46.7104 84.7317 36.8106 80.0102 26.2989 79.177L45.1532 78.8438L46.7104 84.7317Z"
              fill="#9BA4A8"/>
        <path d="M48.8239 22.9082L48.5458 23.4637L48.3234 27.463L49.2132 28.3518C49.2132 28.3518 49.6025 24.8523 48.8239 22.9082Z"
              fill="#263238"/>
        <path d="M46.3212 44.6825C46.6549 44.5158 46.6549 44.0159 46.2656 43.8493C45.7094 43.6271 45.0977 43.2938 44.4303 42.905C42.6505 41.7385 42.3168 40.7387 41.5938 40.7942C40.259 40.9608 38.9242 44.4603 39.9809 45.6823C40.8708 46.6821 43.3735 46.3489 46.3212 44.6825Z"
              fill="#FFCA28"/>
        <path d="M48.2681 78.7872L44.7086 78.8427C44.2637 68.5111 40.3149 58.2905 40.148 50.1807L44.4305 50.7361C43.7631 54.1245 42.7064 64.0673 48.2681 78.7872Z"
              fill="#FFCA28"/>
        <path d="M140.259 142.944L140.592 141.833C140.592 141.833 164.341 146.888 146.821 180.105L146.321 179.271C160.225 151.498 144.486 144.277 140.259 142.944Z"
              fill="#FFCA28"/>
        <path d="M142.26 153.054C142.983 151.944 143.706 150.777 144.708 149.722C144.708 150.444 144.485 151.166 144.263 151.832C144.04 152.499 143.706 153.166 143.317 153.777C143.206 153.943 143.095 154.11 142.928 154.332C142.594 154.054 142.316 153.777 142.038 153.499C142.094 153.332 142.205 153.221 142.26 153.054Z"
              fill="#263238"/>
        <path d="M148.712 160.331C148.045 160.72 147.377 160.887 146.654 161.053C146.042 161.165 145.431 161.22 144.819 161.22C144.874 160.831 144.874 160.387 144.93 159.998C146.154 160.054 147.377 160.109 148.712 160.331Z"
              fill="#263238"/>
        <path d="M143.929 165.719C143.984 165.719 143.984 165.774 144.04 165.774C145.152 166.496 146.376 167.163 147.488 168.107C146.765 168.107 146.042 167.941 145.375 167.718C144.763 167.496 144.151 167.219 143.595 166.941C143.706 166.552 143.818 166.163 143.929 165.719Z"
              fill="#263238"/>
        <path d="M25.0752 10.5211C25.7982 10.6322 26.5212 10.7433 27.2998 10.7989V10.8544C26.5768 10.9655 25.7982 11.0211 25.0195 11.0211C24.9639 11.0211 24.9083 11.0211 24.9083 11.0211C25.5201 11.3543 26.1319 11.6876 26.7436 11.9654V12.0209C26.0206 11.8543 25.2976 11.6321 24.5746 11.3543C24.519 11.3543 24.519 11.3543 24.4634 11.2988L24.519 10.3545C24.6858 10.4656 24.9083 10.4656 25.0752 10.5211Z"
              fill="#263238"/>
        <path d="M25.0752 20.9641V21.0197C24.6859 21.0197 24.2966 21.0197 23.8517 20.9641V20.6309C24.2966 20.7975 24.6859 20.853 25.0752 20.9641Z"
              fill="#263238"/>
        <path d="M50.2146 20.1857C50.5483 20.5745 50.9376 20.9634 51.3269 21.3522L51.2713 21.4077C50.8264 21.13 50.4371 20.8523 49.9921 20.519L50.3814 19.7969C50.9376 20.1857 51.5494 20.519 52.2168 20.7412V20.7967C51.8275 20.7412 51.4382 20.6856 51.0488 20.5745C50.7708 20.4634 50.4927 20.3523 50.2146 20.1857Z"
              fill="#263238"/>
        <path d="M23.629 43.96C26.3543 45.9596 30.8036 48.6814 35.2529 49.1258C35.2529 49.1258 27.8559 49.7923 22.2386 47.7927L23.629 43.96Z"
              fill="#263238"/>
        <path d="M43.1512 49.6246C43.7074 49.5691 44.2079 49.458 44.7085 49.458C44.6529 49.458 44.6529 49.458 44.5973 49.458C44.5973 49.458 44.486 49.9024 44.3192 50.68C43.9298 50.68 43.5405 50.6245 43.1512 50.5689C42.5394 50.5134 41.9276 50.4578 41.3158 50.3468C40.704 50.2357 40.0922 50.1246 39.4804 50.0135V49.9024C40.0922 49.8468 40.704 49.8468 41.3158 49.7913L43.1512 49.6246Z"
              fill="#263238"/>
        <path d="M18.1234 198.546C19.4026 198.99 20.5705 199.601 21.8497 200.101C23.0733 200.601 24.3525 201.045 25.6317 201.49C26.9108 201.934 28.19 202.378 29.4692 202.767L29.4136 202.878C28.0788 202.656 26.744 202.378 25.4648 202.045C24.13 201.712 22.8508 201.379 21.5716 200.99C20.2924 200.601 18.9576 200.268 17.7341 199.657C17.6784 199.657 17.6784 199.601 17.6228 199.601L17.9009 198.435C17.9009 198.435 18.0121 198.49 18.1234 198.546Z"
              fill="#263238"/>
        <path d="M17.4002 72.3994C17.2333 72.6216 17.1777 72.7882 17.0664 73.0104C17.0108 73.2326 16.9552 73.3992 16.8996 73.5659C16.8996 73.7325 16.844 73.9547 16.8996 74.1213C16.8996 74.288 16.9552 74.4546 17.0664 74.5657C17.2333 74.3435 17.2889 74.1213 17.4002 73.9547C17.4558 73.7325 17.5114 73.5659 17.5114 73.3992C17.5114 73.2326 17.567 73.066 17.5114 72.8993C17.567 72.6771 17.5114 72.5105 17.4002 72.3994Z"
              fill="#263238"/>
        <path d="M22.7393 53.958C22.0719 55.2356 21.5157 56.5687 21.0151 57.9018C20.5146 59.2349 20.0697 60.568 19.6247 61.9012C19.4023 62.5677 19.2354 63.2343 19.0686 63.9009C18.9017 64.5674 18.7349 65.234 18.568 65.9005C18.2343 67.2337 18.0119 68.5668 17.9006 69.8443C18.2899 68.5112 18.6236 67.1781 19.0129 65.845C19.4023 64.5119 19.7916 63.1787 20.1809 61.8456C20.5702 60.5125 21.0152 59.1794 21.4045 57.8463L22.7393 53.958Z"
              fill="#263238"/>
    </g>
    <defs>
        <linearGradient id="paint0_linear_2031_23622" x1="196.822" y1="109.5" x2="96.9337" y2="204.46"
                        gradientUnits="userSpaceOnUse">
            <stop stop-color="#687D87"/>
            <stop offset="1" stop-color="#B1CFDB" stop-opacity="0"/>
        </linearGradient>
        <linearGradient id="paint1_linear_2031_23622" x1="-18.0529" y1="192.64" x2="137.521" y2="143.503"
                        gradientUnits="userSpaceOnUse">
            <stop stop-color="#687D87"/>
            <stop offset="1" stop-color="#B1CFDB" stop-opacity="0"/>
        </linearGradient>
        <linearGradient id="paint2_linear_2031_23622" x1="49.4954" y1="233.178" x2="136.969" y2="184.071"
                        gradientUnits="userSpaceOnUse">
            <stop stop-color="#687D87"/>
            <stop offset="1" stop-color="#B1CFDB" stop-opacity="0"/>
        </linearGradient>
        <linearGradient id="paint3_linear_2031_23622" x1="108.064" y1="227.883" x2="175.089" y2="213.836"
                        gradientUnits="userSpaceOnUse">
            <stop stop-color="#687D87"/>
            <stop offset="1" stop-color="#B1CFDB" stop-opacity="0"/>
        </linearGradient>
        <clipPath id="clip0_2031_23622">
            <rect width="159" height="228" fill="white"/>
        </clipPath>
    </defs>
</svg>
